<?xml version="1.0" encoding="UTF-8"?>
<svg id="Layer_2" xmlns="http://www.w3.org/2000/svg" viewBox="0 0 136.79 126.9">
  <defs>
    <style>
      .cls-1 {
        fill: #fe6b74;
      }
    </style>
  </defs>
  <g id="Layer_1-2" data-name="Layer_1">
    <path class="cls-1" d="M133.61,21.24c1.74-1.32,2.81-3.94,3.1-4.72.05-.15.08-.3.08-.46C136.89,0,122.68.54,122.68.54l-32.93-.16c-5.36-.03-7.05,2.52-7.05,2.52l-12.48,12.69c-.23.24-.37.56-.37.89l-.09,18.22c2.8-2.57,6.53-4.14,10.62-4.12,8.63.04,15.59,7.07,15.54,15.7-.02,4.79-2.2,9.06-5.61,11.9,3.38,2.88,5.52,7.17,5.49,11.96-.04,8.63-7.07,15.59-15.7,15.54-4.86-.02-9.18-2.26-12.03-5.75-2.88,3.46-7.23,5.66-12.09,5.63-8.63-.04-15.59-7.07-15.54-15.7.02-4.79,2.2-9.06,5.61-11.9-3.38-2.88-5.52-7.17-5.49-11.96.04-8.63,7.07-15.59,15.7-15.54,4.1.02,7.81,1.63,10.58,4.23l.09-18.22c0-.33-.13-.66-.36-.9l-12.36-12.82s-1.67-2.56-7.02-2.59L14.26,0S.06-.68,0,15.38c0,.16.02.31.08.46.28.78,1.32,3.41,3.05,4.75,0,0,3.3,2.54,1.85,7.26,0,0-1.6,4.4-1.63,9.92l-.25,51.21-.08,15.89c0,.71-.58,1.28-1.29,1.28-.71,0-1.28.56-1.29,1.26-.04,4.43,1.12,18.91,18.08,18.99l31.29.16c.33,0,.64-.12.88-.34.88-.84,3.5-2.99,7.95-3.93.1-.02.2-.03.3-.03l17.85.09c.1,0,.2.01.3.03,4.44.98,7.04,3.16,7.91,4.01.23.23.55.35.87.35l31.29.16c16.95.08,18.26-14.38,18.26-18.81,0-.71-.57-1.27-1.28-1.28-.71,0-1.28-.58-1.28-1.29l.08-15.89.25-51.21c.03-5.52-1.53-9.94-1.53-9.94-1.39-4.73,1.93-7.24,1.93-7.24Z"/>
  </g>
</svg>