<?xml version="1.0" encoding="UTF-8"?>
<svg id="_레이어_1" data-name="레이어_1" xmlns="http://www.w3.org/2000/svg" viewBox="0 0 450 450">
  <defs>
    <style>
      .cls-1 {
        fill: #9b9b9b;
      }
    </style>
  </defs>
  <path class="cls-1" d="M28.56,109.87c-2.65-3.55-5.15-5.96-6.49-8.9-2.8-6.14-9.18-10.88-7.58-18.87.15-.75-1.73-1.77-1.81-2.74-.18-2.28-.17-4.68.37-6.88.56-2.26,2.2-4.25,2.76-6.51,1.21-4.93,1.88-9.99,3.11-14.91.31-1.24,1.93-2.14,2.92-3.22,1.18-1.29,2.38-2.57,3.47-3.94.51-.63.61-1.68,1.21-2.15,3.9-3.05,7.89-5.98,11.84-8.97,1.04-.79,1.89-1.88,3.01-2.48,1.94-1.04,4.02-1.81,6.06-2.65.27-.11.78.24.97.1,6.05-4.71,12.43.42,18.61-.61,1.07-.18,2.39.14,3.37.66,2.19,1.17,3.66,1.15,5.6-.9,3.93-4.15,8.45-.37,12.71-.23,5.39.16,10.5,1.99,16.25.58,4.45-1.09,9.58.47,14.39,1.01,3.12.35,6.19,1.29,9.31,1.46,6.76.37,13.54.71,20.3.52,6.99-.2,13.98-.87,20.92-1.7,3.45-.41,5.73.57,7.7,3.34,1.21,1.7,3.16,2.85,4.46,4.51,1.54,1.97,2.74,4.22,4.01,6.23,1.97,1.84,3.94,3.65,5.87,5.49,2.51,2.39,5.99,4.37,7.27,7.31,2.97,6.79,10.31,9.19,13.85,15.2.47.8,1.03,1.74,1.8,2.13,7.26,3.69,8.9,7.91,5.9,15.34-.3.75-.47,1.63-.45,2.44.17,6.5-.58,13.23.86,19.45,1.92,8.33-3.5,13-6.84,18.95-2.52,4.49-4.37,9.36-6.48,14.08-.4.9-.46,1.98-.93,2.83-4.08,7.44-8.05,14.95-12.44,22.2-1.05,1.73-3.48,2.67-5.35,3.85-3.46,2.17-6.98,4.26-10.48,6.37-4.99,3.01-8.39,7.85-13.75,10.81-3.44,1.9-6.73,3.7-10.44,5.22-2.78,1.14-4.59,4.67-7.72,8.12,4.27,2.52,7.23,5.19,10.64,6.08,6.59,1.72,11.86,6.47,18.9,7.31,2.81.34,5.4,3.41,7.86,5.51,3.93,3.34,9.99,3.9,12.01,9.79,1.49,4.33,2.92,8.95,5.57,12.56,5.44,7.42,7.05,17.23,14.81,23.22,1.47,1.13,1.98,3.73,2.56,5.76,1.56,5.55,5.3,6.96,9.4,3.18,4.71-4.34,7.8-9.59,10.36-15.62,3.11-7.32,4.68-15.68,11.3-21.28.74-.62.69-2.59.49-3.85-.67-4.21.86-6.55,4.99-7,7.1-.78,12.71-4.13,17.1-9.7.82-1.04,1.56-2.27,2.63-2.95,6.18-3.95,12.42-7.81,18.71-11.58,3.01-1.8,6.18-3.34,9.59-5.17-1.35-.56-2.93-1.28-4.55-1.87-6.37-2.34-13.02-3.63-17.43-10.07-1.81-2.65-6.57-3.28-10-4.8-.28-.13-.76.1-.98-.06-4.96-3.55-9.37-7.99-15.72-9.25-.53-.1-.84-1.71-1.1-2.66-1.35-4.86-2.24-9.9-4.13-14.53-1.15-2.82-4.05-4.87-5.79-7.52-4.98-7.6-10.8-14.89-14.28-23.15-2.32-5.5-6.58-11.41-3.72-18.44.63-1.55-.23-3.69-.35-5.56-.1-1.63-.23-3.27-.14-4.89.09-1.61,1.05-3.41.58-4.77-1.89-5.51-1.28-10.61,1.5-15.6.48-.86.54-2.08,1.2-2.68,4.28-3.89,8.69-7.63,13.01-11.48.75-.68,1.38-1.6,1.79-2.53.53-1.19.37-3.05,1.21-3.69,8.49-6.44,13.21-17.08,23.68-21.3.56-.22,1.03-.79,1.4-1.31,3.27-4.56,7.87-6,13.15-4.41,2.07.62,4.39,1.03,6.5.78,8.7-1.03,17.09-.91,25.89.99,7.85,1.69,16.38,0,24.6.16,4.72.09,9.44.86,14.15,1.34,4.25.43,8.48,1.19,12.73,1.26,5.69.09,11.59-1.39,17.03-.32,6.73,1.34,13.21.16,19.79.43,1.36.06,2.71,1.08,4.02,1.75,2.07,1.04,4.09,3.04,6.15,3.05,4.26.02,5.54,2.98,8.09,5.36,4.82,4.5,5.55,11.04,9.16,15.53,4.34,5.39,5.57,10.29,5.92,17.02.31,5.98,1.13,11.65-.97,17.38-.11.31,0,.81-.19.96-5.15,4.03-7.35,11.63-15.01,12.8-1.15,2.94-3.02,6-3.42,9.23-.34,2.78,1.36,5.75,1.49,8.67.19,4.15-.27,8.33-.38,12.5-.03,1.32,0,2.69.31,3.97,1.22,5.03,2.58,10.02,3.86,15.03.16.63.41,1.58.1,1.95-4.13,5.02-1.36,9.8-.07,14.91.82,3.25-.27,6.94-.22,10.44.05,3.81.13,7.67.72,11.42.99,6.27,3.05,12.21.99,18.92-1.32,4.32-.19,9.39-.11,14.13.13,7.44.62,14.89.34,22.31-.2,5.47-1.44,10.9-2.07,16.36-.13,1.09.03,2.53.66,3.36,3.92,5.24,1.32,10.41.4,15.76-.53,3.04.23,6.32.56,9.48.35,3.42,1.57,6.9,1.17,10.21-.76,6.4-.18,12.31,1.81,18.53,1.15,3.59-.63,8.1-1,12.21-.45,5.05-.81,10.1-1.22,15.24,6.52,2.12,9.56,5.61,8.58,9.98-.47,2.07-.71,4.18-1.16,6.25-2.04,9.23-2.47,18.99-7.93,27.15-2.26,3.38-5.29,6.25-8.01,9.32-2.07,2.34-3.82,5.21-6.37,6.81-4.23,2.64-8.79,5.49-13.55,6.33-5.85,1.03-10.87,5.68-17.69,3.27-3.47-1.23-7.83.19-11.79.2-7.02.01-14.06-.47-21.06-.15-8.58.4-17.13,1.49-25.7,2.1-1.92.14-3.88-.6-5.84-.7-2.25-.11-5.11-.83-6.65.23-6.07,4.2-11.9,3.69-18.22.84-1.63-.74-3.95-.28-5.88.04-4.77.79-8.39-1.07-12.56-3.39-6.11-3.4-13.08-5.38-19.84-7.42-4.73-1.43-9.7-2.44-14.62-2.73-6-.36-12.08.58-18.1.31-6.61-.3-13.18-1.35-19.77-2.04-.63-.07-1.42-.05-1.9.27-7.2,4.75-16.68,5.51-22.39,12.95-.77,1.01-2.7,1.68-4.04,1.62-8.68-.44-17.35-1.15-26.03-1.72-1.61-.11-3.27-.09-4.87.12-4.12.54-8.31,3.36-12.23-.58-.17-.17-.64-.08-.97-.05-8.92.68-17.83,1.69-26.77,1.93-4.65.13-9.34-1.1-14.01-1.7-.82-.11-1.73-.39-2.47-.17-10.04,3.02-18.63-.98-27.91-4.29-8.72-3.11-14.06-10.25-21.76-14.26-1.35-.7-2.15-2.47-3.17-3.77-2.08-2.64-5.03-4.99-6.02-7.99-2.44-7.44-8.71-13.17-7.3-22.55,1.05-6.99,3.11-13.1,5.34-19.61,1.74-5.09-.91-11.64-1.43-17.55-.25-2.87-.12-5.78-.13-8.67,0-1.25.13-2.5.05-3.74-.08-1.32-.88-2.85-.44-3.9,4.83-11.49,1.39-23.48,2.3-35.19.68-8.64,1.25-17.29,1.82-25.94.09-1.33.07-2.7-.16-4-.84-4.93-1.81-9.85-2.67-14.78-.11-.64-.19-1.57.17-1.96,3.56-3.94.39-8.27.83-12.37.29-2.69.63-5.38.77-8.08.05-1.03-.51-2.08-.58-3.14-.12-1.93-.9-4.7.05-5.64,2.87-2.82,1.87-5.6,1.18-8.63-.33-1.44-.74-3.09-.35-4.42,2.7-9.12,1.33-18.53,1.67-27.74.37-9.97.72-19.83,2.99-29.56.15-.65.4-1.31.4-1.96.03-7.25.02-14.51.02-20.63Z"/>
</svg>