<svg version="1.1" id="Layer_1" xmlns="http://www.w3.org/2000/svg" xmlns:xlink="http://www.w3.org/1999/xlink" x="0px" y="0px"
	 width="100%" viewBox="0 0 448 448" enable-background="new 0 0 448 448" xml:space="preserve">
<path fill="#000000" opacity="1.000000" stroke="none" 
	d="
M180.851059,180.812836 
	C185.178406,178.651596 189.057861,176.407242 192.977921,174.312820 
	C196.429092,172.468918 198.689407,168.442505 200.296982,164.677094 
	C204.211761,155.507507 209.689133,147.059433 212.434036,137.318695 
	C213.274475,134.336334 215.712784,131.630524 217.898376,129.235138 
	C223.361298,123.247856 224.379440,116.425064 222.244370,108.955399 
	C221.455399,106.195160 221.723114,103.875984 223.555344,101.339417 
	C226.040268,104.462311 227.380569,107.425735 225.082764,110.983170 
	C224.391861,112.052864 224.175934,113.221802 224.805115,114.295448 
	C227.904678,119.584679 228.416870,125.772293 231.946884,131.223389 
	C234.873932,135.743408 238.764114,140.159454 240.319183,145.920364 
	C241.352341,149.747849 244.414597,153.080933 247.582977,156.113190 
	C251.398010,159.764343 254.045471,164.761597 253.663712,170.220963 
	C253.328644,175.012726 255.181503,177.237198 259.512543,177.521545 
	C262.918640,177.745193 265.145538,179.114792 266.450134,182.205658 
	C267.389008,184.430099 269.373535,184.977036 271.510376,185.724136 
	C276.033051,187.305389 280.700806,188.314560 283.909241,192.918793 
	C286.167969,196.160126 290.752747,197.261414 294.652100,198.473969 
	C296.382172,199.011917 298.118225,199.356506 299.717651,200.355774 
	C298.874054,202.835907 296.285065,203.769409 294.767792,204.236099 
	C287.577545,206.447784 283.266144,213.032761 276.494385,215.612335 
	C273.655731,216.693649 272.946014,219.419327 271.284576,221.333817 
	C267.397797,225.812653 262.304230,227.956924 256.937164,229.257996 
	C252.363007,230.366837 249.391159,231.915924 250.630615,237.204895 
	C250.930511,238.484680 250.688797,239.546005 249.757050,240.384003 
	C243.044159,246.421448 241.849121,255.400223 237.891159,262.899078 
	C235.396301,267.625916 233.485199,272.537201 229.268417,276.141968 
	C225.636108,279.247101 223.106659,279.250183 221.272659,274.790955 
	C218.632980,268.372925 215.050903,262.867523 209.702240,258.473846 
	C209.237335,258.091949 208.845535,257.362671 208.801361,256.766479 
	C208.295776,249.942474 202.303604,245.708923 200.505035,239.798019 
	C197.581146,230.188812 190.464340,225.930359 182.916672,220.564911 
	C177.590195,216.778473 171.420898,216.429016 166.305191,212.848785 
	C163.434052,210.839432 159.320465,210.012070 155.786423,208.579071 
	C153.217270,207.537338 150.940033,205.913376 151.302887,203.334930 
	C151.704330,200.482346 153.323410,196.842911 156.708069,196.995209 
	C162.941330,197.275711 166.885223,192.507889 170.767029,189.706055 
	C173.910095,187.437439 178.219223,184.888641 180.851059,180.812836 
z"/>
<path fill="#000000" opacity="1.000000" stroke="none" 
	d="
M152.999908,428.378326 
	C107.848175,428.373444 63.196457,428.371399 18.544741,428.359650 
	C11.671675,428.357849 11.653428,428.337219 11.652972,421.563538 
	C11.645480,310.267426 11.642927,198.971313 11.639271,87.675194 
	C11.639211,85.861702 11.639264,84.048203 11.639264,82.234711 
	C12.096313,82.045906 12.553364,81.857109 13.010413,81.668304 
	C16.260862,93.176842 20.384546,104.177452 29.528835,112.850082 
	C29.932062,117.066650 29.861181,121.771187 27.666975,126.249954 
	C27.277876,127.044174 27.233395,128.450485 27.688349,129.138916 
	C29.756147,132.267914 29.323864,135.456894 28.312954,138.704926 
	C25.439789,147.936386 26.117697,157.367325 25.918539,166.863358 
	C25.750252,174.887390 25.906700,183.165756 23.813990,191.104858 
	C23.361856,192.820099 23.515841,194.332367 23.986073,195.973282 
	C24.859901,199.022552 24.642931,201.752747 23.332012,204.955215 
	C21.490259,209.454453 23.815119,214.584671 22.861361,219.452850 
	C21.903996,224.339417 26.203760,229.703491 21.562744,234.292313 
	C23.953991,238.694992 21.383024,243.642548 23.077415,248.118469 
	C24.445320,251.731934 25.558435,255.344818 23.691233,259.146362 
	C23.481197,259.573975 23.339336,260.166565 23.457031,260.604370 
	C26.078243,270.354218 22.234550,279.901337 22.598211,289.497223 
	C22.831419,295.650909 22.851158,301.829224 23.203863,307.985992 
	C23.241739,308.647186 23.424059,309.438721 23.145565,309.958954 
	C17.596550,320.324127 22.100687,330.843018 22.810579,341.252960 
	C23.052973,344.807434 23.485790,347.883667 21.461491,351.194305 
	C17.367128,357.890472 17.753710,365.781189 16.724741,373.215851 
	C16.408262,375.502533 17.908783,378.521454 19.476654,380.488098 
	C22.747194,384.590424 22.510878,390.790680 27.631126,393.698090 
	C28.670788,394.288422 29.038347,395.418640 29.453552,396.559784 
	C30.851025,400.400757 33.058987,403.334717 37.008659,405.321625 
	C39.905743,406.779053 42.567398,409.294739 44.942467,411.466187 
	C52.681404,418.541626 62.424065,419.801086 71.701752,422.822906 
	C77.804573,424.810638 83.307999,422.508453 89.060684,422.331665 
	C91.637611,422.252441 93.852249,422.291748 96.192528,423.309143 
	C100.724472,425.279419 105.336876,423.505432 109.882805,423.216370 
	C117.248589,422.747955 124.558968,422.507416 131.814941,424.155518 
	C132.458389,424.301697 133.232483,424.686249 133.745010,424.474274 
	C142.909424,420.684601 152.037262,424.367615 161.177780,424.483368 
	C168.734207,424.579071 176.180664,423.933136 181.919189,417.985352 
	C186.226929,413.520477 193.098648,414.124542 197.682343,410.118073 
	C198.151993,409.707611 199.236465,409.928192 200.029434,409.970947 
	C209.974808,410.506775 219.735336,413.631409 229.942596,410.979004 
	C233.540527,410.044006 238.010956,410.969513 241.705322,411.886566 
	C249.354980,413.785431 257.602570,413.530212 264.588287,418.244904 
	C267.788025,420.404449 271.647034,421.592957 275.061920,423.591827 
	C277.720398,425.148010 280.722473,425.802887 284.114960,424.855438 
	C289.282135,423.412354 293.738464,427.756714 299.040222,426.548370 
	C298.995331,427.158234 298.950439,427.768127 298.905548,428.377991 
	C250.437012,428.377991 201.968460,428.377991 152.999908,428.378326 
z"/>
<path fill="#000000" opacity="1.000000" stroke="none" 
	d="
M371.591370,423.146301 
	C376.369781,423.187042 380.788666,423.123413 385.168732,423.163361 
	C388.972412,423.198059 392.745270,419.842010 396.998047,418.774109 
	C400.074127,418.001709 403.115936,416.527527 406.264557,415.588440 
	C408.366486,414.961548 410.638062,413.813110 411.289581,411.836853 
	C412.291168,408.798767 414.683563,407.369171 416.851471,405.693756 
	C423.084106,400.876892 426.094635,394.285706 428.899323,387.102844 
	C431.979065,379.215576 431.586487,370.832458 434.001282,362.946259 
	C435.370209,358.475525 432.776215,355.758636 429.466461,353.557922 
	C428.258301,352.754517 426.746033,352.408508 424.726776,351.593109 
	C429.102936,344.139954 425.089600,335.725861 428.175995,327.975555 
	C429.401733,324.897522 426.642303,321.700287 426.250549,318.391418 
	C425.977051,316.081696 425.353333,313.740753 425.720032,311.475708 
	C426.715729,305.325378 426.729736,299.576263 423.907990,293.608917 
	C421.666626,288.868988 426.026733,284.087463 425.946625,279.085266 
	C425.933838,278.286591 426.754089,277.106659 426.440704,276.736237 
	C422.194702,271.717285 423.908936,265.890747 425.272339,260.875854 
	C427.976685,250.928558 424.711273,241.231812 425.005585,231.414032 
	C425.128937,227.298721 426.835297,222.455414 424.288879,218.161957 
	C423.843079,217.410263 424.305267,215.824387 424.802856,214.857819 
	C427.570770,209.480713 426.020844,204.261139 424.435455,199.026718 
	C423.281250,195.216003 422.577026,191.567139 423.237183,187.366531 
	C424.100067,181.876022 424.588562,176.103485 422.243988,170.643387 
	C421.863586,169.757523 421.409790,168.480057 421.763855,167.768860 
	C424.613831,162.044006 421.520569,156.151199 422.372742,150.374054 
	C422.568359,149.047821 421.862366,147.417068 421.152924,146.163193 
	C419.479034,143.204620 419.441437,140.247620 420.173859,137.019989 
	C421.467682,131.318375 418.744202,125.949692 418.452911,120.346931 
	C418.271271,116.853088 421.105225,110.612717 424.410614,109.302399 
	C426.911865,108.310867 428.380798,106.647469 429.724823,104.396820 
	C432.323425,100.045341 437.760681,97.701981 437.671967,90.668007 
	C439.891815,93.595726 439.318573,95.466034 439.319122,97.183350 
	C439.352325,205.297943 439.349701,313.412537 439.344849,421.527130 
	C439.344543,428.346008 439.324310,428.360748 432.488739,428.362183 
	C391.175323,428.370789 349.861908,428.372070 308.548492,428.375763 
	C306.793549,428.375916 305.038635,428.375793 302.650146,428.375793 
	C306.409973,423.134064 310.995941,423.085266 315.616425,423.929871 
	C323.788574,425.423737 331.714111,423.825470 339.672546,422.459503 
	C340.616333,422.297516 341.406860,422.036957 342.476868,422.153748 
	C350.258667,423.003326 358.036072,424.285950 365.881073,422.239044 
	C367.483673,421.820892 369.429230,422.717163 371.591370,423.146301 
z"/>
<path fill="#000000" opacity="1.000000" stroke="none" 
	d="
M326.116455,33.018959 
	C316.078827,31.512838 306.248474,28.914293 296.729187,30.092556 
	C289.795380,30.950796 283.341339,30.604259 276.640137,29.877131 
	C275.270844,29.728554 273.221405,30.132172 272.463226,31.070923 
	C269.405914,34.856441 265.077911,36.980171 261.570129,40.079628 
	C255.969482,45.028336 250.995880,50.686573 245.751923,56.039673 
	C245.520706,56.275700 245.010254,56.461708 245.011246,56.669182 
	C245.041183,62.910614 237.906036,64.038841 236.221527,69.026863 
	C235.788406,70.309364 234.608627,70.718895 233.616364,71.191086 
	C230.260239,72.788162 227.828873,75.061852 227.431427,78.943649 
	C227.235916,80.853195 226.070389,81.849510 223.916519,82.865494 
	C222.704361,75.569176 215.731873,72.848137 211.299469,68.545189 
	C204.450867,61.896599 198.562012,54.469574 191.816223,47.845238 
	C187.024490,43.139801 183.173904,37.714684 178.531357,32.983242 
	C175.393692,29.785492 171.037598,29.707905 166.876022,31.120070 
	C164.925293,31.782019 163.115952,32.313057 161.094177,31.504244 
	C156.249527,29.566133 151.413239,32.920696 146.682861,31.761091 
	C137.474045,29.503630 128.138062,32.839981 118.762009,30.366423 
	C114.022751,29.116127 108.685028,28.274157 102.984779,29.823912 
	C97.493813,31.316769 91.016014,30.120829 84.835220,27.518778 
	C86.820961,26.289234 88.630768,26.670523 90.311203,26.670185 
	C203.624512,26.647385 316.937836,26.649389 430.251160,26.652134 
	C432.250580,26.652182 434.250061,26.707710 436.249359,26.699917 
	C438.310211,26.691887 439.301636,27.683453 439.300507,29.746094 
	C439.292572,44.038174 439.296295,58.330261 438.621735,72.829575 
	C437.690491,65.338028 429.724823,61.406574 429.541626,53.669071 
	C429.537720,53.504307 429.550110,53.270416 429.453094,53.186462 
	C424.231293,48.668839 422.264648,40.528976 414.030853,39.352863 
	C411.889832,39.047039 409.888367,38.484554 408.331635,36.711491 
	C406.803345,34.970810 404.456696,34.506332 402.391510,34.707767 
	C393.494110,35.575577 384.717712,34.894539 375.880524,33.782475 
	C371.576141,33.240818 367.367889,35.437901 362.712189,34.776424 
	C356.958984,33.959019 351.332916,32.299953 345.377136,32.393974 
	C339.073425,32.493484 332.726257,30.763819 326.116455,33.018959 
z"/>
<path fill="#000000" opacity="1.000000" stroke="none" 
	d="
M26.367435,45.379086 
	C25.299208,47.640404 24.643917,49.715248 22.316294,50.582855 
	C21.617321,50.843391 20.643442,51.665863 20.626791,52.254421 
	C20.477051,57.546852 16.151531,61.660908 16.412895,66.953888 
	C16.597908,70.700691 15.672573,73.704315 12.401471,76.036995 
	C12.184613,75.652695 11.795101,75.283859 11.793623,74.913475 
	C11.734431,60.087761 11.711690,45.261902 11.680233,30.436069 
	C11.675965,28.424889 12.065186,26.723654 14.593139,26.722620 
	C27.688032,26.717258 40.782932,26.720125 54.216148,27.533234 
	C42.142021,29.181610 35.310101,38.610249 26.367435,45.379086 
z"/>
<path fill="#000000" opacity="1.000000" stroke="none" 
	d="
M67.697258,29.697063 
	C64.975464,29.161173 62.627312,28.563078 60.279156,27.964985 
	C60.291782,27.705605 60.304413,27.446224 60.317043,27.186844 
	C66.000458,27.186844 71.683868,27.186844 77.362152,27.186844 
	C75.416435,30.581787 75.416435,30.581787 67.697258,29.697063 
z"/>
<path fill="#000000" opacity="1.000000" stroke="none" 
	d="
M222.366882,94.580551 
	C221.131027,91.772484 223.567307,90.929825 224.518509,88.084511 
	C225.709641,92.270500 225.465485,95.216690 224.934418,98.250694 
	C222.756317,97.969009 222.899612,96.260559 222.366882,94.580551 
z"/>
</svg>