<?xml version="1.0" encoding="UTF-8"?>
<svg id="Layer_2" xmlns="http://www.w3.org/2000/svg" viewBox="0 0 136.79 126.38">
  <defs>
    <style>
      .cls-1 {
        fill: #fe6b74;
      }
    </style>
  </defs>
  <g id="Layer_1-2" data-name="Layer_1">
    <path class="cls-1" d="M133.64,20.65c1.73-1.33,2.79-3.96,3.07-4.74.05-.15.08-.3.08-.46C136.81-.61,122.61,0,122.61,0h-32.93c-5.36,0-7.04,2.55-7.04,2.55l-12.42,12.76c-.23.24-.36.56-.36.9v10.38c.3.21.57.46.77.81l9.15,15.84,15.97,9.22c1.71.99,1.71,3.46,0,4.44l-15.88,9.17-9.24,16c-.99,1.71-3.46,1.71-4.44,0l-9.24-16-15.88-9.17c-1.71-.99-1.71-3.46,0-4.44l15.97-9.22,9.15-15.84c.2-.35.47-.6.77-.81v-10.38c0-.33-.13-.66-.36-.9l-12.42-12.76S52.48,0,47.12,0H14.18S-.02-.61,0,15.45c0,.16.03.31.08.46.29.78,1.34,3.4,3.07,4.74,0,0,3.31,2.52,1.89,7.25,0,0-1.58,4.41-1.58,9.93v67.11c0,.71-.57,1.28-1.28,1.28s-1.28.56-1.28,1.27c-.02,4.43,1.22,18.9,18.17,18.9h31.29c.33,0,.64-.12.87-.34.88-.84,3.49-3.01,7.93-3.97.1-.02.2-.03.3-.03h17.85c.1,0,.2.01.3.03,4.45.96,7.06,3.12,7.93,3.97.24.23.55.34.87.34h31.29c16.95,0,18.19-14.47,18.17-18.9,0-.71-.58-1.27-1.28-1.27s-1.28-.57-1.28-1.28V37.82c0-5.52-1.58-9.93-1.58-9.93-1.42-4.73,1.89-7.25,1.89-7.25Z"/>
  </g>
</svg>