<?xml version="1.0" encoding="UTF-8"?>
<svg id="_레이어_1" data-name="레이어_1" xmlns="http://www.w3.org/2000/svg" viewBox="0 0 450 450">
  <defs>
    <style>
      .cls-1 {
        fill: #9b9b9b;
      }
    </style>
  </defs>
  <path class="cls-1" d="M26.45,238.57c-.42-4.43.36-10.28-1.69-14.85-3.36-7.47,1.28-14.27-.14-21.73-1.59-8.37.87-17.43.89-26.2.01-6.49-1.23-12.97-1.59-19.48-.15-2.73-.32-6.01.98-8.16,2.6-4.32,1.21-8.57,1.36-12.91.17-5,.67-10.07,1.78-14.94,1.3-5.71,3.42-11.23,5.26-17.11-2.31-1.06-4.26-1.93-6.19-2.83-.75-.35-1.92-.6-2.13-1.17-2.7-7.6-10.72-13.1-8.81-22.55,1.4-6.96,2.21-14.05,3.95-20.91.86-3.4,3.12-6.48,4.97-9.57,1.83-3.05,3.5-6.41,6.04-8.76,2.52-2.32,6.16-3.38,9.11-5.3,7.34-4.77,15.82-6.26,24.02-8.5,1.14-.31,2.56.4,3.84.65,1.59.32,3.46,1.36,4.72.86,7.16-2.84,14.09.33,21.11.42,9.38.12,18.59,1.78,28.2.09,6.65-1.17,13.94,1.47,20.96,2.28,3.74.43,7.52.7,11.28.84,3.73.14,7.56.55,11.18-.11,8.33-1.51,14,1.69,18.67,8.38,2.01,2.88,5.05,5.28,8.08,7.15,5.65,3.5,10.54,7.26,12.77,14,.77,2.33,3.55,4,5.42,5.96,3.88,4.06,7.78,8.1,11.63,12.18.31.33.45.93.46,1.4.09,6.45.15,12.9.21,19.35.06,5.98.04,11.97.26,17.94.04,1.01,1.07,1.98,2.5,4.45.65-4.36,1.44-7.28,1.46-10.2.04-6.05-.45-12.11-.47-18.17-.02-4.64.55-9.28.5-13.92-.07-6.02,5.26-8.01,8.43-11.46,3.25-3.53,7.57-6.05,11.19-9.27,4.17-3.7,8.01-7.76,12.14-11.51,3.01-2.73,4.23-6.7,6.41-9.56,2.85-3.73,8.51-5.77,13.34-7.34,2.78-.91,6.35.96,9.53.82,3.86-.16,7.68-1.19,11.54-1.7,2.02-.26,4.08-.29,6.11-.26.75,0,1.79.92,2.18.66,4.94-3.33,9.61.12,14.39.42,6.93.44,13.87.75,20.81,1.05,3.5.15,7.02.39,10.5.15,6.59-.45,13.15-1.49,19.74-1.73,3.65-.13,7.33,1.11,11.01,1.26,2,.08,4.03-.98,6.08-1.2,1.9-.21,4.93-.75,5.59.19,3.55,5,9.33,4.29,13.96,6.4,4.89,2.23,9.33,5.48,13.91,8.38.63.4,1.18,1.32,1.3,2.07.91,5.69,5,9.45,8.18,13.77.39.53,1.12,1.17,1.04,1.64-.92,5.4.88,10.45,1.82,15.62.25,1.4.23,2.9.02,4.31-.28,1.89-.29,4.75-1.44,5.41-4.52,2.6-4.96,7.58-7.53,11.26-.57.81-.86,1.91-1.58,2.51-8.1,6.7-7.27,15.51-5.44,24.29.65,3.12,2.88,5.92,4.4,8.86.08.15.28.25.3.4.64,5.04,1.55,10.06,1.79,15.12.16,3.35-.66,6.74-1.01,10.12-.23,2.27-.9,4.63-.53,6.8,1.04,6.11.29,11.91-1.36,17.82-.77,2.75-.25,5.91-.05,8.87.2,2.93.77,5.83,1.08,8.76.19,1.78.98,4.19.15,5.25-3.6,4.6-1.62,9.37-1.42,14.23.19,4.75-.62,9.53-1,14.3-.01.16-.16.32-.14.48.53,6.1,1.31,12.2,1.52,18.31.12,3.38-.93,6.78-1.01,10.18-.04,1.75.92,3.51,1.38,5.28.47,1.86,1.4,3.8,1.23,5.61-.85,8.99-2,17.95-3.05,26.92-.1.83-.67,1.96-.32,2.42,5.68,7.5-.59,14.9-.1,22.34.34,5.04.77,10.07.94,15.12.07,1.89-.19,3.91-.8,5.69-1.12,3.25-1.19,5.29,3.12,5.87,9.12,1.22,10.21,3.06,7.78,11.87-2.21,8.04-3.86,16.32-6.97,24.01-2.64,6.54-6.59,12.72-12.7,16.94-.8.55-1.88,1.08-2.79,1.01-8.92-.71-15.28,6.28-23.44,7.68-2.86.49-5.88.08-8.83.08-.13-.45-.26-.9-.38-1.34-.86,1.15-1.49,2.66-2.63,3.36-1.73,1.07-3.87,2.34-5.72,2.17-5.17-.47-10.26-2.17-15.42-2.4-6.94-.3-13.93.18-20.88.65-1.66.11-3.16,1.67-4.85,2.25-1.81.62-3.82,1.37-5.63,1.15-3.7-.44-7.33-1.5-11-2.28-.46-.1-1.05-.19-1.44,0-10.82,5.21-22.43,3.32-33.7,3.18-3.13-.04-6.21-4.17-9.31-6.42-2.97-2.16-5.65-5.2-8.97-6.27-4.61-1.48-9.99-.17-14.14-3.88-.54-.48-2.13.2-3.23.35-2.44.34-4.87.82-7.33,1-5.63.41-11.26.83-16.9.93-4.91.09-9.95-.98-14.72-.23-7.19,1.13-14.33,3.04-21.25,5.34-3.03,1.01-5.44,3.84-8.2,5.73-.93.63-2.16,1.4-3.15,1.28-6.63-.8-13.23-1.83-19.84-2.79-.64-.09-1.37-.53-1.89-.35-7.72,2.79-15.6,1.28-23.47,1.33-6.38.04-12.74,2.01-19.14,2.92-3.42.49-6.9.68-10.36.78-5.57.16-11.7,1.65-16.6-.15-7.61-2.8-16.63.57-23.28-6.04-2.09-2.08-5.6-2.67-8.38-4.11-4.18-2.18-9-3.78-12.24-6.95-3.67-3.6-10.53-5.98-7.86-13.76.5-1.46-1.49-3.86-2.49-5.73-2.49-4.65-5.19-9.19-7.56-13.9-.93-1.85-1.46-4.01-1.66-6.07-.3-3.13.02-6.32-.25-9.45-.44-5.14,1.39-7.36,6.46-6.72,3.95.5,4.87-1.18,4.06-4.54-.54-2.26-1.7-4.46-1.8-6.72-.11-2.42.74-4.88,1.08-7.33.29-2.03.69-4.09.62-6.11-.08-2.23-1.34-4.58-.9-6.63,1.9-8.94,1.68-17.67.12-26.7-.91-5.27.74-10.98,1.22-16.5.15-1.78.94-3.99.19-5.28-2.21-3.8-1.38-7.21-.25-11.02.67-2.25,0-4.87.13-7.31.18-3.31.55-6.6.89-10.55ZM189.8,128.61c0-.34.02-.67.02-1.01-2.17.61-4.69,2.24-6.44,1.64-7.11-2.48-13.78-.05-20.59.99-.7.11-1.39.79-1.91,1.37-3.38,3.71-4.81,9.96-11.79,9-.21-.03-.55.36-.7.63-4.23,7.56-15.06,12.18-10.57,23.65.17.42.06,1.02-.07,1.48-2.4,8.45-.56,16.76,2.91,24.16,2.73,5.83,7.98,10.48,12.13,15.64.93,1.15,1.89,2.27,2.87,3.38,4.08,4.62,7.47,10.27,12.42,13.56,5.94,3.95,11.12,7.99,14.36,14.4.86,1.71,2.35,3.1,3.39,4.74,3.44,5.39,10.01,8.06,12.14,14.81.8,2.52,4.21,4.16,6.28,6.36,3.15,3.34,6.34,6.65,9.17,10.25,2.74,3.5,4.71,7.65,7.71,10.88,1.02,1.1,4.86,1.18,6.14.14,3.81-3.07,6.88-7.04,10.43-10.46,4.89-4.71,10.29-8.94,14.86-13.94,5.25-5.75,9.68-12.25,14.76-18.16,2.79-3.24,6.57-5.66,9.23-8.98,5.94-7.42,13.63-13.18,18.26-21.99,3.52-6.69,11.27-11.26,14.34-18.05,2.77-6.11,7.05-13.16,3.52-20.9-.51-1.12-.72-2.84-.23-3.9,3.46-7.48-1.15-14.09-3.19-20.36-2.1-6.45-5.66-13.41-13.3-16.4-5.63-2.2-10.97-5.11-16.52-7.51-.79-.34-2.06.45-3.11.68-1.27.28-2.55.74-3.83.75-5.59.05-11.72-3.08-16.23,2.95-.17.22-.64.18-.92.35-6.41,3.83-14.76,5.4-16.65,14.51-.19.92-1.52,2.11-2.46,2.25-2.18.33-5.58.99-6.43-.1-1.74-2.22-2.67-5.45-2.95-8.36-.49-5.13-.24-10.32-.29-15.49-.65-.02-1.3-.04-1.95-.06-.58,3.05-2,6.22-1.56,9.11.96,6.42-1.3,11.93-3.86,17.31-1.83,3.84-6.66,3.77-8.95.16-.94-1.48-1.25-3.39-1.68-5.14-1.17-4.73-7.1-10.9-10.62-11.59-2.78-.54-5.41-1.81-8.11-2.75Z"/>
</svg>