<svg version="1.1" id="Layer_1" xmlns="http://www.w3.org/2000/svg" xmlns:xlink="http://www.w3.org/1999/xlink" x="0px" y="0px"
	 width="100%" viewBox="0 0 450 450" enable-background="new 0 0 450 450" xml:space="preserve">
<path fill="#FFFFFF" opacity="1.000000" stroke="none" 
	d="
M451.000000,121.000000 
	C451.000000,231.302841 451.000000,341.105682 451.000000,450.954285 
	C301.072144,450.954285 151.144257,450.954285 1.108186,450.954285 
	C1.108186,301.113831 1.108186,151.227554 1.108186,1.170642 
	C150.999832,1.170642 300.999908,1.170642 451.000000,1.170642 
	C451.000000,40.855778 451.000000,80.677887 451.000000,121.000000 
M78.710060,422.942322 
	C80.148514,422.944702 81.586975,422.947052 83.961723,422.996429 
	C147.934814,422.978027 211.907898,422.959625 276.826843,422.985352 
	C283.256805,422.967529 289.686798,422.949707 297.038239,422.995209 
	C344.618378,422.995209 392.198517,422.995209 440.000000,422.995209 
	C440.000000,401.294189 440.004089,380.157532 439.999298,359.020874 
	C439.978546,267.719910 439.955231,176.418945 439.917206,84.401398 
	C439.614136,83.256973 439.311066,82.112549 439.828735,80.649483 
	C439.828735,61.888287 439.828735,43.127094 439.828735,24.000280 
	C438.786896,24.000280 437.996063,24.000183 437.205231,24.000294 
	C319.479218,24.016724 201.753189,24.033171 83.157471,23.974384 
	C77.397179,23.975601 71.648445,26.358509 64.956635,24.004080 
	C48.702343,24.004080 32.448051,24.004080 16.201757,24.004080 
	C16.097162,25.069613 16.008450,25.551064 16.008497,26.032509 
	C16.019505,134.315414 16.036726,242.598312 16.013519,351.801575 
	C16.029018,357.240143 16.044518,362.678711 16.004208,369.038574 
	C16.004208,386.942413 16.004208,404.846252 16.004208,422.928040 
	C36.973667,422.928040 57.409817,422.928040 78.710060,422.942322 
z"/>
<path fill="#E0E0E0" opacity="1.000000" stroke="none" 
	d="
M65.876991,24.058201 
	C71.648445,26.358509 77.397179,23.975601 83.741264,24.399929 
	C88.389847,25.223574 92.447342,25.749777 96.521599,25.981630 
	C100.167885,26.189133 103.833977,26.146444 107.488945,26.081003 
	C112.948853,25.983246 118.406021,25.737232 123.865791,25.624094 
	C125.387009,25.592573 126.912720,25.817339 128.437424,25.906631 
	C131.964355,26.113186 135.491501,26.316549 139.019440,26.504930 
	C140.390045,26.578115 142.117752,26.088573 143.075577,26.743467 
	C148.155243,30.216654 153.901398,27.550192 159.298141,28.731960 
	C164.862305,29.950386 171.008270,28.421087 176.628555,29.502756 
	C181.120422,30.367254 185.080215,33.126167 187.588776,37.847050 
	C189.089035,40.670387 192.395920,42.692562 195.198059,44.630447 
	C200.208939,48.095818 205.450378,51.113544 207.813644,57.312290 
	C208.828674,59.974667 210.217529,63.372879 212.434341,64.537552 
	C219.707489,68.358696 223.794785,74.346512 226.859985,81.840111 
	C227.331909,79.240829 227.180450,76.341225 228.420319,74.277542 
	C229.706284,72.137154 233.132309,71.191956 234.186386,69.025406 
	C235.551163,66.220253 237.464218,65.496536 240.026245,64.964424 
	C240.762329,64.811546 241.457413,64.109322 242.016769,63.513836 
	C246.152649,59.111065 250.177673,54.601955 254.382599,50.266987 
	C257.431274,47.124004 261.003113,44.442913 263.757843,41.077930 
	C265.340302,39.144894 265.054169,35.064156 266.828522,34.017788 
	C273.072266,30.335667 279.847290,26.183905 287.367340,28.420002 
	C292.479919,29.940241 296.580658,27.527615 301.165070,27.318144 
	C305.831177,27.104940 310.547852,25.828007 315.121979,26.268171 
	C322.461517,26.974447 329.656738,29.248108 336.996582,29.866131 
	C344.778839,30.521410 352.658875,30.042864 360.495697,29.986540 
	C361.421906,29.979885 362.330872,29.427816 363.271606,29.273905 
	C368.014893,28.497862 372.763489,27.752335 377.518982,27.055746 
	C377.940094,26.994062 378.420929,27.498158 378.879425,27.508970 
	C383.450226,27.616760 388.200684,28.475119 392.539551,27.506021 
	C396.269196,26.673002 398.394958,28.180559 400.854401,29.925274 
	C402.020874,30.752741 402.950867,32.525394 404.113190,32.644108 
	C410.098022,33.255352 415.197662,34.962585 419.933228,39.221020 
	C423.616943,42.533611 429.875519,43.218235 429.084351,50.214676 
	C429.057068,50.455936 429.836639,50.719780 430.107910,51.074295 
	C432.389465,54.056358 434.940460,56.892330 436.772156,60.132984 
	C437.674133,61.728764 437.273132,64.083984 437.376312,66.099922 
	C437.441559,67.374672 437.193909,68.677628 437.356659,69.932915 
	C437.834717,73.620697 438.447754,77.290993 439.007965,80.968124 
	C439.311066,82.112549 439.614136,83.256973 439.581024,84.835434 
	C438.810699,86.138611 438.598938,87.467438 437.906433,87.802437 
	C433.341705,90.010498 432.180878,94.310356 430.804230,98.567764 
	C430.471771,99.595924 429.836212,100.905693 428.972809,101.319267 
	C424.308624,103.553307 423.686768,107.993881 422.876617,112.222015 
	C421.491150,119.452255 420.917419,126.504608 427.416199,132.133316 
	C428.614227,133.170959 428.871307,135.719543 428.915009,137.585892 
	C429.046814,143.212814 428.537659,148.866913 428.880829,154.473526 
	C429.277191,160.949142 425.888702,167.638931 429.920654,173.948822 
	C430.202545,174.389969 429.641388,175.517944 429.261322,176.210831 
	C425.784576,182.549118 426.565155,189.515762 427.109192,196.138306 
	C427.574219,201.798721 429.670441,207.258728 425.781921,212.526581 
	C425.309052,213.167175 425.803741,214.507370 425.816956,215.523788 
	C425.896759,221.661621 425.844604,227.804138 426.073578,233.936264 
	C426.318634,240.500198 426.801758,247.055923 427.241577,253.611191 
	C427.314697,254.700623 428.220459,256.012177 427.851227,256.808136 
	C425.481750,261.916351 426.537201,266.166168 428.218719,271.622894 
	C430.077728,277.655579 427.584900,285.048767 426.895599,291.840149 
	C426.457245,296.158844 423.909576,301.727234 425.723053,304.507935 
	C429.572388,310.410339 426.535614,315.267853 426.053192,320.575897 
	C425.592651,325.643433 424.918579,330.719513 424.921661,335.791504 
	C424.923706,339.224426 426.987000,342.898315 426.266174,346.036743 
	C424.947815,351.776703 424.372650,351.644592 430.049500,352.021332 
	C435.196655,352.362946 437.440826,354.771118 436.924133,359.985840 
	C436.670044,362.550201 434.874756,365.153870 435.197845,367.548004 
	C436.233032,375.218872 431.709778,381.166321 429.536713,387.793701 
	C428.293976,391.583771 425.612030,394.876160 423.932159,398.554352 
	C421.011047,404.950195 415.876282,408.181549 408.612579,407.760193 
	C408.179321,407.735046 407.656403,407.327209 407.342010,407.468536 
	C401.914398,409.908142 396.357544,412.123322 391.156097,414.982666 
	C387.144684,417.187836 383.553497,417.716156 379.628723,414.564117 
	C378.594604,419.776398 374.898468,420.269928 371.066345,419.909180 
	C367.053864,419.531433 363.104797,418.252441 359.099213,418.093597 
	C355.052307,417.933105 350.947296,419.106384 346.908752,418.898346 
	C340.942505,418.591003 335.073486,417.527557 329.505127,420.970032 
	C328.284851,421.724426 326.224091,421.309021 324.577759,421.149841 
	C319.136169,420.623749 313.775696,419.041748 308.243011,421.132904 
	C306.046234,421.963226 303.445221,421.692322 301.040771,422.015869 
	C299.388275,422.238220 297.757324,422.620880 296.116760,422.931885 
	C289.686798,422.949707 283.256805,422.967529 276.285675,422.618835 
	C274.683319,421.522156 273.415283,420.972534 272.594513,420.032440 
	C267.247559,413.908081 261.828522,408.156708 252.568039,408.861725 
	C250.858307,408.991943 249.045532,407.500488 247.247833,406.846924 
	C246.209808,406.469543 245.074112,405.941437 244.038071,406.043945 
	C235.165878,406.921722 226.310394,407.968719 217.437790,408.841919 
	C216.403198,408.943726 215.300415,408.276825 214.219650,408.004364 
	C212.815475,407.650391 211.340897,406.893402 210.002518,407.077911 
	C203.896271,407.919708 197.565186,408.275146 191.821564,410.266602 
	C186.549271,412.094635 180.439911,412.883057 176.773758,418.462891 
	C175.717957,420.069763 171.699280,421.341370 169.962692,420.600800 
	C163.620041,417.895996 156.060776,422.617004 150.360687,417.099091 
	C150.196808,416.940491 149.511841,417.406128 149.057480,417.448730 
	C143.383957,417.980896 137.705658,418.462555 132.033615,419.009552 
	C125.424530,419.646912 118.831383,420.491119 112.211075,420.959015 
	C105.640999,421.423370 99.041107,421.451019 92.463539,421.830597 
	C89.306503,422.012817 86.170799,422.564880 83.025429,422.949432 
	C81.586975,422.947052 80.148514,422.944702 78.215492,422.580017 
	C76.136635,421.493378 74.281654,419.829041 73.011337,420.194885 
	C63.691795,422.878723 57.043873,416.494720 49.525810,413.438477 
	C45.574558,411.832184 42.160034,408.804504 38.667969,406.197906 
	C35.108475,403.540894 31.636080,400.737427 28.378994,397.724121 
	C27.462221,396.875946 26.721645,394.787445 27.126249,393.742615 
	C28.874805,389.227264 26.180532,386.140717 24.237968,382.728790 
	C21.476469,377.878510 18.782717,372.989655 16.060017,368.117279 
	C16.044518,362.678711 16.029018,357.240143 16.403467,351.242371 
	C18.181900,344.494446 23.734131,348.382324 26.913342,346.508789 
	C27.782871,339.954163 19.380438,332.908264 26.546654,327.990936 
	C26.330347,323.003357 26.026680,319.175568 26.035814,315.348511 
	C26.045586,311.253967 26.409431,307.161530 26.505280,303.065521 
	C26.569365,300.326904 26.430332,297.583710 26.391041,294.842468 
	C26.296320,288.234192 25.286348,281.471069 26.364294,275.059387 
	C27.530085,268.125183 22.950125,260.896698 27.759623,254.331451 
	C27.823545,254.244186 27.261999,253.817200 27.252642,253.540009 
	C27.112238,249.380844 24.021284,244.979584 28.253300,241.138916 
	C28.533920,240.884262 28.351902,240.062424 28.303772,239.511475 
	C27.476831,230.044998 21.929359,220.884232 26.786505,210.977615 
	C27.484804,209.553375 25.909407,207.045242 25.470860,205.020401 
	C25.232046,203.917709 24.638796,202.411972 25.117638,201.712601 
	C27.946241,197.581345 26.509819,193.358612 26.154760,188.989578 
	C25.846365,185.194748 25.436623,181.512039 26.567444,177.311890 
	C28.058989,171.771912 26.270367,165.370956 26.034275,159.334579 
	C25.910879,156.179642 25.777046,152.966446 26.232727,149.865509 
	C26.616518,147.253784 28.478424,144.788910 28.570349,142.219101 
	C28.770205,136.632095 27.781843,130.984833 28.187572,125.428528 
	C28.510794,121.002167 29.961742,116.603661 31.340761,112.331154 
	C32.065571,110.085548 33.709953,108.136757 35.402027,105.269478 
	C26.722935,104.526085 25.035398,98.748688 21.966087,93.706558 
	C17.315115,86.066154 16.383282,78.255875 18.042463,69.843262 
	C18.288353,68.596519 20.157145,67.267395 19.894793,66.388336 
	C18.219698,60.775665 21.675177,56.711555 23.372545,51.972652 
	C25.495640,46.045158 32.616318,43.728535 33.346031,36.966206 
	C33.428120,36.205494 35.727264,35.680439 37.001705,35.053013 
	C38.195511,34.465286 39.411804,33.920605 40.586746,33.297657 
	C43.880310,31.551430 47.001461,29.325066 50.478603,28.116951 
	C55.477951,26.379953 60.731781,25.375391 65.876991,24.058201 
M208.945160,264.427368 
	C211.681107,268.135406 214.387650,271.865570 217.162048,275.544617 
	C219.496002,278.639587 221.769760,281.803223 224.387329,284.644226 
	C225.020767,285.331696 227.277069,285.417175 228.144669,284.830078 
	C230.867386,282.987640 233.498672,280.899689 235.778442,278.533936 
	C242.532501,271.525269 249.134216,264.368347 255.729187,257.208344 
	C259.404419,253.218185 262.895477,249.058578 266.563171,245.061234 
	C271.671417,239.493896 276.932495,234.065994 282.003845,228.465836 
	C285.619995,224.472610 290.997131,221.924118 292.126068,215.818085 
	C292.396545,214.355072 293.960938,213.167404 294.771851,211.761734 
	C297.747803,206.603104 304.732849,204.393204 305.303101,197.418076 
	C305.345703,196.897308 306.575409,196.550446 307.090302,195.976547 
	C308.448120,194.463089 310.153839,193.053131 310.907867,191.260025 
	C311.826477,189.075516 312.151489,186.558014 312.316528,184.155914 
	C312.779938,177.411224 313.542358,170.624435 313.183960,163.907776 
	C312.942261,159.378113 311.445923,154.755585 309.698029,150.509140 
	C307.786896,145.866043 305.803467,140.644806 302.251495,137.460129 
	C298.865051,134.423859 293.003815,134.334747 288.983673,131.769669 
	C284.233673,128.738937 280.047028,127.314308 274.248718,128.698318 
	C270.676880,129.550919 266.443237,127.630920 262.683197,126.986046 
	C261.931427,128.373062 261.615875,129.926743 260.693634,130.493912 
	C255.904572,133.439194 250.905670,136.042709 246.107819,138.974670 
	C244.835663,139.752090 243.338394,141.154968 243.115387,142.469330 
	C242.442368,146.435898 240.592911,148.657135 236.470428,149.012604 
	C232.310379,149.371307 229.018967,148.610077 228.008148,143.863144 
	C227.610046,141.993652 227.041489,140.160431 226.336441,137.503937 
	C225.783386,140.457504 225.723389,142.801819 224.875717,144.814346 
	C223.704483,147.595032 222.499939,150.796524 220.312317,152.623657 
	C215.768646,156.418549 210.105713,152.425308 209.013458,144.994720 
	C208.270401,139.939575 203.564682,135.736511 198.743958,134.866562 
	C196.345474,134.433746 194.197159,132.614456 191.630554,131.261520 
	C190.242889,131.629288 187.783508,132.846863 185.356064,132.786270 
	C182.060944,132.703995 178.609467,130.669739 175.552643,131.237259 
	C171.268066,132.032715 166.204956,131.481903 163.101105,136.175171 
	C161.326279,138.858871 158.733505,141.112000 156.160507,143.110260 
	C154.899979,144.089218 152.267807,143.494766 151.251266,144.560928 
	C147.354065,148.648407 143.822433,153.089859 140.265045,157.488708 
	C139.839066,158.015472 139.732056,159.315948 140.084198,159.876419 
	C143.602081,165.475403 140.526352,171.390656 140.669998,177.074631 
	C140.916122,186.813202 145.255569,194.701309 150.775238,201.567932 
	C154.283173,205.931900 159.318588,209.057968 161.410049,214.756027 
	C161.887390,216.056458 163.389740,217.079926 164.599411,217.993835 
	C168.353531,220.830109 172.245850,223.484360 175.982025,226.343185 
	C178.388031,228.184204 181.457123,229.820419 182.759811,232.315521 
	C186.437393,239.359283 190.432922,245.897644 197.497391,250.065567 
	C198.215271,250.489120 198.712173,251.567184 198.971313,252.442276 
	C200.502609,257.613373 202.925171,262.003845 208.945160,264.427368 
z"/>
<path fill="#000000" opacity="1.000000" stroke="none" 
	d="
M296.577515,422.963562 
	C297.757324,422.620880 299.388275,422.238220 301.040771,422.015869 
	C303.445221,421.692322 306.046234,421.963226 308.243011,421.132904 
	C313.775696,419.041748 319.136169,420.623749 324.577759,421.149841 
	C326.224091,421.309021 328.284851,421.724426 329.505127,420.970032 
	C335.073486,417.527557 340.942505,418.591003 346.908752,418.898346 
	C350.947296,419.106384 355.052307,417.933105 359.099213,418.093597 
	C363.104797,418.252441 367.053864,419.531433 371.066345,419.909180 
	C374.898468,420.269928 378.594604,419.776398 379.628723,414.564117 
	C383.553497,417.716156 387.144684,417.187836 391.156097,414.982666 
	C396.357544,412.123322 401.914398,409.908142 407.342010,407.468536 
	C407.656403,407.327209 408.179321,407.735046 408.612579,407.760193 
	C415.876282,408.181549 421.011047,404.950195 423.932159,398.554352 
	C425.612030,394.876160 428.293976,391.583771 429.536713,387.793701 
	C431.709778,381.166321 436.233032,375.218872 435.197845,367.548004 
	C434.874756,365.153870 436.670044,362.550201 436.924133,359.985840 
	C437.440826,354.771118 435.196655,352.362946 430.049500,352.021332 
	C424.372650,351.644592 424.947815,351.776703 426.266174,346.036743 
	C426.987000,342.898315 424.923706,339.224426 424.921661,335.791504 
	C424.918579,330.719513 425.592651,325.643433 426.053192,320.575897 
	C426.535614,315.267853 429.572388,310.410339 425.723053,304.507935 
	C423.909576,301.727234 426.457245,296.158844 426.895599,291.840149 
	C427.584900,285.048767 430.077728,277.655579 428.218719,271.622894 
	C426.537201,266.166168 425.481750,261.916351 427.851227,256.808136 
	C428.220459,256.012177 427.314697,254.700623 427.241577,253.611191 
	C426.801758,247.055923 426.318634,240.500198 426.073578,233.936264 
	C425.844604,227.804138 425.896759,221.661621 425.816956,215.523788 
	C425.803741,214.507370 425.309052,213.167175 425.781921,212.526581 
	C429.670441,207.258728 427.574219,201.798721 427.109192,196.138306 
	C426.565155,189.515762 425.784576,182.549118 429.261322,176.210831 
	C429.641388,175.517944 430.202545,174.389969 429.920654,173.948822 
	C425.888702,167.638931 429.277191,160.949142 428.880829,154.473526 
	C428.537659,148.866913 429.046814,143.212814 428.915009,137.585892 
	C428.871307,135.719543 428.614227,133.170959 427.416199,132.133316 
	C420.917419,126.504608 421.491150,119.452255 422.876617,112.222015 
	C423.686768,107.993881 424.308624,103.553307 428.972809,101.319267 
	C429.836212,100.905693 430.471771,99.595924 430.804230,98.567764 
	C432.180878,94.310356 433.341705,90.010498 437.906433,87.802437 
	C438.598938,87.467438 438.810699,86.138611 439.588837,85.193726 
	C439.955231,176.418945 439.978546,267.719910 439.999298,359.020874 
	C440.004089,380.157532 440.000000,401.294189 440.000000,422.995209 
	C392.198517,422.995209 344.618378,422.995209 296.577515,422.963562 
z"/>
<path fill="#000000" opacity="1.000000" stroke="none" 
	d="
M439.418335,80.808807 
	C438.447754,77.290993 437.834717,73.620697 437.356659,69.932915 
	C437.193909,68.677628 437.441559,67.374672 437.376312,66.099922 
	C437.273132,64.083984 437.674133,61.728764 436.772156,60.132984 
	C434.940460,56.892330 432.389465,54.056358 430.107910,51.074295 
	C429.836639,50.719780 429.057068,50.455936 429.084351,50.214676 
	C429.875519,43.218235 423.616943,42.533611 419.933228,39.221020 
	C415.197662,34.962585 410.098022,33.255352 404.113190,32.644108 
	C402.950867,32.525394 402.020874,30.752741 400.854401,29.925274 
	C398.394958,28.180559 396.269196,26.673002 392.539551,27.506021 
	C388.200684,28.475119 383.450226,27.616760 378.879425,27.508970 
	C378.420929,27.498158 377.940094,26.994062 377.518982,27.055746 
	C372.763489,27.752335 368.014893,28.497862 363.271606,29.273905 
	C362.330872,29.427816 361.421906,29.979885 360.495697,29.986540 
	C352.658875,30.042864 344.778839,30.521410 336.996582,29.866131 
	C329.656738,29.248108 322.461517,26.974447 315.121979,26.268171 
	C310.547852,25.828007 305.831177,27.104940 301.165070,27.318144 
	C296.580658,27.527615 292.479919,29.940241 287.367340,28.420002 
	C279.847290,26.183905 273.072266,30.335667 266.828522,34.017788 
	C265.054169,35.064156 265.340302,39.144894 263.757843,41.077930 
	C261.003113,44.442913 257.431274,47.124004 254.382599,50.266987 
	C250.177673,54.601955 246.152649,59.111065 242.016769,63.513836 
	C241.457413,64.109322 240.762329,64.811546 240.026245,64.964424 
	C237.464218,65.496536 235.551163,66.220253 234.186386,69.025406 
	C233.132309,71.191956 229.706284,72.137154 228.420319,74.277542 
	C227.180450,76.341225 227.331909,79.240829 226.859985,81.840111 
	C223.794785,74.346512 219.707489,68.358696 212.434341,64.537552 
	C210.217529,63.372879 208.828674,59.974667 207.813644,57.312290 
	C205.450378,51.113544 200.208939,48.095818 195.198059,44.630447 
	C192.395920,42.692562 189.089035,40.670387 187.588776,37.847050 
	C185.080215,33.126167 181.120422,30.367254 176.628555,29.502756 
	C171.008270,28.421087 164.862305,29.950386 159.298141,28.731960 
	C153.901398,27.550192 148.155243,30.216654 143.075577,26.743467 
	C142.117752,26.088573 140.390045,26.578115 139.019440,26.504930 
	C135.491501,26.316549 131.964355,26.113186 128.437424,25.906631 
	C126.912720,25.817339 125.387009,25.592573 123.865791,25.624094 
	C118.406021,25.737232 112.948853,25.983246 107.488945,26.081003 
	C103.833977,26.146444 100.167885,26.189133 96.521599,25.981630 
	C92.447342,25.749777 88.389847,25.223574 84.176117,24.437544 
	C201.753189,24.033171 319.479218,24.016724 437.205231,24.000294 
	C437.996063,24.000183 438.786896,24.000280 439.828735,24.000280 
	C439.828735,43.127094 439.828735,61.888287 439.418335,80.808807 
z"/>
<path fill="#000000" opacity="1.000000" stroke="none" 
	d="
M65.416809,24.031139 
	C60.731781,25.375391 55.477951,26.379953 50.478603,28.116951 
	C47.001461,29.325066 43.880310,31.551430 40.586746,33.297657 
	C39.411804,33.920605 38.195511,34.465286 37.001705,35.053013 
	C35.727264,35.680439 33.428120,36.205494 33.346031,36.966206 
	C32.616318,43.728535 25.495640,46.045158 23.372545,51.972652 
	C21.675177,56.711555 18.219698,60.775665 19.894793,66.388336 
	C20.157145,67.267395 18.288353,68.596519 18.042463,69.843262 
	C16.383282,78.255875 17.315115,86.066154 21.966087,93.706558 
	C25.035398,98.748688 26.722935,104.526085 35.402027,105.269478 
	C33.709953,108.136757 32.065571,110.085548 31.340761,112.331154 
	C29.961742,116.603661 28.510794,121.002167 28.187572,125.428528 
	C27.781843,130.984833 28.770205,136.632095 28.570349,142.219101 
	C28.478424,144.788910 26.616518,147.253784 26.232727,149.865509 
	C25.777046,152.966446 25.910879,156.179642 26.034275,159.334579 
	C26.270367,165.370956 28.058989,171.771912 26.567444,177.311890 
	C25.436623,181.512039 25.846365,185.194748 26.154760,188.989578 
	C26.509819,193.358612 27.946241,197.581345 25.117638,201.712601 
	C24.638796,202.411972 25.232046,203.917709 25.470860,205.020401 
	C25.909407,207.045242 27.484804,209.553375 26.786505,210.977615 
	C21.929359,220.884232 27.476831,230.044998 28.303772,239.511475 
	C28.351902,240.062424 28.533920,240.884262 28.253300,241.138916 
	C24.021284,244.979584 27.112238,249.380844 27.252642,253.540009 
	C27.261999,253.817200 27.823545,254.244186 27.759623,254.331451 
	C22.950125,260.896698 27.530085,268.125183 26.364294,275.059387 
	C25.286348,281.471069 26.296320,288.234192 26.391041,294.842468 
	C26.430332,297.583710 26.569365,300.326904 26.505280,303.065521 
	C26.409431,307.161530 26.045586,311.253967 26.035814,315.348511 
	C26.026680,319.175568 26.330347,323.003357 26.546654,327.990936 
	C19.380438,332.908264 27.782871,339.954163 26.913342,346.508789 
	C23.734131,348.382324 18.181900,344.494446 16.423592,350.782196 
	C16.036726,242.598312 16.019505,134.315414 16.008497,26.032509 
	C16.008450,25.551064 16.097162,25.069613 16.201757,24.004080 
	C32.448051,24.004080 48.702343,24.004080 65.416809,24.031139 
z"/>
<path fill="#000000" opacity="1.000000" stroke="none" 
	d="
M83.493576,422.972931 
	C86.170799,422.564880 89.306503,422.012817 92.463539,421.830597 
	C99.041107,421.451019 105.640999,421.423370 112.211075,420.959015 
	C118.831383,420.491119 125.424530,419.646912 132.033615,419.009552 
	C137.705658,418.462555 143.383957,417.980896 149.057480,417.448730 
	C149.511841,417.406128 150.196808,416.940491 150.360687,417.099091 
	C156.060776,422.617004 163.620041,417.895996 169.962692,420.600800 
	C171.699280,421.341370 175.717957,420.069763 176.773758,418.462891 
	C180.439911,412.883057 186.549271,412.094635 191.821564,410.266602 
	C197.565186,408.275146 203.896271,407.919708 210.002518,407.077911 
	C211.340897,406.893402 212.815475,407.650391 214.219650,408.004364 
	C215.300415,408.276825 216.403198,408.943726 217.437790,408.841919 
	C226.310394,407.968719 235.165878,406.921722 244.038071,406.043945 
	C245.074112,405.941437 246.209808,406.469543 247.247833,406.846924 
	C249.045532,407.500488 250.858307,408.991943 252.568039,408.861725 
	C261.828522,408.156708 267.247559,413.908081 272.594513,420.032440 
	C273.415283,420.972534 274.683319,421.522156 275.812744,422.596802 
	C211.907898,422.959625 147.934814,422.978027 83.493576,422.972931 
z"/>
<path fill="#000000" opacity="1.000000" stroke="none" 
	d="
M16.032112,368.577942 
	C18.782717,372.989655 21.476469,377.878510 24.237968,382.728790 
	C26.180532,386.140717 28.874805,389.227264 27.126249,393.742615 
	C26.721645,394.787445 27.462221,396.875946 28.378994,397.724121 
	C31.636080,400.737427 35.108475,403.540894 38.667969,406.197906 
	C42.160034,408.804504 45.574558,411.832184 49.525810,413.438477 
	C57.043873,416.494720 63.691795,422.878723 73.011337,420.194885 
	C74.281654,419.829041 76.136635,421.493378 77.783447,422.572876 
	C57.409817,422.928040 36.973667,422.928040 16.004208,422.928040 
	C16.004208,404.846252 16.004208,386.942413 16.032112,368.577942 
z"/>
<path fill="#000000" opacity="1.000000" stroke="none" 
	d="
M208.669159,264.175537 
	C202.925171,262.003845 200.502609,257.613373 198.971313,252.442276 
	C198.712173,251.567184 198.215271,250.489120 197.497391,250.065567 
	C190.432922,245.897644 186.437393,239.359283 182.759811,232.315521 
	C181.457123,229.820419 178.388031,228.184204 175.982025,226.343185 
	C172.245850,223.484360 168.353531,220.830109 164.599411,217.993835 
	C163.389740,217.079926 161.887390,216.056458 161.410049,214.756027 
	C159.318588,209.057968 154.283173,205.931900 150.775238,201.567932 
	C145.255569,194.701309 140.916122,186.813202 140.669998,177.074631 
	C140.526352,171.390656 143.602081,165.475403 140.084198,159.876419 
	C139.732056,159.315948 139.839066,158.015472 140.265045,157.488708 
	C143.822433,153.089859 147.354065,148.648407 151.251266,144.560928 
	C152.267807,143.494766 154.899979,144.089218 156.160507,143.110260 
	C158.733505,141.112000 161.326279,138.858871 163.101105,136.175171 
	C166.204956,131.481903 171.268066,132.032715 175.552643,131.237259 
	C178.609467,130.669739 182.060944,132.703995 185.356064,132.786270 
	C187.783508,132.846863 190.242889,131.629288 191.630554,131.261520 
	C194.197159,132.614456 196.345474,134.433746 198.743958,134.866562 
	C203.564682,135.736511 208.270401,139.939575 209.013458,144.994720 
	C210.105713,152.425308 215.768646,156.418549 220.312317,152.623657 
	C222.499939,150.796524 223.704483,147.595032 224.875717,144.814346 
	C225.723389,142.801819 225.783386,140.457504 226.336441,137.503937 
	C227.041489,140.160431 227.610046,141.993652 228.008148,143.863144 
	C229.018967,148.610077 232.310379,149.371307 236.470428,149.012604 
	C240.592911,148.657135 242.442368,146.435898 243.115387,142.469330 
	C243.338394,141.154968 244.835663,139.752090 246.107819,138.974670 
	C250.905670,136.042709 255.904572,133.439194 260.693634,130.493912 
	C261.615875,129.926743 261.931427,128.373062 262.683197,126.986046 
	C266.443237,127.630920 270.676880,129.550919 274.248718,128.698318 
	C280.047028,127.314308 284.233673,128.738937 288.983673,131.769669 
	C293.003815,134.334747 298.865051,134.423859 302.251495,137.460129 
	C305.803467,140.644806 307.786896,145.866043 309.698029,150.509140 
	C311.445923,154.755585 312.942261,159.378113 313.183960,163.907776 
	C313.542358,170.624435 312.779938,177.411224 312.316528,184.155914 
	C312.151489,186.558014 311.826477,189.075516 310.907867,191.260025 
	C310.153839,193.053131 308.448120,194.463089 307.090302,195.976547 
	C306.575409,196.550446 305.345703,196.897308 305.303101,197.418076 
	C304.732849,204.393204 297.747803,206.603104 294.771851,211.761734 
	C293.960938,213.167404 292.396545,214.355072 292.126068,215.818085 
	C290.997131,221.924118 285.619995,224.472610 282.003845,228.465836 
	C276.932495,234.065994 271.671417,239.493896 266.563171,245.061234 
	C262.895477,249.058578 259.404419,253.218185 255.729187,257.208344 
	C249.134216,264.368347 242.532501,271.525269 235.778442,278.533936 
	C233.498672,280.899689 230.867386,282.987640 228.144669,284.830078 
	C227.277069,285.417175 225.020767,285.331696 224.387329,284.644226 
	C221.769760,281.803223 219.496002,278.639587 217.162048,275.544617 
	C214.387650,271.865570 211.681107,268.135406 208.669159,264.175537 
z"/>
</svg>