<?xml version="1.0" encoding="UTF-8"?>
<svg id="_레이어_1" data-name="레이어_1" xmlns="http://www.w3.org/2000/svg" viewBox="0 0 450 450">
  <defs>
    <style>
      .cls-1 {
        fill: #9b9b9b;
      }
    </style>
  </defs>
  <path class="cls-1" d="M417.02,113.71c.33,2.63.77,6.38,1.29,10.13.08.61.3,1.47.74,1.74,6.12,3.68,4.4,9.81,4.62,15.19.22,5.49.59,11.14-.4,16.49-1.52,8.19.23,15.58,2.78,23.18.69,2.08-.42,5.46-1.86,7.39-2.5,3.36-1.75,6.53-.1,9.3,2.16,3.63,1.92,6.41.76,10.55-1.65,5.86-1.15,12.4-1.03,18.64.07,3.85,1.17,7.68,1.74,11.53.09.63.1,1.66-.27,1.92-6.55,4.59-1.64,10.89-2.19,16.26-.69,6.86.42,13.9.6,20.86.03,1.41-.77,2.82-1,4.25-.32,2.02-.67,4.07-.62,6.1.1,3.85.74,7.7.66,11.53-.14,6.48-2.74,13.79-.55,19.24,3.5,8.73.22,16.23-.49,24.24-.34,3.85-.36,6.64,5.1,6.62,6.22-.03,8.27,4.43,6.53,11.64-.58,2.4-1.04,5.17-.42,7.46,1.63,6.01-2.65,10.24-3.94,15.33-.51,2.03-1.54,3.93-2.15,5.94-1.2,3.99-2,8.18-6.64,9.87-.56.2-1.13.85-1.35,1.42-2.32,5.92-7.74,7.89-12.95,9.77-4.85,1.75-9.9,3.35-14.99,3.94-11.54,1.34-23.16,1.91-34.73,3.03-2.36.23-4.58,1.88-6.95,2.16-2.21.26-4.55-.35-6.8-.73-.77-.13-1.49-1.12-2.18-1.07-6.76.53-13.5,1.37-20.27,1.75-3.15.17-6.34-.66-9.52-.73-6.27-.15-12.56-.27-18.83-.03-2.16.08-4.25,1.62-6.44,1.87-2.13.24-4.99.49-6.41-.65-6.33-5.09-12.05-10.95-18.47-15.92-1.88-1.46-5.33-1.24-8.05-1.21-3.99.04-7.96.69-11.95.92-4.9.28-10.36-.93-14.59.86-8.53,3.59-16.76.84-25.12,1.02-3.82.08-7.84-.11-10.89,3.71-1.42,1.77-4.75,1.94-7.1,3.07-3,1.43-5.81,4.21-8.84,4.44-9.32.69-18.71.35-28.07.6-5.11.14-10.2.71-15.31.98-1.61.09-3.34.13-4.84-.33-4.75-1.47-9.4-3.34-14.08.18-.48.36-1.29.49-1.92.42-6.61-.78-13.21-1.65-19.83-2.43-1.25-.15-2.53.05-3.79-.02-3.74-.23-7.48-.52-11.22-.8-.8-.06-1.68-.47-2.38-.25-6.7,2.11-12.26-1.16-18.43-2.85-5.02-1.37-9.29-3.79-13.96-5.55-8.4-3.18-13.22-10.04-17.99-17-.79-1.15-1.66-2.24-2.52-3.33-.8-1.02-2.55-2.34-2.32-2.98,2.35-6.65-3.52-12.96-.57-19.68.8-1.81.48-4.46-.14-6.48-1.7-5.53.23-8.14,6.19-7.9,1.77.07,3.56-.16,6.05-.29-.57-3.24-.48-6.22-1.62-8.62-3.1-6.52-2.34-12.77-.84-19.56.98-4.47-.37-9.47-.75-14.22-.09-1.14-.77-2.29-.66-3.38.65-6.62,1.88-13.2,2.05-19.83.12-4.44-1.25-8.91-1.81-13.39-.47-3.74-1-7.51-1.01-11.27-.02-6.91.21-13.82.56-20.71.14-2.71,1.29-5.39,1.24-8.07-.09-4.21-.78-8.41-1.3-12.61-.08-.61-.88-1.18-.86-1.75.22-5.65.55-11.3.81-16.95.07-1.4.33-2.9-.06-4.19-1-3.35-1.34-6.22-.22-9.99,1.33-4.45-.04-9.67,0-14.55.04-5.89.28-11.79.55-17.68.08-1.81,1.34-3.95.72-5.35-3.98-9.12,0-16.95,3.44-24.96,2.66-6.2.99-14.07-3.89-18.69-1.91-1.81-4.87-3.13-5.74-5.31-1.63-4.1-2.14-8.65-3.02-13.04-.67-3.33-1.16-6.7-1.78-10.04-.27-1.44-1.39-3.24-.87-4.21,5.13-9.61,7.14-21.24,17.27-27.68,1.75-1.11,3.84-1.7,5.75-2.57.88-.4,2.2-.71,2.48-1.4,2.83-7.03,8.86-6.26,14.64-6.26,1.62,0,3.24-.46,4.87-.58,10.12-.8,20.59-3.49,30.24-1.73,7.95,1.45,15.06-.53,22.49-.65,8.08-.13,16.06-.16,24.12.64,4.66.47,9.45-.4,14.19-.65,1.15-.06,2.32-.16,3.46-.04,5.02.54,10.09.85,15.01,1.85,3.12.64,6.55,1.72,8.92,3.71,7.45,6.26,14.51,13,21.61,19.68,1.27,1.2,1.71,3.27,2.98,4.48,2.02,1.94,4.17,4.01,6.68,5.08,3.31,1.41,4.87,3.2,5.38,6.9.31,2.29,2.13,5.34,4.1,6.27,6.95,3.26,6.37,9.87,7.94,15.57.21.76.26,1.57.59,3.68,1.07-1.7,1.94-2.45,1.94-3.2.03-3.64.62-7.55-.49-10.87-1.66-4.94.07-7.46,4.02-9.78,1.3-.76,2.05-2.5,2.98-3.84.56-.81.78-1.97,1.5-2.53,3.68-2.88,7.69-5.36,11.17-8.46,4.4-3.91,8.31-8.35,12.59-12.4,5.31-5.02,10.63-10.06,16.29-14.68,1.41-1.15,4.11-.9,6.23-.98,6.38-.25,12.79-.67,19.15-.38,2.89.13,5.74,2.68,8.56,2.58,8.96-.32,17.89-1.46,26.84-2.07,2.9-.2,5.88,0,8.75.48,7.36,1.22,14.41-1.3,21.61-1.45,4.38-.09,8.77,1.27,13.19,1.74,9.25,1,18.53,1.72,27.77,2.84,1.76.21,3.54,1.5,5,2.68,2.98,2.4,5.78,5.01,8.58,7.61,5.96,5.54,12.66,10.59,13.37,19.71.36,4.7,1.8,9.6.96,14.06-1.62,8.57-2.37,17.66-9.62,24.25-3.35,3.04-5.91,6.97-9.65,11.5ZM305.64,165.73c-3.15-1.65-4.99-2.7-6.9-3.59-2.06-.96-4.17-1.83-6.3-2.63-6.01-2.24-9.62-7.7-9.22-13.21.33-4.51.07-9.07.07-14.39-3.81,1.24-6.87,2.26-9.94,3.23-8.48,2.68-13.27-.1-14.64-8.7-.47-2.93-.26-5.96-.61-8.91-.17-1.44-.91-2.81-1.4-4.21-.5-.04-1-.07-1.49-.11-1.27,7.04-6.74,9.44-12.24,11.22-1.98.64-5.87-.14-6.84-1.62-3.79-5.77-8.1-11.64-6.25-19.4.21-.88-.89-2.08-1.38-3.13-.27,4.69-.64,8.61-6.12,9.72-.56.11-.58,2.12-1.15,3.06-2.28,3.74-3.96,9.37-8.99,8.8-4.98-.57-12.09,1.84-13.95-7.22-2.11,2.79-4.8,4.76-4.6,6.37.65,5.18-2.28,7.78-5.13,11.36-3.35,4.21-5.74,4.66-10.41,2.48-3.82-1.78-7.56-7.19-12.49-2.41.47,5.95,1.53,11.78,1.25,17.55-.34,7.17-7.81,10.8-14.84,8.38-2.34-.81-5.25.03-7.89.11-.1.58-.2,1.17-.3,1.75,3.12,3.99,6.25,7.96,9.34,11.96,2.37,3.07,1.82,6.03-.89,8.42-3.83,3.37-7.95,6.42-11.86,9.71-2.07,1.74-3.68,3.61-.12,5.69,2.51,1.47,4.86,3.23,7.27,4.87,3.3,2.24,4.1,5.06,1.96,8.55-2.96,4.83-5.92,9.66-9.28,15.14,4.97,1.23,9.32,2.21,13.61,3.39,8.04,2.2,12.45,9.17,11.02,16.95-.61,3.3-.88,6.66-1.28,9.83,4.28,2.3,7.58.53,10.97-1.37,4.65-2.61,8.44-1.74,10.9,2.74,3,5.46,5.62,11.12,8.71,17.3,2.13-1.93,4.54-4.04,6.86-6.23,5.64-5.33,10.55-8.04,15.4.66.89,1.6,1.75,3.22,2.79,4.72,1.49,2.16,3.13,4.21,4.04,5.42,5.13-5.22,8.86-11.59,14.33-13.94,6.49-2.79,12.19,2.94,17.26,7.46.5-2.84,1.09-5.55,1.43-8.3.46-3.65,6.23-10.66,9.74-10.48,6.11.31,12.18,1.48,19.35,2.44-.38-1.2-.87-2.99-1.52-4.73-.45-1.21-1.55-2.31-1.64-3.51-.4-5.41-.99-10.88-.56-16.25.16-1.94,2.79-5.01,4.59-5.24,5.41-.7,10.96-.25,16.48-.25-.91-4.92-1.03-10.07-6.96-11.95-.69-.22-1.21-1.56-1.47-2.48-1.13-3.99,6.17-14.15,10.3-13.69,4.81.54,5.02-2.13,5.37-5.77-3.5-1.5-6.93-2.82-10.22-4.44-2.18-1.07-5.36-2.22-5.88-3.98-.53-1.82,1.25-4.7,2.67-6.62,2.65-3.57,5.79-6.79,9.05-10.54Z"/>
</svg>