<svg version="1.1" id="Layer_1" xmlns="http://www.w3.org/2000/svg" xmlns:xlink="http://www.w3.org/1999/xlink" x="0px" y="0px"
	 width="100%" viewBox="0 0 448 448" enable-background="new 0 0 448 448" xml:space="preserve">
<path fill="#000000" opacity="1.000000" stroke="none" 
	d="
M296.770020,162.818726 
	C297.536011,163.194962 298.061493,163.420197 298.281067,163.815399 
	C299.424957,165.874405 303.263031,165.852570 302.951782,168.492508 
	C302.555908,171.849869 300.156830,174.578964 297.367706,176.452271 
	C294.405121,178.442093 291.809509,180.614166 292.860046,184.411972 
	C293.922394,188.252457 297.089203,189.780380 300.991882,189.627213 
	C304.186829,189.501801 305.892548,192.102585 308.240143,193.509003 
	C309.154022,194.056519 309.366608,195.147156 308.882904,196.179855 
	C308.370453,197.273972 307.808990,197.996979 306.237244,197.739120 
	C302.393829,197.108582 300.884430,199.733612 298.554993,202.434433 
	C292.993469,208.882629 291.382751,213.815674 300.098236,218.681381 
	C301.736023,219.595749 301.544342,222.579132 301.882233,225.485245 
	C296.695129,222.836166 292.121552,226.700500 286.892609,225.690796 
	C283.483856,225.032578 280.187164,228.773087 280.687866,232.094376 
	C281.845490,239.773071 279.113129,248.240143 285.009155,255.403778 
	C279.677582,252.107040 273.573029,255.525314 268.342377,252.610092 
	C266.935730,251.826126 265.490906,252.844940 264.289673,253.871307 
	C259.714417,257.780518 253.714355,260.698883 255.325409,268.351288 
	C250.463196,268.840210 247.834824,265.703796 244.510834,264.472626 
	C240.804565,263.099884 237.944946,263.297028 234.964127,266.061859 
	C231.131805,269.616455 227.494888,273.286011 224.703629,277.890778 
	C220.808670,275.913086 220.047989,271.817383 217.932114,268.782013 
	C211.744278,259.905060 208.674896,261.660431 201.002747,267.522888 
	C199.140396,268.945953 198.297668,272.663879 195.546982,271.729553 
	C192.840408,270.810303 192.166946,267.495575 191.639618,264.653748 
	C190.803787,260.149445 187.779175,256.845184 184.603470,254.074905 
	C181.460510,251.333176 177.488922,251.674133 173.949692,254.125732 
	C171.230698,256.009125 168.503464,257.480255 165.127106,254.584595 
	C167.162994,251.231735 166.544464,247.320038 167.391510,243.634460 
	C168.398605,239.252563 162.332474,231.310959 156.792053,229.396133 
	C153.681671,228.321182 150.352844,227.895676 147.160629,227.035782 
	C143.390213,226.020142 142.517563,223.797836 145.071274,220.961365 
	C147.681763,218.061859 149.213043,214.542450 151.238144,211.330475 
	C153.958740,207.015381 152.391403,202.710892 147.544876,200.826752 
	C144.455338,199.625671 142.316971,197.458115 139.285431,194.890427 
	C143.933014,191.756348 147.515686,187.781021 151.667297,184.557938 
	C157.478958,180.046066 157.720001,176.032211 152.131989,170.987854 
	C149.478210,168.592255 148.053024,165.204453 146.778046,161.994064 
	C148.377426,160.207504 150.279037,160.310135 151.685654,160.773773 
	C155.633652,162.075089 159.027145,160.665482 162.721909,159.653442 
	C167.101624,158.453751 168.218964,155.653320 168.670624,151.731598 
	C169.222305,146.941483 169.051987,142.282745 167.356262,137.751312 
	C166.771240,136.187973 166.539581,134.778503 168.286713,133.909805 
	C169.754929,133.179779 171.107330,132.483231 172.772232,134.073807 
	C174.823227,136.033218 177.680466,136.734512 180.291687,137.801254 
	C183.963333,139.301208 186.809891,138.679398 188.654938,135.024719 
	C189.385788,133.577026 190.761353,132.952515 191.929977,132.055710 
	C193.992996,130.472549 196.050125,128.346375 195.316528,125.876869 
	C194.285767,122.407036 196.032227,120.994301 198.419388,119.415604 
	C202.039688,125.311424 208.322510,123.948540 213.534134,124.153015 
	C218.039856,124.329788 220.286285,119.943390 221.679306,115.901199 
	C222.585007,113.272995 223.452957,110.685577 226.837097,110.821426 
	C230.415070,110.965065 229.475479,114.271072 230.599075,116.237129 
	C232.799591,120.087669 234.101761,124.914337 238.746155,126.837738 
	C242.777878,128.507401 252.053543,124.300163 254.580704,119.915474 
	C255.264389,118.729233 255.233215,116.868050 257.736450,116.911842 
	C256.974640,121.591827 258.536041,125.972939 259.060791,130.465317 
	C259.951141,138.087631 266.293976,139.941910 272.823364,137.975693 
	C275.798340,137.079803 278.719299,136.004486 281.726288,134.989777 
	C283.067291,139.465286 283.328979,143.480087 282.643127,147.938904 
	C281.816956,153.309891 286.024475,161.238205 296.770020,162.818726 
z"/>
<path fill="#000000" opacity="1.000000" stroke="none" 
	d="
M11.648642,334.999939 
	C11.648291,248.117569 11.648291,161.735245 11.648291,75.352905 
	C14.910888,77.967781 16.405645,81.477104 15.787903,84.622963 
	C14.998628,88.642334 16.482594,92.153618 16.663324,95.899261 
	C16.771219,98.135391 18.192768,99.891907 20.317188,101.419487 
	C26.399027,105.792679 30.367197,111.476524 29.395771,119.579079 
	C29.172764,121.439163 29.078638,123.297714 27.865984,124.732483 
	C24.512981,128.699631 25.741772,134.415543 22.531464,138.416702 
	C22.359270,138.631302 22.316568,139.147171 22.453611,139.383728 
	C26.049549,145.590973 25.322748,152.491684 23.459904,158.535645 
	C21.176565,165.943863 27.091162,173.245193 22.616722,180.236450 
	C24.903912,184.624969 21.531425,189.192307 23.110868,193.703537 
	C23.956034,196.117493 22.908005,199.069382 23.169294,201.321762 
	C23.870575,207.366943 22.229160,213.413086 23.803337,219.402115 
	C24.950880,223.767975 25.717552,228.232834 24.412111,232.815247 
	C23.096268,237.434204 23.270800,242.265808 23.472399,246.970718 
	C23.771778,253.957565 24.192549,260.920929 23.415737,267.891846 
	C23.102377,270.703888 25.189344,272.826965 25.380322,275.549316 
	C26.046438,285.044586 26.201208,294.448090 24.803869,303.960754 
	C24.034393,309.199097 26.509142,314.672180 25.534782,320.108948 
	C24.774830,324.349365 25.472168,328.781372 23.848291,332.879822 
	C23.260122,334.364319 24.022783,335.351013 24.567650,336.579498 
	C26.247032,340.365875 27.703672,344.243988 27.479404,348.620728 
	C25.858187,349.788208 24.239826,350.078918 22.030386,349.677521 
	C17.848053,348.917725 14.181741,352.335724 15.677548,356.060242 
	C17.700998,361.098541 15.698777,365.433594 15.022462,370.028320 
	C14.797318,371.557892 14.579785,372.925812 15.198571,374.383759 
	C16.407972,377.233307 18.068481,379.982269 16.496225,383.328613 
	C16.172729,384.017151 16.593395,385.465424 17.174852,386.106842 
	C24.573275,394.268555 29.221245,404.499786 40.603069,409.604370 
	C48.673988,413.224091 57.219475,414.770966 65.151833,418.324585 
	C67.405830,419.334412 69.832481,416.816864 71.962456,417.731506 
	C78.591042,420.577972 85.613098,416.943115 92.267853,419.318481 
	C94.686256,420.181702 97.420090,419.127411 100.043167,419.207947 
	C102.641647,419.287720 104.804466,419.675995 107.033928,420.795807 
	C108.554520,421.559540 110.227493,421.940735 111.806992,420.902863 
	C116.594315,417.757263 121.442642,418.737061 126.347282,420.554230 
	C127.411613,420.948578 128.901672,421.684479 129.628952,421.269623 
	C137.800446,416.608429 146.289337,420.803986 154.587494,420.231445 
	C161.499481,419.754578 168.448181,419.749084 175.382065,419.680542 
	C178.144318,419.653198 180.176086,418.634888 181.686615,416.373535 
	C182.770874,414.750397 184.405991,414.021881 186.274048,413.649536 
	C188.556885,413.194519 190.879471,412.825226 191.940536,410.221985 
	C192.428787,409.024109 193.636444,408.757904 194.862579,408.661896 
	C200.195602,408.244171 205.563828,407.217468 210.819977,408.979736 
	C214.374329,410.171417 217.940765,409.080872 221.040024,408.214020 
	C229.957062,405.719940 238.830017,405.543701 247.881042,406.521667 
	C248.968628,406.639130 250.120987,406.092224 251.250732,405.895935 
	C255.344086,405.184692 258.901093,404.703857 262.139862,408.943298 
	C265.283875,413.058746 269.788574,416.201263 274.467651,418.732178 
	C276.574799,419.871918 278.201813,421.319183 279.255035,423.551300 
	C277.586029,424.892700 275.693726,424.326447 273.965576,424.327209 
	C188.635956,424.364929 103.306244,424.321747 17.976881,424.471954 
	C12.902462,424.480896 11.498180,423.029236 11.540506,417.995117 
	C11.771691,390.498352 11.649617,362.998627 11.648642,334.999939 
z"/>
<path fill="#000000" opacity="1.000000" stroke="none" 
	d="
M418.727386,116.325195 
	C421.057251,112.959595 423.120300,109.770638 425.723511,107.110176 
	C431.168884,101.544960 435.009491,95.239143 436.442047,87.512222 
	C436.671722,86.273453 437.524384,85.150177 438.308472,83.516296 
	C439.773987,85.198090 439.327087,86.874535 439.327393,88.355759 
	C439.349884,198.474854 439.334381,308.593933 439.400696,418.713013 
	C439.402954,422.484131 438.800568,424.452850 434.297699,424.441528 
	C385.486359,424.318573 336.674530,424.381104 287.862854,424.376495 
	C287.088654,424.376434 286.314453,424.168457 285.119171,423.997162 
	C287.632202,421.215027 291.002777,420.860321 293.496155,421.091125 
	C299.582336,421.654541 305.686859,419.437622 311.726105,421.555908 
	C314.704773,422.600739 317.741943,422.484772 320.992218,421.880859 
	C324.895569,421.155579 329.093933,419.430450 333.055725,422.291565 
	C334.057434,423.015045 335.276367,422.082001 336.364899,421.692139 
	C337.459137,421.300201 338.866577,420.397675 339.659332,420.760925 
	C348.708710,424.907379 356.944061,417.565979 365.523132,418.897430 
	C377.753479,420.795502 389.312347,416.982391 400.898438,415.018860 
	C407.557098,413.890411 416.098938,411.856476 419.439850,403.449615 
	C419.954987,402.153351 421.086212,401.117767 422.647400,400.510468 
	C425.289673,399.482574 427.138092,397.211884 427.426605,394.530792 
	C427.850006,390.596069 429.258759,387.103760 431.061371,383.750427 
	C434.063660,378.165314 435.892426,372.502472 433.848480,366.135468 
	C433.415466,364.786530 434.361694,363.582062 434.814240,362.340454 
	C437.242432,355.678833 435.472168,351.530487 428.642639,350.139679 
	C423.996399,349.193451 422.812714,346.755951 423.734497,342.890961 
	C424.741821,338.667419 423.792755,334.247375 425.354431,330.118561 
	C425.637939,329.369049 425.840729,328.379669 425.593445,327.671051 
	C423.133209,320.620850 425.481110,313.232300 423.994720,306.134460 
	C423.643402,304.456970 423.753784,302.878937 424.125946,301.215118 
	C425.061127,297.034424 426.066040,292.872040 424.034973,288.626373 
	C423.245972,286.976959 423.829224,285.106445 424.341064,283.278961 
	C425.774597,278.160492 425.830261,272.848267 424.377716,267.815643 
	C423.178955,263.662231 424.334686,259.675171 424.319214,255.658463 
	C424.307495,252.612946 424.628998,249.798294 422.343475,246.716141 
	C431.328796,242.745361 426.229858,235.400772 426.039490,229.707825 
	C425.759460,221.334106 423.880676,213.092346 428.263336,205.193924 
	C429.229919,203.451950 427.945923,202.053055 427.018494,200.660919 
	C424.292175,196.568420 423.872681,192.377914 426.467865,188.019867 
	C428.233856,185.054382 428.613556,182.410446 426.892639,178.811920 
	C423.146301,170.978134 424.803284,162.647766 425.565216,154.257767 
	C426.309326,146.063965 427.094391,137.087891 423.304077,129.642868 
	C421.126953,125.366547 419.045197,121.493599 418.727386,116.325195 
z"/>
<path fill="#000000" opacity="1.000000" stroke="none" 
	d="
M173.981995,33.052841 
	C169.902069,30.104216 165.608765,32.725639 161.670074,31.701893 
	C161.106003,31.555279 160.247498,32.289440 159.777100,32.071751 
	C150.419083,27.741186 140.543549,32.570225 131.059311,30.420630 
	C129.298721,30.021591 127.482246,30.038614 125.871864,28.404531 
	C127.635002,27.249756 129.455124,27.700359 131.135162,27.699818 
	C231.448547,27.667507 331.761932,27.661024 432.075317,27.656281 
	C439.337341,27.655937 439.343994,27.670435 439.347412,35.065372 
	C439.352966,47.194416 439.348907,59.323463 438.740936,71.568481 
	C435.641632,68.802650 436.292358,64.741447 435.943176,61.440578 
	C435.460297,56.875816 433.307831,54.364372 430.308685,51.134274 
	C425.242340,45.677795 417.695129,43.233917 413.781799,36.575424 
	C412.851776,34.993076 410.652802,34.766632 408.861298,34.455952 
	C395.897583,32.207809 382.675568,32.343910 369.658020,30.005718 
	C365.557129,29.269127 360.087280,28.670238 355.320404,31.477707 
	C352.318115,33.245937 348.077057,31.370882 344.909943,30.721739 
	C339.381622,29.588650 334.485748,30.673159 329.477356,31.826477 
	C326.170715,32.587921 323.088776,33.496902 319.862579,31.883724 
	C318.386017,31.145405 316.997925,31.822840 315.525726,32.003101 
	C311.648010,32.477901 307.823486,33.104557 304.126343,30.474112 
	C301.166290,28.368099 297.279327,29.486292 294.069397,29.975538 
	C289.466034,30.677170 284.964722,31.022530 280.379974,30.522144 
	C278.229950,30.287489 276.543365,31.054529 274.871185,32.294827 
	C268.224915,37.224560 262.241150,42.809753 257.041595,49.277687 
	C252.558594,54.854256 245.234589,57.662861 242.002533,64.505791 
	C235.566391,65.090904 234.542908,71.912941 230.129059,74.803238 
	C226.917465,76.906265 225.765945,79.478943 227.099396,83.273102 
	C227.724258,85.051056 227.872192,87.137283 226.351471,89.280312 
	C224.362259,84.796745 223.425766,80.106903 218.339020,77.846718 
	C216.463272,77.013268 214.546219,74.256950 214.586777,71.185783 
	C214.624023,68.367119 212.744217,66.546455 210.290497,65.594597 
	C206.234482,64.021149 203.117783,61.605785 201.572128,57.404770 
	C201.356644,56.819107 200.917496,56.129726 200.393219,55.871616 
	C192.722504,52.095257 188.025589,44.777302 181.319138,39.805580 
	C178.851868,37.976513 177.856049,34.198181 173.981995,33.052841 
z"/>
<path fill="#000000" opacity="1.000000" stroke="none" 
	d="
M39.964714,37.098351 
	C39.198139,38.556725 39.128479,39.990398 37.401455,40.292664 
	C28.628067,41.828194 24.678928,48.969833 20.438581,55.485725 
	C18.411844,58.600101 16.523127,61.974514 15.968469,65.937355 
	C15.747667,67.514923 14.023387,68.882050 13.003009,70.317612 
	C11.192936,69.770134 11.705184,68.378563 11.700648,67.367249 
	C11.648399,55.716248 11.729667,44.064285 11.614724,32.414162 
	C11.582582,29.156292 12.453881,27.600536 16.086210,27.610798 
	C49.874386,27.706253 83.662941,27.663197 117.451363,27.691475 
	C118.365379,27.692240 119.487289,27.376183 120.135849,28.488441 
	C119.898201,29.648851 118.877541,30.354834 118.046387,30.242441 
	C108.332794,28.928928 98.782143,32.980206 88.919968,30.640696 
	C82.893776,29.211157 76.434555,32.046902 70.264221,30.749033 
	C63.584404,29.344000 57.781403,33.955814 50.968170,32.684193 
	C47.448021,32.027191 43.404110,34.364292 39.964714,37.098351 
z"/>
</svg>