<?xml version="1.0" encoding="UTF-8"?>
<svg id="Layer_2" xmlns="http://www.w3.org/2000/svg" viewBox="0 0 136.79 126.38">
  <defs>
    <style>
      .cls-1 {
        fill: #fe6b74;
      }
    </style>
  </defs>
  <g id="Layer_1-2" data-name="Layer_1">
    <path class="cls-1" d="M133.64,20.65c1.73-1.33,2.79-3.96,3.07-4.74.05-.15.08-.3.08-.46C136.81-.61,122.61,0,122.61,0h-32.93c-5.36,0-7.04,2.55-7.04,2.55l-12.42,12.76c-.23.24-.36.56-.36.9v7.28l2.84,4.23c.45.08.9.16,1.35.26l4.73-3.19c.79-.53,1.87-.09,2.06.84l1.16,5.59c.47.29.94.6,1.39.93l5.61-1.1c.93-.18,1.76.64,1.57,1.57l-1.1,5.61c.46.65.89,1.31,1.29,2l5.56,1.31c.93.22,1.34,1.31.78,2.08l-3.32,4.64c.04.21.08.43.12.65l4.74,3.18c.79.53.79,1.69,0,2.22l-4.74,3.18c-.08.45-.16.9-.26,1.35l3.19,4.73c.53.79.09,1.87-.84,2.06l-5.59,1.16c-.29.47-.6.94-.93,1.39l1.1,5.61c.18.93-.64,1.76-1.57,1.57l-5.61-1.1c-.65.46-1.31.89-2,1.29l-1.31,5.56c-.22.93-1.31,1.34-2.08.78l-4.64-3.32c-.21.04-.43.08-.65.12l-3.18,4.74c-.53.79-1.69.79-2.22,0l-3.18-4.74c-.45-.08-.9-.16-1.35-.26l-4.73,3.19c-.79.53-1.87.09-2.06-.84l-1.16-5.59c-.47-.29-.94-.6-1.39-.93l-5.61,1.1c-.93.18-1.76-.64-1.57-1.57l1.1-5.61c-.46-.65-.89-1.31-1.29-2l-5.56-1.31c-.93-.22-1.34-1.31-.78-2.08l3.32-4.64c-.04-.21-.08-.43-.12-.65l-4.74-3.18c-.79-.53-.79-1.69,0-2.22l4.74-3.18c.08-.45.16-.9.26-1.35l-3.19-4.73c-.53-.79-.09-1.87.84-2.06l5.59-1.16c.29-.47.6-.94.93-1.39l-1.1-5.61c-.18-.93.64-1.76,1.57-1.57l5.61,1.1c.65-.46,1.31-.89,2-1.29l1.31-5.56c.22-.93,1.31-1.34,2.08-.78l4.64,3.32c.21-.04.43-.08.65-.12l2.84-4.23v-7.28c0-.33-.13-.66-.36-.9l-12.42-12.76S52.48,0,47.12,0H14.18S-.02-.61,0,15.45c0,.16.03.31.08.46.29.78,1.34,3.4,3.07,4.74,0,0,3.31,2.52,1.89,7.25,0,0-1.58,4.41-1.58,9.93v67.11c0,.71-.57,1.28-1.28,1.28s-1.28.56-1.28,1.27c-.02,4.43,1.22,18.9,18.17,18.9h31.29c.33,0,.64-.12.87-.34.88-.84,3.49-3.01,7.93-3.97.1-.02.2-.03.3-.03h17.85c.1,0,.2.01.3.03,4.45.96,7.06,3.12,7.93,3.97.24.23.55.34.87.34h31.29c16.95,0,18.19-14.47,18.17-18.9,0-.71-.58-1.27-1.28-1.27s-1.28-.57-1.28-1.28V37.82c0-5.52-1.58-9.93-1.58-9.93-1.42-4.73,1.89-7.25,1.89-7.25Z"/>
  </g>
</svg>