<?xml version="1.0" encoding="UTF-8"?>
<svg id="_레이어_1" data-name="레이어_1" xmlns="http://www.w3.org/2000/svg" viewBox="0 0 450 450">
  <defs>
    <style>
      .cls-1 {
        fill: #9b9b9b;
      }
    </style>
  </defs>
  <path class="cls-1" d="M228.9,120.31c0-5.73-.01-10.16,0-14.59.02-5.66.06-11.32.09-16.98,0-1.16.53-2.65,0-3.41-3.85-5.45.52-8.54,2.9-12.65,4.28-7.36,11.26-12.08,17.13-17.66,4.14-3.94,8.17-7,10.99-12.47,3.87-7.48,12.67-8.42,20.24-9.64,7.89-1.27,15.97-1.27,23.96-1.99,3.68-.34,7.33-1.1,10.99-1.64,3.74-.55,7.49-1.12,11.25-1.53,1.11-.12,2.9-.12,3.31.51,2.51,3.92,6.06,1.91,9.31,2.13,3,.2,5.94,1.45,8.94,1.64,2.29.14,4.85-.18,6.91-1.13,3.39-1.56,6.15-.96,9.46.37,2.48,1,5.68.91,8.41.43,6.19-1.08,12.44-4.7,18.06,1.66,3.89-3.1,7.43-2.98,11.78-.2,5.4,3.45,12.01,5.09,17.15,8.82,3.92,2.84,6.43,7.65,9.47,11.67,2.27,2.99,5.02,5.85,6.35,9.24,1.19,3.04.87,6.72.94,10.12.06,2.63-1.46,6.12-.27,7.77,4.53,6.26-.49,11.14-2.01,16.21-.62,2.08-5.16,2.97-7.92,4.41-.4-.51-.8-1.02-1.2-1.53-2.04,4.67-4.15,9.32-6.06,14.05-.31.77.09,1.94.4,2.84,1.86,5.39,3.94,10.71,5.65,16.15,1.26,4,3.8,7.95,1.46,12.42-.14.26-.17.73-.03.98,3.53,6.26.66,12.6-.02,18.81-.7,6.34-2.36,12.58-3.63,19.04,4.15,6.89,3.5,22.87-1.76,29.57,5.36,3.05,4.22,7.52,3.34,12.74-.89,5.31-1.34,11.89,1.03,16.28,3.94,7.25-.95,13.69.48,20.46.86,4.06,1.76,8.62-1.81,12.29-.31.32-.23,1.28-.01,1.81,2.87,7.16,2.13,14.22.09,21.47-.72,2.56-.6,5.82.36,8.28,1.76,4.49,1.39,8.35-1.65,12.26,4.21,3.45,4.6,7.21,1.23,11.28-.51.62-1.1,1.48-1.07,2.2.3,6.62.73,13.23,1.12,19.73.83.13,1.22.32,1.47.2,2.85-1.32,5.76-3.27,8.55-.13,3.04,3.42.33,6.33-.87,9.56-.89,2.39-.48,5.25-.79,7.88-.43,3.63-2.1,7.02-.17,10.97.64,1.3-1.58,4.19-2.81,6.15-1.27,2.03-2.93,3.8-4.37,5.73-.28.38-.17,1.08-.48,1.39-4.94,5.07-10.64,9.58-14.71,15.27-4.64,6.49-12.85,4.55-17.29,8.24-6.87,5.7-14.59-.06-20.75,4.25-8.56-3.46-17.51,1.47-26.33-1.42-4.14-1.36-9.2.25-13.84.23-3.68-.02-7.35-.57-11.04-.72-9.4-.4-18.8-.79-28.21-.99-1.89-.04-3.86.58-5.67,1.24-4.2,1.53-13.43-1.31-15.63-5.19-3.28-5.77-8.5-7.91-14.74-8.51-7.31-.7-14.55-.85-21.7,1.35-1.29.4-2.9-.33-4.36-.36-6.53-.14-13.06-.43-19.56-.79-6.49-.36-6.58,1.31-9.21-.24-5.04,1.9-9.14,4.43-13.43,4.82-5.16.46-8.14,3.79-11.83,6.26-3.32,2.22-6.57,3.47-10.74,2.33-1.9-.52-4.21.37-6.32.67-3.13.43-6.25,1.28-9.38,1.27-4.28-.01-8.58-.45-12.81-1.1-2.9-.45-5.7-1.57-8.48-1.39-3.28.11-6.57.14-9.85.38-.83.06-1.57.98-2.43,1.21-1.97.53-4.01,1.33-5.98,1.23-6.59-.33-13.16-.99-19.73-1.55-2.41-.2-4.81-.47-7.21-.67-5.73-.49-11.45-.97-17.18-1.43-.82-.07-1.71.2-2.47-.02-17.59-5.2-32.97-13.36-41.01-31.11-.52-1.15-.45-2.57-.76-3.83-.34-1.39-.39-3.47-1.29-4.01-4.92-2.9-5.06-6.91-3.15-11.37-1.54-1.65-3.08-2.95-4.19-4.55-3.33-4.81-2.5-7.95,2.61-10.88,1.44-.82,2.75-1.87,4.19-2.68,1.43-.79,2.96-1.4,4.63-2.18.65-7.12,1.57-14.28,1.89-21.47.24-5.55-.41-11.14-.43-16.71-.03-7.51-.07-15.04.32-22.53.27-5.31,1.8-10.59,1.76-15.87-.05-6.65-1.15-13.29-1.72-19.94-.19-2.23-.15-4.48-.14-6.72,0-.98.42-2,.27-2.93-1.67-10.13.63-20.48-2.28-30.69-1.18-4.15,1.03-9.23,1.55-13.9.23-2.06.1-4.15.12-6.23.05-4.21.17-8.41.1-12.62-.04-2.13-.38-4.27-.68-6.39-.23-1.61-1-3.23-.89-4.8.57-8.1,3.03-16.51,1.53-24.17-1.28-6.54,1.62-11.05,2.72-16.44.26-1.27.62-2.78,1.47-3.62,3.3-3.25,3.23-6.37.69-10.1-3.33-4.88-6.72-9.8-9.26-15.11-3.03-6.32-5.99-12.89-7.35-19.69-.65-3.26,2.46-7.27,3.88-10.94.47-1.2,1.45-2.41,1.39-3.57-.47-8.64,4.53-14.13,10.75-18.82,4.55-3.43,9.21-6.78,14.13-9.63,2.41-1.4,5.51-1.7,8.34-2.27,7.5-1.5,14.74-4.53,22.52-4.22,2.54.1,5.15,2.29,7.53,1.97,12.64-1.67,24.86.89,37.18,2.79,1.76.27,3.66.13,5.42-.21,8.35-1.61,16.53-.33,24.88.27,5.67.41,11.76,2.73,18.07-.53,3.82-1.97,10.29-3.82,12.78,3.56,5.39.97,7.71,5.77,11.28,9.02,4.85,4.4,9.41,9.35,14.92,12.71,4.83,2.94,6.54,7.15,8.89,11.62,1.72,3.26,4.98,5.8,7.84,8.35,2.75,2.45,2.94,4.87,1.23,7.92-.78,1.39-1.59,3.05-1.54,4.56.25,8.44.73,16.88,1.2,25.32.04.77.53,1.55.94,2.26.21.36.69.57,2.62,2.05ZM164.76,140.39c.08.33.15.67.23,1-2.3,1.66-4.6,3.34-6.91,4.99-.87.62-1.93,1.05-2.65,1.81-2.12,2.23-4.16,4.54-6.14,6.89-.89,1.06-2.04,2.22-2.27,3.47-.69,3.8-.82,7.69-1.48,11.49-.53,3.05-2.43,6.11-2.12,9,.69,6.51,2.36,12.67,2.15,19.57-.21,6.76,5.95,12.83,7.35,20.28,1.02,5.48,4.88,10.44,7.55,15.59.51.99,1.5,1.72,2.04,2.7.99,1.8,2.21,3.61,2.62,5.57,1.18,5.62,2.02,11.01,7.19,15.03,2.68,2.08,3.09,7.05,5.76,9.16,5.18,4.08,11.2,7.1,16.94,10.44.54.31,1.56-.05,2.31-.27,8.5-2.48,16.94-5.16,25.49-7.43,3.31-.88,7.02-1.68,10.28-1.06,6.96,1.33,13.74,3.62,20.6,5.5,3.84,1.05,7.66,2.21,11.55,3.02.86.18,2.14-.71,2.95-1.42,3.15-2.77,5.83-6.25,9.34-8.39,5.18-3.16,8.65-7.33,11.13-12.73,4.19-9.14,11.58-16.71,13.22-27.11.07-.45.59-.81.77-1.26,1.55-3.87,4.4-7.78,4.35-11.64-.12-9.71,2.8-19.55-.77-29.17-.34-.91-.44-1.99-.32-2.95.28-2.12,1.71-4.61,1.01-6.23-2.9-6.73-3.14-14.13-7.61-20.67-5.93-8.67-14.35-14.58-20.92-22.4-.65-.77-2.02-1.36-3.04-1.33-7.71.21-15.46.17-23.09,1.08-4.98.6-9.74,2.85-14.69,4.01-4.41,1.04-7.66-1.5-6.99-5.75.56-3.57-1.14-4.91-4.22-6.86,2.03,7.47-3.24,9.91-7.54,12.39-1.55.89-5.3.22-6.55-1.13-2.23-2.41-4.26-2.37-7.06-2.04-5.11.6-10.4,1.57-15.39.85-4.9-.71-9.23-1.23-13.78,1.3-3.53,1.96-7.49,3.17-11.27,4.71Z"/>
</svg>