<svg version="1.1" id="Layer_1" xmlns="http://www.w3.org/2000/svg" xmlns:xlink="http://www.w3.org/1999/xlink" x="0px" y="0px"
	 width="100%" viewBox="0 0 450 450" enable-background="new 0 0 450 450" xml:space="preserve">
<path fill="#FFFFFF" opacity="1.000000" stroke="none" 
	d="
M1.000000,120.000000 
	C1.000000,80.000023 1.000000,40.500042 1.000000,1.000048 
	C150.999893,1.000032 300.999786,1.000032 450.999756,1.000016 
	C450.999847,150.999817 450.999847,300.999634 450.999939,450.999573 
	C301.000275,450.999725 151.000519,450.999725 1.000394,450.999878 
	C1.000000,340.833344 1.000000,230.666672 1.000000,120.000000 
M116.038727,424.996124 
	C126.641068,424.973511 137.243408,424.950897 148.774551,424.946625 
	C151.557495,424.944946 154.340424,424.943298 158.043671,424.995941 
	C224.644363,424.973389 291.245056,424.950867 358.689117,424.942047 
	C364.163696,423.358490 369.639984,424.427216 376.037537,424.995178 
	C397.624084,424.995178 419.210663,424.995178 441.000000,424.995178 
	C441.000000,404.277435 441.003906,384.139679 440.999329,364.001892 
	C440.978424,272.373840 440.955139,180.745804 440.973145,88.271538 
	C440.959137,87.142479 440.945099,86.013428 440.995178,83.962715 
	C440.995178,64.716484 440.995178,45.470261 440.995178,26.067162 
	C403.663513,26.067162 366.890717,26.067162 329.271576,26.026812 
	C328.142365,26.040741 327.013153,26.054668 324.962372,26.004807 
	C220.056656,26.004807 115.150955,26.004807 10.000000,26.004807 
	C10.000000,43.182896 9.996747,59.819618 10.000539,76.456337 
	C10.021840,169.931641 10.044847,263.406921 10.027657,357.755066 
	C10.037794,359.210938 10.047933,360.666809 10.004071,363.043091 
	C10.004071,383.619781 10.004071,404.196503 10.004071,424.933502 
	C43.667870,424.933502 76.774513,424.933502 110.753365,424.972382 
	C112.208092,424.963104 113.662811,424.953827 116.038727,424.996124 
z"/>
<path fill="#E0E0E0" opacity="1.000000" stroke="none" 
	d="
M325.883942,26.068596 
	C327.013153,26.054668 328.142365,26.040741 329.773438,26.388889 
	C333.033691,29.247595 336.107574,29.772171 339.810272,29.124968 
	C342.086884,28.727041 344.589722,29.875061 346.997467,29.912626 
	C350.084686,29.960789 353.561249,30.413834 356.175323,29.198313 
	C359.670471,27.573069 362.483429,28.130444 365.262390,29.830997 
	C368.097015,31.565624 370.428589,31.367378 373.590576,30.325146 
	C377.747131,28.955099 382.435638,28.242538 386.763885,28.648611 
	C390.305756,28.980907 393.549988,32.035992 397.382812,29.115559 
	C397.892761,28.727005 399.461823,29.550230 400.451050,30.006119 
	C402.496643,30.948868 404.469910,32.047062 406.494690,33.036751 
	C411.049377,35.262985 416.546356,36.514290 419.977966,39.878120 
	C426.273895,46.049751 431.826569,53.144535 436.747192,60.485790 
	C439.264679,64.241692 440.605896,68.957321 439.072693,74.257164 
	C438.140900,77.477936 437.140808,81.926636 440.931061,84.884369 
	C440.945099,86.013428 440.959137,87.142479 440.604462,88.770317 
	C439.159424,91.034187 437.573059,92.672630 437.097656,94.586952 
	C435.325073,101.725212 434.187653,102.652687 426.896179,101.667862 
	C426.157684,103.058311 425.225891,104.376823 424.725525,105.842590 
	C423.573822,109.216484 421.576691,112.753220 421.862274,116.056175 
	C422.250641,120.547981 423.625671,125.409492 426.036713,129.179230 
	C431.508881,137.735153 427.220734,147.731873 430.956299,156.388214 
	C431.113831,156.753220 430.784576,157.334213 430.667389,157.810974 
	C428.912933,164.949020 425.513519,171.762970 426.888428,179.506531 
	C427.262726,181.614548 426.486389,183.901855 426.520538,186.102493 
	C426.553192,188.204636 427.114319,190.297867 427.156006,192.400711 
	C427.224609,195.860443 426.281555,199.543793 427.178009,202.736069 
	C428.538483,207.580841 427.160950,211.093750 425.098236,213.017258 
	C426.241852,216.850647 427.617340,219.619461 427.793121,222.462448 
	C428.090393,227.270554 426.892731,232.244354 427.649384,236.934586 
	C428.969849,245.119400 429.501862,253.235931 428.818787,261.470154 
	C428.508881,265.205414 428.178192,268.945679 428.080078,272.689545 
	C428.007507,275.457367 428.256348,278.237335 428.442352,281.006470 
	C428.518188,282.135254 429.069611,283.276978 428.956818,284.366486 
	C427.988434,293.723206 425.108215,302.772400 427.604187,312.592743 
	C428.626282,316.614044 428.737274,321.960632 428.331879,325.919037 
	C427.724274,331.851776 425.570221,337.646484 426.484283,343.948303 
	C426.854614,346.501587 426.004608,349.231842 425.541046,353.399811 
	C429.680695,349.676422 432.685364,348.811066 435.722595,351.978302 
	C438.201172,354.562927 438.564789,357.406921 436.994415,360.577240 
	C434.160919,366.297333 433.392670,372.575409 434.170227,378.635773 
	C434.853485,383.960907 435.070007,388.200348 429.553680,390.832733 
	C428.892578,391.148193 428.512787,392.079651 428.035095,392.748749 
	C424.445160,397.777283 421.108734,403.013367 417.193848,407.774048 
	C414.532013,411.010986 411.122589,413.653351 407.918182,416.411316 
	C406.991730,417.208649 405.646454,417.568146 404.444122,417.987610 
	C399.509979,419.708923 394.592560,421.494507 389.591370,422.998230 
	C387.855804,423.520020 385.621094,423.934784 384.092834,423.280640 
	C380.530609,421.755951 377.756439,422.469391 375.115936,424.931305 
	C369.639984,424.427216 364.163696,423.358490 358.130310,424.536743 
	C351.920166,424.082306 346.254242,424.266449 340.621887,423.914062 
	C335.642090,423.602509 330.715210,422.360413 325.737000,422.127502 
	C318.610779,421.794098 311.459106,422.013245 304.318359,421.979889 
	C301.661407,421.967468 298.997437,421.764618 296.349274,421.898468 
	C289.570099,422.241150 282.774109,424.784515 276.040802,421.880005 
	C274.395752,421.170380 272.277435,420.181366 271.632294,418.753510 
	C267.429443,409.451447 258.823242,408.826965 250.605804,408.203033 
	C243.089188,407.632324 235.684204,412.581207 227.922867,409.123779 
	C227.569687,408.966400 226.836273,409.930389 226.262100,409.954956 
	C223.778305,410.061218 221.286255,410.071045 218.800262,410.003632 
	C216.128036,409.931152 213.008316,408.783295 210.884537,409.791473 
	C206.712982,411.771606 203.532104,410.963928 199.934921,407.823517 
	C200.751373,412.972443 196.725342,412.111725 194.490051,412.888672 
	C189.495819,414.624512 184.140274,414.733551 179.588821,418.451660 
	C176.557205,420.928223 172.064255,421.778107 168.096039,422.897736 
	C164.530136,423.903870 160.787857,424.284882 157.123367,424.941620 
	C154.340424,424.943298 151.557495,424.944946 148.212418,424.553375 
	C143.298676,423.775665 138.845795,423.834412 134.626556,422.870514 
	C131.066956,422.057281 127.860649,420.389404 124.671356,423.647156 
	C124.166245,424.163116 122.794807,423.781555 121.837692,423.914337 
	C119.593201,424.225739 117.357063,424.597351 115.117538,424.944519 
	C113.662811,424.953827 112.208092,424.963104 110.172569,424.560913 
	C103.846771,423.770020 98.105431,423.309784 92.355057,423.048676 
	C89.848328,422.934784 87.261230,423.631348 84.818817,423.255981 
	C79.439873,422.429260 73.900505,419.637024 68.842339,420.400635 
	C60.104088,421.719849 53.598122,416.368622 46.114758,414.437775 
	C40.468590,412.980988 35.508389,407.396545 31.153252,402.788818 
	C26.079111,397.420349 21.127598,391.589478 20.903418,383.414093 
	C20.880814,382.589752 19.791935,381.546509 18.939651,381.036102 
	C15.264262,378.834961 14.664848,375.486511 15.129887,371.662994 
	C15.235030,370.798553 15.805058,369.654358 15.445415,369.127167 
	C13.788133,366.697876 11.877716,364.441223 10.058069,362.122681 
	C10.047933,360.666809 10.037794,359.210938 10.386595,357.249756 
	C12.350655,355.198853 13.699751,353.078430 15.613611,352.225922 
	C19.741648,350.387115 23.250105,348.211426 23.970985,343.415771 
	C24.295385,341.257721 23.924450,339.004700 24.032440,336.802795 
	C24.305475,331.235535 24.726034,325.675293 24.976759,320.107269 
	C25.104572,317.268768 24.888262,314.414612 25.019789,311.576447 
	C25.162050,308.506683 26.693010,304.906677 25.570505,302.488495 
	C22.642370,296.180481 25.804577,290.253021 25.574677,284.176849 
	C25.368553,278.729065 26.851078,273.233398 26.859911,267.757721 
	C26.873060,259.603943 23.683052,251.646255 25.095934,243.353180 
	C25.446407,241.296021 26.070782,239.197937 25.934660,237.161087 
	C25.434078,229.670715 24.682493,222.196701 23.989540,214.719864 
	C23.797159,212.644104 22.895985,210.447983 23.327297,208.534088 
	C24.841644,201.814407 25.075655,195.149246 24.062836,188.349030 
	C23.700855,185.918625 23.500748,183.203445 24.223982,180.936386 
	C25.182484,177.931870 25.288387,175.452362 24.027597,172.466156 
	C23.058603,170.171066 22.975615,167.327866 23.128281,164.765930 
	C23.585049,157.100647 25.429985,149.349533 24.702961,141.828156 
	C23.924555,133.775162 27.042685,127.330643 30.394463,120.937492 
	C31.537792,118.756721 32.028393,117.563568 30.897919,115.702850 
	C28.429150,111.639351 23.995733,108.507385 24.894606,102.845894 
	C24.937244,102.577354 24.342772,102.146866 23.978651,101.883545 
	C17.389296,97.118431 16.740900,89.233299 14.225792,82.469406 
	C13.117283,79.488289 13.643587,75.482323 14.567009,72.269081 
	C15.698328,68.332405 18.472326,65.115631 18.310331,60.437283 
	C18.210835,57.563820 20.021257,54.092697 22.012798,51.787247 
	C26.373127,46.739613 31.051962,41.828968 36.269444,37.709309 
	C39.653023,35.037678 44.056572,33.104454 48.292892,32.204567 
	C53.735577,31.048426 59.567921,31.841202 64.388062,28.009741 
	C65.368813,27.230158 67.097343,27.283028 68.498779,27.169193 
	C70.144356,27.035522 71.817223,27.037006 73.463448,27.167107 
	C75.192726,27.303776 77.180687,27.194912 78.569260,28.015907 
	C81.976494,30.030439 85.336166,29.040449 88.781403,28.666172 
	C90.490738,28.480478 92.255783,28.409948 93.956879,28.612606 
	C103.016434,29.691898 112.038071,31.290840 121.125755,31.850368 
	C125.890831,32.143753 130.794754,29.965120 135.581711,30.170076 
	C143.034714,30.489180 150.288452,33.201302 157.945312,32.141373 
	C161.534012,31.644592 165.259796,32.098103 168.833221,31.541584 
	C173.104279,30.876419 177.530533,28.702898 181.356079,31.982550 
	C185.575867,35.600208 189.119156,40.001465 193.295135,43.677395 
	C196.949265,46.893967 201.091156,49.553143 204.971680,52.518627 
	C205.743240,53.108250 206.259735,54.019855 206.975311,54.696873 
	C208.819534,56.441689 210.742142,58.104408 212.567001,59.868637 
	C213.458832,60.730820 214.675629,61.631721 214.936478,62.710663 
	C216.583862,69.524506 222.776596,72.615341 225.487839,77.019615 
	C233.247513,74.334190 232.311157,64.277306 240.616486,62.574398 
	C241.928650,62.305351 243.022171,60.304031 243.944733,58.922028 
	C247.080780,54.224304 250.168839,49.545345 256.977295,49.777935 
	C256.802704,45.448795 257.080902,41.714317 261.687195,39.599155 
	C263.937164,38.566002 265.213104,35.156673 267.456177,34.415493 
	C272.485779,32.753555 277.814423,31.891235 283.079651,31.083515 
	C286.804230,30.512144 290.628296,30.614819 294.401031,30.326149 
	C300.994446,29.821655 307.656342,29.671932 314.145294,28.543804 
	C318.049652,27.865021 322.682831,30.070274 325.883942,26.068596 
M301.898987,161.991058 
	C298.594635,157.483658 295.541107,152.761398 291.915375,148.529343 
	C288.299316,144.308578 284.003693,140.677994 280.204681,136.603439 
	C277.101929,133.275635 270.354797,132.244827 265.526672,133.527466 
	C261.947968,134.478149 257.884399,133.460312 254.182999,134.128830 
	C249.615509,134.953766 245.224487,136.712524 240.712646,137.898239 
	C232.860184,139.961884 231.290115,139.073837 228.747437,132.064850 
	C225.971970,134.069931 223.289520,137.015320 220.002991,138.059662 
	C217.426819,138.878250 214.098434,137.369736 211.112976,136.845398 
	C209.281479,136.523727 207.481812,135.921906 205.641113,135.770203 
	C200.236694,135.324814 195.175171,139.259583 189.530487,136.937073 
	C187.669678,136.171448 185.299347,135.550751 183.460693,136.024078 
	C177.276306,137.616135 171.226486,139.730820 165.125168,141.645523 
	C165.411713,141.966110 165.698242,142.286697 165.984772,142.607269 
	C163.825546,144.402145 161.677750,146.211014 159.502991,147.986862 
	C158.114655,149.120529 156.562637,150.082489 155.309616,151.345306 
	C153.949081,152.716492 152.761368,154.286041 151.661362,155.881516 
	C150.489410,157.581314 149.115433,159.294449 148.537476,161.214798 
	C147.706223,163.976746 147.592896,166.946701 147.029129,169.799408 
	C146.433609,172.812805 144.712296,175.947006 145.165176,178.757294 
	C146.330429,185.987915 147.434952,193.167374 147.999741,200.496674 
	C148.269836,204.001633 151.345917,207.213608 152.657913,210.741714 
	C153.548874,213.137665 153.026627,216.120560 154.111755,218.370575 
	C156.638565,223.609848 161.055984,227.910355 161.632507,234.146332 
	C161.721451,235.108246 162.950211,235.931625 163.541855,236.887177 
	C164.727203,238.801636 166.247238,240.638489 166.883392,242.733780 
	C167.905426,246.099915 167.202896,250.658432 169.231018,252.909302 
	C173.294205,257.418793 177.013733,262.064850 180.764038,266.809052 
	C184.406738,271.417084 190.834793,273.823303 195.867874,277.085052 
	C197.491486,276.306549 198.724609,275.439606 200.088028,275.107513 
	C207.438980,273.316864 214.769302,271.358368 222.210663,270.047791 
	C228.456207,268.947876 234.882416,267.932770 241.155563,268.263977 
	C245.283997,268.481995 249.182404,272.037506 253.364288,272.513733 
	C258.893372,273.143372 264.940887,280.294281 270.244598,272.022644 
	C270.298065,271.939209 270.612366,272.055389 270.721985,271.970825 
	C274.469360,269.080475 278.342377,266.331573 281.892151,263.214752 
	C283.868134,261.479767 285.580261,259.293732 286.930908,257.025024 
	C291.207092,249.842133 295.263855,242.528427 299.384369,235.253372 
	C299.817383,234.488846 300.208923,233.673340 300.450104,232.832809 
	C301.205505,230.200058 301.841492,227.533112 302.593567,224.899353 
	C304.028687,219.873672 306.052643,214.942734 306.819763,209.820847 
	C307.552673,204.927521 307.009766,199.841385 307.002411,194.840042 
	C307.000305,193.399429 307.074432,191.930191 306.827057,190.524490 
	C306.334015,187.722916 305.370850,184.982254 305.101929,182.168625 
	C304.769989,178.695587 305.220154,175.142654 304.824371,171.682343 
	C304.459137,168.489258 303.422363,165.372971 301.898987,161.991058 
z"/>
<path fill="#000000" opacity="1.000000" stroke="none" 
	d="
M325.423157,26.036701 
	C322.682831,30.070274 318.049652,27.865021 314.145294,28.543804 
	C307.656342,29.671932 300.994446,29.821655 294.401031,30.326149 
	C290.628296,30.614819 286.804230,30.512144 283.079651,31.083515 
	C277.814423,31.891235 272.485779,32.753555 267.456177,34.415493 
	C265.213104,35.156673 263.937164,38.566002 261.687195,39.599155 
	C257.080902,41.714317 256.802704,45.448795 256.977295,49.777935 
	C250.168839,49.545345 247.080780,54.224304 243.944733,58.922028 
	C243.022171,60.304031 241.928650,62.305351 240.616486,62.574398 
	C232.311157,64.277306 233.247513,74.334190 225.487839,77.019615 
	C222.776596,72.615341 216.583862,69.524506 214.936478,62.710663 
	C214.675629,61.631721 213.458832,60.730820 212.567001,59.868637 
	C210.742142,58.104408 208.819534,56.441689 206.975311,54.696873 
	C206.259735,54.019855 205.743240,53.108250 204.971680,52.518627 
	C201.091156,49.553143 196.949265,46.893967 193.295135,43.677395 
	C189.119156,40.001465 185.575867,35.600208 181.356079,31.982550 
	C177.530533,28.702898 173.104279,30.876419 168.833221,31.541584 
	C165.259796,32.098103 161.534012,31.644592 157.945312,32.141373 
	C150.288452,33.201302 143.034714,30.489180 135.581711,30.170076 
	C130.794754,29.965120 125.890831,32.143753 121.125755,31.850368 
	C112.038071,31.290840 103.016434,29.691898 93.956879,28.612606 
	C92.255783,28.409948 90.490738,28.480478 88.781403,28.666172 
	C85.336166,29.040449 81.976494,30.030439 78.569260,28.015907 
	C77.180687,27.194912 75.192726,27.303776 73.463448,27.167107 
	C71.817223,27.037006 70.144356,27.035522 68.498779,27.169193 
	C67.097343,27.283028 65.368813,27.230158 64.388062,28.009741 
	C59.567921,31.841202 53.735577,31.048426 48.292892,32.204567 
	C44.056572,33.104454 39.653023,35.037678 36.269444,37.709309 
	C31.051962,41.828968 26.373127,46.739613 22.012798,51.787247 
	C20.021257,54.092697 18.210835,57.563820 18.310331,60.437283 
	C18.472326,65.115631 15.698328,68.332405 14.567009,72.269081 
	C13.643587,75.482323 13.117283,79.488289 14.225792,82.469406 
	C16.740900,89.233299 17.389296,97.118431 23.978651,101.883545 
	C24.342772,102.146866 24.937244,102.577354 24.894606,102.845894 
	C23.995733,108.507385 28.429150,111.639351 30.897919,115.702850 
	C32.028393,117.563568 31.537792,118.756721 30.394463,120.937492 
	C27.042685,127.330643 23.924555,133.775162 24.702961,141.828156 
	C25.429985,149.349533 23.585049,157.100647 23.128281,164.765930 
	C22.975615,167.327866 23.058603,170.171066 24.027597,172.466156 
	C25.288387,175.452362 25.182484,177.931870 24.223982,180.936386 
	C23.500748,183.203445 23.700855,185.918625 24.062836,188.349030 
	C25.075655,195.149246 24.841644,201.814407 23.327297,208.534088 
	C22.895985,210.447983 23.797159,212.644104 23.989540,214.719864 
	C24.682493,222.196701 25.434078,229.670715 25.934660,237.161087 
	C26.070782,239.197937 25.446407,241.296021 25.095934,243.353180 
	C23.683052,251.646255 26.873060,259.603943 26.859911,267.757721 
	C26.851078,273.233398 25.368553,278.729065 25.574677,284.176849 
	C25.804577,290.253021 22.642370,296.180481 25.570505,302.488495 
	C26.693010,304.906677 25.162050,308.506683 25.019789,311.576447 
	C24.888262,314.414612 25.104572,317.268768 24.976759,320.107269 
	C24.726034,325.675293 24.305475,331.235535 24.032440,336.802795 
	C23.924450,339.004700 24.295385,341.257721 23.970985,343.415771 
	C23.250105,348.211426 19.741648,350.387115 15.613611,352.225922 
	C13.699751,353.078430 12.350655,355.198853 10.406401,356.813354 
	C10.044847,263.406921 10.021840,169.931641 10.000539,76.456337 
	C9.996747,59.819618 10.000000,43.182896 10.000000,26.004807 
	C115.150955,26.004807 220.056656,26.004807 325.423157,26.036701 
z"/>
<path fill="#000000" opacity="1.000000" stroke="none" 
	d="
M375.576721,424.963257 
	C377.756439,422.469391 380.530609,421.755951 384.092834,423.280640 
	C385.621094,423.934784 387.855804,423.520020 389.591370,422.998230 
	C394.592560,421.494507 399.509979,419.708923 404.444122,417.987610 
	C405.646454,417.568146 406.991730,417.208649 407.918182,416.411316 
	C411.122589,413.653351 414.532013,411.010986 417.193848,407.774048 
	C421.108734,403.013367 424.445160,397.777283 428.035095,392.748749 
	C428.512787,392.079651 428.892578,391.148193 429.553680,390.832733 
	C435.070007,388.200348 434.853485,383.960907 434.170227,378.635773 
	C433.392670,372.575409 434.160919,366.297333 436.994415,360.577240 
	C438.564789,357.406921 438.201172,354.562927 435.722595,351.978302 
	C432.685364,348.811066 429.680695,349.676422 425.541046,353.399811 
	C426.004608,349.231842 426.854614,346.501587 426.484283,343.948303 
	C425.570221,337.646484 427.724274,331.851776 428.331879,325.919037 
	C428.737274,321.960632 428.626282,316.614044 427.604187,312.592743 
	C425.108215,302.772400 427.988434,293.723206 428.956818,284.366486 
	C429.069611,283.276978 428.518188,282.135254 428.442352,281.006470 
	C428.256348,278.237335 428.007507,275.457367 428.080078,272.689545 
	C428.178192,268.945679 428.508881,265.205414 428.818787,261.470154 
	C429.501862,253.235931 428.969849,245.119400 427.649384,236.934586 
	C426.892731,232.244354 428.090393,227.270554 427.793121,222.462448 
	C427.617340,219.619461 426.241852,216.850647 425.098236,213.017258 
	C427.160950,211.093750 428.538483,207.580841 427.178009,202.736069 
	C426.281555,199.543793 427.224609,195.860443 427.156006,192.400711 
	C427.114319,190.297867 426.553192,188.204636 426.520538,186.102493 
	C426.486389,183.901855 427.262726,181.614548 426.888428,179.506531 
	C425.513519,171.762970 428.912933,164.949020 430.667389,157.810974 
	C430.784576,157.334213 431.113831,156.753220 430.956299,156.388214 
	C427.220734,147.731873 431.508881,137.735153 426.036713,129.179230 
	C423.625671,125.409492 422.250641,120.547981 421.862274,116.056175 
	C421.576691,112.753220 423.573822,109.216484 424.725525,105.842590 
	C425.225891,104.376823 426.157684,103.058311 426.896179,101.667862 
	C434.187653,102.652687 435.325073,101.725212 437.097656,94.586952 
	C437.573059,92.672630 439.159424,91.034187 440.584229,89.193436 
	C440.955139,180.745804 440.978424,272.373840 440.999329,364.001892 
	C441.003906,384.139679 441.000000,404.277435 441.000000,424.995178 
	C419.210663,424.995178 397.624084,424.995178 375.576721,424.963257 
z"/>
<path fill="#000000" opacity="1.000000" stroke="none" 
	d="
M157.583527,424.968781 
	C160.787857,424.284882 164.530136,423.903870 168.096039,422.897736 
	C172.064255,421.778107 176.557205,420.928223 179.588821,418.451660 
	C184.140274,414.733551 189.495819,414.624512 194.490051,412.888672 
	C196.725342,412.111725 200.751373,412.972443 199.934921,407.823517 
	C203.532104,410.963928 206.712982,411.771606 210.884537,409.791473 
	C213.008316,408.783295 216.128036,409.931152 218.800262,410.003632 
	C221.286255,410.071045 223.778305,410.061218 226.262100,409.954956 
	C226.836273,409.930389 227.569687,408.966400 227.922867,409.123779 
	C235.684204,412.581207 243.089188,407.632324 250.605804,408.203033 
	C258.823242,408.826965 267.429443,409.451447 271.632294,418.753510 
	C272.277435,420.181366 274.395752,421.170380 276.040802,421.880005 
	C282.774109,424.784515 289.570099,422.241150 296.349274,421.898468 
	C298.997437,421.764618 301.661407,421.967468 304.318359,421.979889 
	C311.459106,422.013245 318.610779,421.794098 325.737000,422.127502 
	C330.715210,422.360413 335.642090,423.602509 340.621887,423.914062 
	C346.254242,424.266449 351.920166,424.082306 357.708618,424.529907 
	C291.245056,424.950867 224.644363,424.973389 157.583527,424.968781 
z"/>
<path fill="#000000" opacity="1.000000" stroke="none" 
	d="
M10.031070,362.582886 
	C11.877716,364.441223 13.788133,366.697876 15.445415,369.127167 
	C15.805058,369.654358 15.235030,370.798553 15.129887,371.662994 
	C14.664848,375.486511 15.264262,378.834961 18.939651,381.036102 
	C19.791935,381.546509 20.880814,382.589752 20.903418,383.414093 
	C21.127598,391.589478 26.079111,397.420349 31.153252,402.788818 
	C35.508389,407.396545 40.468590,412.980988 46.114758,414.437775 
	C53.598122,416.368622 60.104088,421.719849 68.842339,420.400635 
	C73.900505,419.637024 79.439873,422.429260 84.818817,423.255981 
	C87.261230,423.631348 89.848328,422.934784 92.355057,423.048676 
	C98.105431,423.309784 103.846771,423.770020 109.736465,424.541473 
	C76.774513,424.933502 43.667870,424.933502 10.004071,424.933502 
	C10.004071,404.196503 10.004071,383.619781 10.031070,362.582886 
z"/>
<path fill="#000000" opacity="1.000000" stroke="none" 
	d="
M440.963135,84.423538 
	C437.140808,81.926636 438.140900,77.477936 439.072693,74.257164 
	C440.605896,68.957321 439.264679,64.241692 436.747192,60.485790 
	C431.826569,53.144535 426.273895,46.049751 419.977966,39.878120 
	C416.546356,36.514290 411.049377,35.262985 406.494690,33.036751 
	C404.469910,32.047062 402.496643,30.948868 400.451050,30.006119 
	C399.461823,29.550230 397.892761,28.727005 397.382812,29.115559 
	C393.549988,32.035992 390.305756,28.980907 386.763885,28.648611 
	C382.435638,28.242538 377.747131,28.955099 373.590576,30.325146 
	C370.428589,31.367378 368.097015,31.565624 365.262390,29.830997 
	C362.483429,28.130444 359.670471,27.573069 356.175323,29.198313 
	C353.561249,30.413834 350.084686,29.960789 346.997467,29.912626 
	C344.589722,29.875061 342.086884,28.727041 339.810272,29.124968 
	C336.107574,29.772171 333.033691,29.247595 330.196594,26.409065 
	C366.890717,26.067162 403.663513,26.067162 440.995178,26.067162 
	C440.995178,45.470261 440.995178,64.716484 440.963135,84.423538 
z"/>
<path fill="#000000" opacity="1.000000" stroke="none" 
	d="
M115.578133,424.970337 
	C117.357063,424.597351 119.593201,424.225739 121.837692,423.914337 
	C122.794807,423.781555 124.166245,424.163116 124.671356,423.647156 
	C127.860649,420.389404 131.066956,422.057281 134.626556,422.870514 
	C138.845795,423.834412 143.298676,423.775665 147.748016,424.544189 
	C137.243408,424.950897 126.641068,424.973511 115.578133,424.970337 
z"/>
<path fill="#000000" opacity="1.000000" stroke="none" 
	d="
M302.290161,162.106949 
	C303.422363,165.372971 304.459137,168.489258 304.824371,171.682343 
	C305.220154,175.142654 304.769989,178.695587 305.101929,182.168625 
	C305.370850,184.982254 306.334015,187.722916 306.827057,190.524490 
	C307.074432,191.930191 307.000305,193.399429 307.002411,194.840042 
	C307.009766,199.841385 307.552673,204.927521 306.819763,209.820847 
	C306.052643,214.942734 304.028687,219.873672 302.593567,224.899353 
	C301.841492,227.533112 301.205505,230.200058 300.450104,232.832809 
	C300.208923,233.673340 299.817383,234.488846 299.384369,235.253372 
	C295.263855,242.528427 291.207092,249.842133 286.930908,257.025024 
	C285.580261,259.293732 283.868134,261.479767 281.892151,263.214752 
	C278.342377,266.331573 274.469360,269.080475 270.721985,271.970825 
	C270.612366,272.055389 270.298065,271.939209 270.244598,272.022644 
	C264.940887,280.294281 258.893372,273.143372 253.364288,272.513733 
	C249.182404,272.037506 245.283997,268.481995 241.155563,268.263977 
	C234.882416,267.932770 228.456207,268.947876 222.210663,270.047791 
	C214.769302,271.358368 207.438980,273.316864 200.088028,275.107513 
	C198.724609,275.439606 197.491486,276.306549 195.867874,277.085052 
	C190.834793,273.823303 184.406738,271.417084 180.764038,266.809052 
	C177.013733,262.064850 173.294205,257.418793 169.231018,252.909302 
	C167.202896,250.658432 167.905426,246.099915 166.883392,242.733780 
	C166.247238,240.638489 164.727203,238.801636 163.541855,236.887177 
	C162.950211,235.931625 161.721451,235.108246 161.632507,234.146332 
	C161.055984,227.910355 156.638565,223.609848 154.111755,218.370575 
	C153.026627,216.120560 153.548874,213.137665 152.657913,210.741714 
	C151.345917,207.213608 148.269836,204.001633 147.999741,200.496674 
	C147.434952,193.167374 146.330429,185.987915 145.165176,178.757294 
	C144.712296,175.947006 146.433609,172.812805 147.029129,169.799408 
	C147.592896,166.946701 147.706223,163.976746 148.537476,161.214798 
	C149.115433,159.294449 150.489410,157.581314 151.661362,155.881516 
	C152.761368,154.286041 153.949081,152.716492 155.309616,151.345306 
	C156.562637,150.082489 158.114655,149.120529 159.502991,147.986862 
	C161.677750,146.211014 163.825546,144.402145 165.984772,142.607269 
	C165.698242,142.286697 165.411713,141.966110 165.125168,141.645523 
	C171.226486,139.730820 177.276306,137.616135 183.460693,136.024078 
	C185.299347,135.550751 187.669678,136.171448 189.530487,136.937073 
	C195.175171,139.259583 200.236694,135.324814 205.641113,135.770203 
	C207.481812,135.921906 209.281479,136.523727 211.112976,136.845398 
	C214.098434,137.369736 217.426819,138.878250 220.002991,138.059662 
	C223.289520,137.015320 225.971970,134.069931 228.747437,132.064850 
	C231.290115,139.073837 232.860184,139.961884 240.712646,137.898239 
	C245.224487,136.712524 249.615509,134.953766 254.182999,134.128830 
	C257.884399,133.460312 261.947968,134.478149 265.526672,133.527466 
	C270.354797,132.244827 277.101929,133.275635 280.204681,136.603439 
	C284.003693,140.677994 288.299316,144.308578 291.915375,148.529343 
	C295.541107,152.761398 298.594635,157.483658 302.290161,162.106949 
z"/>
</svg>