<?xml version="1.0" encoding="UTF-8"?>
<svg id="_레이어_1" data-name="레이어_1" xmlns="http://www.w3.org/2000/svg" viewBox="0 0 450 450">
  <defs>
    <style>
      .cls-1 {
        fill: #9b9b9b;
      }
    </style>
  </defs>
  <path class="cls-1" d="M256.45,408.69c-3.97,0-8.22.55-11.09-4.16-.26-.43-1.17-.66-1.77-.64-11.17.37-22.34.71-33.5,1.25-5.67.28-11.39.55-16.94,1.59-3.29.62-6.6,2.28-9.37,4.24-6.11,4.3-12.2,8.51-19.99,8.65-8.04.14-16.09-.06-24.13-.08-2.91,0-5.83.21-8.73.03-3.4-.21-6.84-1.34-10.14-.98-3.25.35-6.3,2.31-9.54,3.1-3.01.74-5.4-1.83-8.83-1.95-6.27-.23-13.5,3.92-19.2-2.4-3.14,4.23-6.1,5.12-11.17,2.64-4.14-2.03-9.83-.65-14.48-2-4.49-1.3-8.6-4.03-12.72-6.39-2.89-1.65-5.54-3.72-8.28-5.63-1.32-.92-2.7-1.8-3.85-2.91-.93-.9-1.34-2.41-2.35-3.17-6.01-4.55-6.9-11.52-8.72-18.04-1.26-4.5-2.67-8.99-3.4-13.58-.57-3.62-.88-7.53-.12-11.05,1.75-8.17,2.72-8.77,10.69-10.32,0-5.9.07-11.88-.05-17.86-.03-1.61-.25-3.49-1.1-4.77-2.24-3.37-1.45-6.03-.02-9.66,1.36-3.44.47-7.87.16-11.84-.39-5.04-1.33-10.04-1.75-15.08-.28-3.35-.13-6.75-.1-10.13.02-2.46-.47-5.16.38-7.33,2.84-7.33.37-14.76.9-22.12.23-3.24-1.08-6.59-1.69-9.9-.12-.65-.34-1.32-.3-1.96.83-11.4,1.74-22.79,2.5-34.19.12-1.77-.51-3.57-.66-5.37-.5-5.93-.94-11.86-1.4-17.79-.04-.5-.27-1.13-.05-1.47,5.31-8.65-1.83-18.68,3.01-27.37.13-.24.09-.71-.06-.97-5.68-9.87,1.73-18.97,1.84-28.52.03-2.65,2.89-5.16,3.85-7.94.51-1.48.39-4.07-.58-5.03-4.15-4.13-8.83-7.72-13.11-11.74-5.09-4.79-6.8-11.19-7.7-17.83-.31-2.29-.43-4.7-.09-6.97.44-2.87.91-5.96,2.3-8.43,3.07-5.43,6.18-11,10.27-15.63,4.86-5.5,9.21-12.38,18.11-12.27,1.21.02,2.41-.93,3.65-1.29,3.41-.97,6.85-1.89,10.29-2.78.63-.16,1.46.14,1.96-.16,5.18-3.1,10.14-2.54,15.36,1.48,3.45-8.76,9.42-2.97,14.52-3.08,6.74-.15,13.47-.59,20.2-.93.82-.04,1.78-.55,2.44-.28,8.77,3.62,18.55-1.57,27.3,3.19,1.39.76,4.06-1.27,6.13-1.25,5.58.07,11.15.63,16.73.84,2.45.09,5.08.27,7.35-.45,6.25-2,8.73-.92,10.56,5.35.23.77.38,1.57.62,2.56,7.99-.06,10.97,6.61,15.63,11.15,7.4,7.22,15.71,13.61,22.34,21.46,3.22,3.81,10.52,6.14,7.54,14.47-1.22,3.42,1.9,8.39,3.83,12.75,0-1.34.05-2.69-.01-4.03-.12-2.35-.31-4.7-.47-7.05-.53-7.54,5.31-11.38,9.39-16.27,1.47-1.77,3.31-3.54,3.94-5.63,1.11-3.73,2.18-6.97,6.74-7.52.63-.08,1.13-1.43,1.66-2.22,2.63-3.88,5.19-7.79,7.91-11.61.53-.75,1.63-1.59,2.43-1.56,3.14.13,3.59-2.7,5.3-4.09,3.86-3.14,7.4-6.97,13.38-7.03,7.93-.08,15.88.36,23.86-.99,5.47-.93,11.29.16,16.95.35.97.03,2.07.47,2.88.15,13.67-5.36,28.01-3.39,42.08-3.67,9.91-.2,19.84,1.41,29.77,1.48,14.45.1,29.76,9.18,35.04,21.69.67,1.59.66,3.48.88,5.24.11.9-.31,2.08.12,2.7,5.21,7.41,6.67,15.99,4.98,24.33-1.17,5.76-2.66,12.33-8.27,16.37-.93.67-1.3,2.15-1.85,3.29-.56,1.17-.71,3.05-1.6,3.48-8.15,3.94-5.45,11.71-5.61,17.75-.17,6.06,2.48,12.17,3.46,18.32.56,3.49-.37,7.27.45,10.66,1.6,6.59,1.52,13.02.73,19.71-.91,7.74-2.79,16.2-.61,23.23,2.24,7.23-2.06,14.45,2.01,21.12.65,1.06.2,3.54-.66,4.66-3.19,4.17-1.64,8.14-.75,12.57.86,4.32.2,8.96.03,13.45-.06,1.61-1.07,3.25-.88,4.78.71,5.68,1.78,11.32,2.62,16.99.19,1.28.47,3.04-.18,3.86-3.22,4.01-1.77,7.75-.63,12.1.95,3.67-.28,7.87-.32,11.84-.04,4.41.04,8.84.33,13.25.37,5.6,2.43,10.88.05,16.86-1.74,4.38-.99,9.75-1.42,14.67-.2,2.28-.57,4.54-.89,7.02.55.26,1.12.55,1.7.79,7.95,3.29,6.6,3.5,7.9,11.83,1.54,9.84-3.93,17.91-4.32,27.12-.1,2.51-3.08,5.82-5.59,7.12-4.94,2.55-6.78,6.96-8.96,11.36-.44.88-.44,2.28-1.11,2.7-4.29,2.66-8.47,5.76-13.15,7.47-5.58,2.05-11.57,3.16-17.47,4.12-5,.81-10.14.8-15.21,1.21-3.54.28-7.3,1.55-10.57.78-5.65-1.34-11-1.87-16.89-1.49-3.63.24-7.55-2.26-11.36.36-5.04-3.96-10.87-.91-16.23-1.32-7.52-.57-15.69-2.09-22.9,2.69-1.29.85-4.1,1.18-5.1.37-2.77-2.24-5.41-2.06-8.67-1.89-1.93.1-4.1-2.4-5.97-3.96-1.79-1.5-3.14-3.58-5.04-4.87-2.25-1.53-4.9-2.48-7.37-3.68ZM228.99,103.48c-.89-.03-1.78-.06-2.66-.09-.24,1.85-.6,3.69-.68,5.54-.1,2.26.6,4.7-.03,6.76-1.22,4-2.46,7.68.21,11.65.68,1.01.15,2.86.13,4.32-.03,2.34.19,4.73-.23,7-.39,2.08-1.02,5.22-2.38,5.74-1.76.67-4.87-.16-6.42-1.48-1.9-1.62-2.34-4.89-4.19-6.63-3.39-3.18-7.11-7.73-11.1-8.2-10.58-1.24-14.86,2.36-18.49,12.27-2.83,7.72-1.5,11.48,5.42,16.81,1.26.97,1.95,2.94,2.45,4.59.71,2.33,1.42,4.8,1.36,7.19-.06,2.4-.33,5.79-1.85,6.88-1.53,1.1-5.54.83-7-.48-3.52-3.16-7.25-5.09-11.56-7.08-6.14-2.83-10.64,1.32-15.94,1.09-2.04-.09-4.64,1.79-6.21,3.5-5.3,5.77-3.91,19.17,2.29,24.12.71.57,1.9.5,2.77.93,4.21,2.06,8.5,4,12.53,6.37,3.06,1.8,3.76,5.05,1.7,7.75-1.58,2.07-4.19,3.72-6.67,4.65-4.44,1.66-10.08,1.39-10.23,8.34-.02.93-1.1,2.3-2.01,2.67-4.09,1.66-3.83,5.01-3.49,8.36.22,2.13,1.32,4.31,1.05,6.34-.71,5.41,3,6.82,6.76,7.42,11.94,1.91,21.55-2.9,30.1-10.88,1.51-1.41,4.78-2.44,6.46-1.75,1.7.7,3.37,3.76,3.34,5.77-.03,2.8-1.73,5.56-2.56,8.39-1.19,4.06-2.52,8.12-3.25,12.27-.57,3.23-.05,6.64-.52,9.9-.54,3.73,1.99,11.59,4.8,13.48,5.3,3.57,18.64-.82,20.95-6.82,1.6-4.17,3.57-8.22,5.01-12.44,1.78-5.25,6.25-5.07,10.26-5.14,3.89-.06,5.28,2.78,5.28,6.46,0,.78.71,1.63,1.25,2.32,1.76,2.21,3.65,4.32,5.4,6.54,1.08,1.37,1.8,3.07,3.03,4.25,1.95,1.86,4.21,3.41,6.8,5.45.5-.12,1.8-.8,3.04-.69,7.97.72,12.1-3.2,14.12-10.6,1.35-4.96-.99-15.58-4.83-18.88-3.43-2.93-3.96-11.38-.56-14.24,1.32-1.11,3.76-1.81,5.42-1.45,11.24,2.42,22.4,5.17,33.42,7.77,1.14-2.31,2.34-4.73,3.53-7.16,1.06-2.16,2.99-4.35,2.95-6.5-.08-4.75-.15-9.96-2.11-14.09-1.63-3.41-5.56-6.62-9.19-7.95-4.17-1.53-9.14-1.05-13.77-1.14-3.8-.08-6.23-1.64-6.31-5.47-.09-4.09,2.49-5.23,6.39-5.96,6.85-1.29,14.02-2.29,19.42-7.56,5.53-5.41,5.89-8.08,1.87-14.63-.34-.56-.7-1.22-.71-1.83-.07-3.59-1.43-6.32-5.03-7.42-3.08-.94-6.44-2.79-9.3-2.25-6.17,1.18-12.03,3.89-18.16,5.43-2.08.53-5.57.22-6.61-1.11-1.23-1.58-1.26-4.97-.45-7.04.89-2.29,3.24-4.07,5.11-5.91,1.72-1.68,3.37-2.85,1.38-5.76-.93-1.36-.68-4.35.2-5.98,2.87-5.35-.5-9.75-2.15-14.06-1.42-3.72-4.11-7.66-9.71-6.32-1.26.3-2.8-.79-4.25-.99-1.19-.16-2.98-.45-3.57.18-4.5,4.86-11.44,7.71-12.44,15.6-.18,1.43-3.32,3.34-5.17,3.43-1.57.07-4.5-2.04-4.65-3.42-.66-6.18-1.2-12.52-.45-18.64.39-3.19,2.18-5.94.1-9.26-.58-.93.47-2.8.56-4.25.12-1.99.03-3.98.03-5.97Z"/>
</svg>