<svg version="1.1" id="Layer_1" xmlns="http://www.w3.org/2000/svg" xmlns:xlink="http://www.w3.org/1999/xlink" x="0px" y="0px"
	 width="100%" viewBox="0 0 448 448" enable-background="new 0 0 448 448" xml:space="preserve">
<path fill="#000000" opacity="1.000000" stroke="none" 
	d="
M267.783752,175.231110 
	C270.675262,176.083435 272.587891,174.781616 274.567963,173.469940 
	C277.384216,171.604355 280.402771,170.373032 283.895264,171.364090 
	C284.211823,171.453918 284.694977,171.637466 284.855591,171.497040 
	C289.580841,167.365616 294.353638,170.497452 299.109344,171.360931 
	C299.720154,171.471832 300.743195,171.303711 300.902008,171.611862 
	C303.111572,175.898712 305.872864,180.064529 307.113373,184.636017 
	C308.112152,188.316727 305.042694,191.271652 302.360107,193.882507 
	C297.187408,198.916977 290.392426,199.270599 283.916504,200.308380 
	C279.707764,200.982849 276.911163,202.950317 276.519531,207.059891 
	C276.161163,210.819748 278.746918,214.194260 282.121033,214.146515 
	C286.824646,214.079987 291.227997,215.459717 295.801697,215.558029 
	C300.301239,215.654724 304.491730,218.729340 305.304138,221.581482 
	C307.279327,228.515717 311.309235,235.473007 304.568054,243.368179 
	C300.613770,247.999405 298.832336,247.195847 294.113617,246.215988 
	C287.744324,244.893356 281.282593,243.700027 274.851074,242.495636 
	C273.199188,242.186310 271.544464,241.993347 270.102509,241.125168 
	C268.428558,240.117340 266.893921,240.607590 265.355347,241.341980 
	C260.034943,243.881485 258.828979,255.079834 263.695526,258.400543 
	C265.390625,259.557251 266.442627,260.811279 266.715820,262.655029 
	C267.604156,268.649689 269.174774,274.517578 266.560822,280.682129 
	C265.023468,284.307709 262.367096,284.974884 259.339844,285.758270 
	C252.618210,287.497742 245.506378,284.118988 243.092255,277.627228 
	C241.120941,272.326233 236.733231,268.727173 234.105011,263.824585 
	C231.964645,259.832031 222.239716,261.796234 220.278748,266.100128 
	C218.288849,270.467529 216.373825,274.869019 214.416580,279.251343 
	C211.407547,285.988678 202.841263,289.594910 196.110840,286.965088 
	C191.984833,285.352905 189.073837,277.552643 191.261322,272.639771 
	C192.393936,270.096008 192.512299,268.013123 191.475067,265.559113 
	C190.028229,262.136078 190.154144,258.661255 192.242340,255.546432 
	C194.531754,252.131531 195.457642,248.297333 196.272644,244.391388 
	C197.052979,240.651596 195.757019,238.051926 192.301743,236.213516 
	C188.606674,234.247513 186.670944,236.859619 184.618942,238.856674 
	C176.528946,246.730042 167.032700,250.738724 155.704071,249.196320 
	C152.710617,248.788757 149.441910,247.658829 150.409683,243.054520 
	C150.673416,241.799850 149.328049,240.288666 149.131805,238.839600 
	C148.633621,235.161102 147.131989,231.084229 151.992340,228.922943 
	C153.208038,228.382355 153.729767,227.324585 153.850220,226.151505 
	C154.386536,220.928116 158.177521,219.421616 162.469894,218.764496 
	C165.979477,218.227234 168.789993,216.799332 170.795364,213.868408 
	C173.456329,209.979248 172.883774,206.119110 169.050949,203.461212 
	C165.566925,201.045258 162.500076,197.933685 157.630463,198.005432 
	C155.104507,198.042679 152.919754,196.393600 152.580826,193.398117 
	C152.197235,190.007751 147.981140,188.908249 148.366623,184.514771 
	C149.208099,174.924011 152.523163,171.774185 161.927567,170.220505 
	C166.371536,169.486328 170.026413,168.789032 174.504303,170.247833 
	C177.483536,171.218414 179.687332,172.097656 181.721359,174.568420 
	C184.174240,177.547974 187.321381,179.961761 191.725983,177.660675 
	C193.307785,176.834290 194.355728,175.699905 194.990402,174.079895 
	C196.457703,170.334671 192.470245,158.249588 188.944504,156.030899 
	C185.325317,153.753403 183.348770,150.812561 184.881622,146.427856 
	C185.968384,143.319199 186.096207,140.036697 187.404526,136.891510 
	C190.347153,129.817429 200.103226,126.676674 206.390823,131.020691 
	C210.426468,133.808853 213.552261,137.052536 215.654358,141.592865 
	C218.521530,147.785660 222.847839,148.140091 228.437408,142.895325 
	C230.832321,145.467407 233.446075,147.298141 237.385956,145.887527 
	C239.369064,145.177521 240.483490,144.366150 240.872681,142.293213 
	C242.175797,135.352509 247.290726,131.359467 252.673111,127.775085 
	C256.086090,125.502213 267.273468,130.161804 268.992310,134.577698 
	C270.791443,139.199844 272.711670,143.960205 270.081268,148.988403 
	C269.852631,149.425430 269.465515,150.094650 269.630249,150.376114 
	C273.286194,156.622498 267.758575,159.418747 264.998718,163.426010 
	C261.026947,169.193039 261.705170,171.590118 267.783752,175.231110 
z"/>
<path fill="#000000" opacity="1.000000" stroke="none" 
	d="
M26.486036,298.940002 
	C27.710947,303.040802 28.860113,306.779297 29.142246,310.718750 
	C29.189508,311.378662 29.469999,312.309601 29.147097,312.664948 
	C24.629435,317.636444 27.246473,322.766632 28.144732,328.182983 
	C29.081537,333.831818 27.498579,339.765503 28.868515,345.471680 
	C18.330170,351.281311 17.085133,355.892273 17.849655,367.850433 
	C18.407116,376.569824 23.493614,383.650146 24.065186,392.099182 
	C24.357195,396.415710 28.869316,397.793823 30.944588,400.974518 
	C33.116596,404.303497 35.411068,407.751678 40.278107,408.085693 
	C41.743004,408.186249 43.264820,410.110046 44.428020,411.480804 
	C48.791077,416.622437 53.800098,419.277039 60.990059,419.173523 
	C64.854187,419.117859 69.108986,420.793579 73.212883,421.620514 
	C79.427330,422.872742 79.299049,423.509369 84.524849,419.984131 
	C87.512131,422.316711 90.926140,421.797058 94.576675,421.967651 
	C99.893646,422.216125 105.467934,419.945465 110.645805,422.850128 
	C112.580223,423.935272 114.697159,423.788849 116.221924,422.249329 
	C119.039940,419.403961 121.876945,420.480774 125.304359,420.918213 
	C131.937027,421.764801 138.796265,422.476227 145.375992,422.143951 
	C152.410324,421.788696 159.531113,421.647827 166.600281,420.893311 
	C173.562943,420.150177 178.853897,416.892761 184.332474,413.161469 
	C190.521210,408.946503 197.146576,406.807922 205.161377,407.100555 
	C212.859543,407.381592 220.823105,408.362335 228.530243,406.457275 
	C234.062683,405.089813 239.715088,407.915161 245.184341,405.786987 
	C251.320511,410.835419 259.907654,410.264618 266.219391,414.963013 
	C267.478088,415.899933 268.230896,417.048126 268.987335,418.351166 
	C271.140869,422.060669 273.766235,424.629089 278.700592,422.942902 
	C281.024353,422.148804 283.124939,423.561462 285.101898,425.550201 
	C283.304688,426.784271 281.465454,426.345612 279.777924,426.346130 
	C192.968811,426.372650 106.159691,426.373077 19.350574,426.371918 
	C11.657311,426.371796 11.649610,426.358185 11.649533,418.872223 
	C11.648411,308.902649 11.645940,198.933044 11.676912,88.963470 
	C11.677500,86.880836 11.138547,84.682640 12.703683,82.071640 
	C15.149368,85.392738 15.952197,89.055878 17.331102,92.398849 
	C18.175709,94.446480 19.164124,95.837044 21.318836,97.035812 
	C26.079254,99.684265 29.662619,103.923302 33.404095,107.864075 
	C35.070126,109.618843 35.422935,111.212502 33.864147,113.538551 
	C30.059395,119.216103 29.666203,126.032234 28.428316,132.507767 
	C27.425301,137.754669 27.458416,142.990616 27.680862,148.440231 
	C27.989897,156.011185 28.995302,164.253647 27.344303,171.313995 
	C25.914614,177.427856 28.022129,183.500534 25.568932,189.199203 
	C25.335762,189.740845 25.421534,190.584290 25.674091,191.146072 
	C30.053082,200.886795 26.025604,210.746979 26.211311,220.540298 
	C26.346405,227.664490 24.955910,234.800827 26.921993,241.957031 
	C27.819105,245.222397 27.068769,248.906876 27.386200,252.371902 
	C28.068851,259.823517 27.575180,267.092865 25.780458,274.410065 
	C25.074230,277.289398 26.899237,280.756134 26.314154,283.705994 
	C25.311327,288.762054 27.256161,293.615906 26.486036,298.940002 
z"/>
<path fill="#000000" opacity="1.000000" stroke="none" 
	d="
M371.999939,426.370361 
	C344.281647,426.369354 317.063354,426.369354 289.423431,426.369354 
	C291.550751,420.998932 296.152161,420.739929 299.364899,421.082336 
	C304.739502,421.655151 310.206238,421.235657 315.510468,421.540009 
	C320.881561,421.848206 326.731445,423.441528 332.257751,421.558319 
	C333.740204,421.053192 335.142059,420.913147 336.614441,421.525116 
	C339.319275,422.649353 341.993744,422.750519 344.865631,421.835602 
	C346.371368,421.355957 348.549896,421.151093 349.765900,421.896545 
	C357.759705,426.797455 365.886139,423.523102 373.928284,422.536591 
	C377.357300,422.115936 380.994293,421.851624 384.188416,422.043701 
	C391.596527,422.489105 397.749084,418.743286 404.192566,416.810394 
	C409.694672,415.159912 415.022247,410.434845 417.465668,403.985657 
	C418.885193,400.238861 421.273193,397.248230 425.216888,395.426025 
	C428.145782,394.072723 429.551086,391.019379 430.363251,387.881744 
	C431.978241,381.642365 434.158630,375.476715 435.000092,369.133972 
	C435.612000,364.521423 434.849731,359.707001 435.183319,354.933655 
	C435.376984,352.162506 433.263062,349.614868 429.822479,349.410858 
	C427.938202,349.299133 426.219238,348.980530 425.037872,347.211426 
	C427.821808,342.481049 424.752045,337.277344 426.242493,332.265991 
	C426.721375,330.655823 426.278198,328.520599 427.432861,326.820496 
	C430.731018,321.964325 428.741364,316.664703 427.690247,311.977478 
	C426.545074,306.870850 425.391235,302.033966 426.788574,296.933380 
	C428.197510,291.790375 427.996246,286.711823 426.378296,281.712372 
	C425.497559,278.990723 425.396637,276.576324 427.192902,274.171295 
	C428.560730,272.339813 428.998474,270.307983 427.871613,268.083405 
	C426.998322,266.359375 427.158264,264.558807 427.919342,262.789642 
	C428.179504,262.184906 428.649384,261.352295 428.434601,260.909302 
	C425.501343,254.859833 425.991241,248.637939 426.976440,242.250137 
	C427.811279,236.837234 426.498444,231.547073 424.912628,226.362549 
	C424.772095,225.903183 424.640930,225.127197 424.879395,224.911224 
	C432.210846,218.271713 422.717194,209.646744 427.519653,202.740768 
	C423.625488,195.669464 426.735413,187.837234 425.113708,180.605118 
	C424.168976,176.391891 425.640167,172.337448 426.617157,169.134552 
	C428.633514,162.524200 426.106567,156.983124 425.217438,151.092178 
	C424.486084,146.246948 425.463654,141.410706 424.391602,136.514893 
	C423.918182,134.352722 423.398193,132.123825 422.791260,129.960052 
	C421.108673,123.961342 422.278290,117.833542 421.899567,111.777924 
	C421.862457,111.184662 422.192261,110.227264 422.638855,109.997986 
	C426.859314,107.831329 427.107147,102.479225 430.008545,100.041229 
	C433.680237,96.956017 434.566345,92.989525 436.496521,89.333694 
	C437.288269,87.834190 438.043488,86.557365 439.575409,85.695206 
	C440.835266,87.544456 440.322601,89.416626 440.323059,91.168335 
	C440.351105,200.462372 440.348572,309.756409 440.344910,419.050446 
	C440.344666,426.351379 440.330688,426.363861 432.977936,426.366669 
	C412.818604,426.374359 392.659271,426.370575 371.999939,426.370361 
z"/>
<path fill="#000000" opacity="1.000000" stroke="none" 
	d="
M204.190063,54.826607 
	C200.511230,51.254597 197.213013,47.848480 194.302536,44.004349 
	C192.143524,41.152763 189.418259,38.536758 185.583786,37.771084 
	C183.388367,37.332695 182.309967,35.969017 181.634552,33.845512 
	C180.109741,29.051600 176.753616,27.673414 171.886780,28.702377 
	C164.314056,30.303431 156.678818,30.713739 149.083313,28.628323 
	C148.608566,28.497980 148.008194,28.306015 147.613998,28.479128 
	C141.324051,31.241400 135.326279,29.443411 129.318253,27.431486 
	C128.715729,27.229719 127.980820,27.290335 127.330124,27.385246 
	C116.157158,29.014971 104.829262,27.216869 93.650528,28.906324 
	C92.245293,29.118700 90.706314,28.650749 89.260132,28.349827 
	C84.600945,27.380337 79.888115,25.400671 75.708664,29.709488 
	C75.342529,30.086954 73.971855,29.976076 73.403297,29.593451 
	C69.249397,26.797995 65.059059,29.638531 61.139404,29.325613 
	C53.032425,28.678406 47.273857,35.592606 39.416832,34.686981 
	C38.415695,34.571587 36.819469,35.224373 36.299622,36.034847 
	C32.678223,41.680824 25.629116,43.975697 22.900427,50.694389 
	C20.492434,56.623440 15.210761,61.019718 12.861127,67.777191 
	C11.213355,65.865685 11.683816,64.167358 11.677333,62.657017 
	C11.632285,52.161221 11.640885,41.665142 11.653350,31.169174 
	C11.661052,24.683495 11.677705,24.663757 18.323074,24.663479 
	C113.786461,24.659479 209.249847,24.661180 304.713226,24.661572 
	C318.041443,24.661625 331.369629,24.662001 344.697845,24.662218 
	C346.457214,24.662247 348.216614,24.662222 350.392120,24.662222 
	C349.542389,27.053873 348.355682,27.016718 346.959564,26.944515 
	C340.247711,26.597404 333.527740,26.136112 327.094360,28.912739 
	C325.929260,29.415586 324.325287,29.733231 323.192963,29.347189 
	C314.997772,26.553295 307.023346,29.550053 298.949341,29.937174 
	C293.046478,30.220198 287.139282,29.589783 281.191254,30.279753 
	C275.255768,30.968271 271.004517,34.202019 266.922638,38.000034 
	C266.330139,38.551308 266.039246,39.682884 265.398651,39.887222 
	C257.766205,42.321850 256.291107,50.545895 251.362305,54.888271 
	C242.678497,62.538910 238.660919,73.779686 229.619537,80.597878 
	C222.432678,70.745064 212.533661,63.789688 204.190063,54.826607 
z"/>
<path fill="#000000" opacity="1.000000" stroke="none" 
	d="
M414.000061,24.659466 
	C421.662903,24.662798 428.825745,24.678673 435.988556,24.663328 
	C438.315125,24.658346 440.335968,24.821783 440.324890,27.987574 
	C440.278290,41.288937 440.305176,54.590557 440.305176,69.260033 
	C435.743591,64.914291 435.201202,59.913071 434.498077,55.733929 
	C433.384766,49.116714 430.241669,44.287792 425.905579,39.504181 
	C415.841614,28.401514 402.268311,28.607979 389.120819,27.436966 
	C383.446350,26.931559 377.720703,26.058792 371.993286,27.266830 
	C370.912292,27.494837 370.104462,26.811142 369.070953,24.659880 
	C384.237946,24.659880 398.869019,24.659880 414.000061,24.659466 
z"/>
</svg>