<?xml version="1.0" encoding="UTF-8"?>
<svg id="_레이어_1" data-name="레이어_1" xmlns="http://www.w3.org/2000/svg" viewBox="0 0 450 450">
  <defs>
    <style>
      .cls-1 {
        fill: #9b9b9b;
      }
    </style>
  </defs>
  <path class="cls-1" d="M23.81,342.83c2.31-8.13,1.13-17.39-.94-26.66-.28-1.24-.46-2.98.18-3.86,4.86-6.76.66-13.83.89-20.72.15-4.25-.11-8.51-.21-12.76-.04-1.77.28-3.67-.27-5.27-1.55-4.5-3.05-8.61.57-13.12,1.33-1.65,1.01-4.81,1.02-7.29.04-8.6.06-17.2-.23-25.79-.39-11.32-1.38-22.62-1.57-33.94-.11-6.47.98-12.95,1.32-19.44.17-3.34-.16-6.7-.2-10.05-.03-2.82.01-5.65.04-8.48.04-3.97-.4-8.03.28-11.9.97-5.59,2.95-10.99,4.13-16.55.67-3.16.55-6.47.9-9.71.41-3.76,1.19-7.49,1.31-11.25.04-1.22-1.21-3.07-2.36-3.64-10.37-5.12-12.69-14.77-12.99-24.72-.21-6.65,1.17-13.62,3.25-19.99,1.57-4.82,4.67-9.65,8.35-13.16,6.02-5.75,13.06-10.43,19.68-15.56.39-.3.83-.65,1.29-.73,8.28-1.33,16.54-2.98,24.88-3.8,5-.5,10.42-.69,15.13.72,7.64,2.29,15.09,2.05,22.74,1.19,1.05-.12,2.49.33,3.24,1.06,2.33,2.27,4.31,1.64,6.62-.03,3.02-2.18,6.06-2.33,9.16.25,1,.83,2.64,1,4.03,1.24,3,.51,6.01.92,9.03,1.27.94.11,1.93-.04,2.88-.2,1.14-.19,2.34-.92,3.36-.7,5.23,1.09,10.4,2.52,15.64,3.58,1.82.37,4.05.58,5.63-.14,3.39-1.55,6.05-1.03,8.72,1.31,3.25,2.85,6.5,5.73,9.97,8.32,1.38,1.03,3.78.87,4.93,2.03,2.82,2.86,5.17,6.18,7.74,9.29,1.06,1.28,1.97,2.95,3.35,3.66,7,3.6,11,10.08,15.97,15.71,4.27,4.83,1.64,10.1,1.83,15.17.1,2.59-.72,5.22-1.14,7.83-.08.49-.42,1.11-.24,1.45,2.76,5.1,2.65,10.39,2.12,16.06-.52,5.48.65,11.11.76,16.68.07,3.11-.08,6.35-.92,9.3-.61,2.13-2.16,4.76-3.99,5.54-1.54.66-4.15-.86-6.16-1.72-1.69-.73-3.2-1.89-4.8-2.85-1.11-.68-2.65-1.08-3.27-2.07-3.96-6.21-9.67-6.22-15.99-5.14-3.26.56-6.65.39-9.98.5-6.53.21-12.23,1.96-16.33,7.62-1.49,2.05-3.74,3.57-5.7,5.25-6.19,5.31-9.2,11.83-7.9,20.08.1.62-.06,1.36-.31,1.95-4.41,10.74-.76,19.46,6.79,27.21,2.17,2.23,4.24,4.56,6.48,6.71,5.32,5.12,4.15,10.8-2.81,13.27-.93.33-1.9.59-2.33.72-2.36,5.96-5.01,11.4-6.58,17.13-.97,3.56-.3,7.56-.36,11.37-.02,1.31.52,3.02-.1,3.88-4.66,6.37.71,10.25,3.68,14.4,3.89,5.44,7.83,11.12,12.88,15.36,3.59,3.02,8.93,4.84,13.68,5.33,4.94.51,9.91-1.18,14.95,1.53,1.83.98,5.7-.12,7.72-1.57,4.84-3.45,9.24-7.54,13.56-11.65,1.12-1.06,1.57-3.1,1.79-4.76.44-3.41,2.19-5.33,5.57-5.05,3.39.29,5.26,2.62,4.45,5.9-.73,2.94.18,4.43,2.66,5.48,4.76,2.01,9.52,4.02,14.28,6.03,3.72,1.57,7.37,4.19,11.18,4.43,5.45.35,11.06-.8,16.52-1.78,3.05-.55,6.02-1.87,8.86-3.18,1.85-.85,3.45-2.27,5.1-3.51,1.77-1.34,3.45-2.79,5.2-4.15,1.03-.81,3.09-1.64,3.02-2.3-.49-4.95,3.93-7.44,5.2-11.2,1.22-3.62.05-8.03.08-12.08.04-5.39-.47-10.92.58-16.13.78-3.89-1.13-5.92-3.45-6.64-5.14-1.61-6.89-5.28-7.76-10.04-1.33-.08-2.71.23-3.56-.3-1.79-1.12-4.56-2.64-4.62-4.09-.08-1.86,1.68-4.68,3.42-5.55,4.85-2.44,8.08-5.48,11.47-10.2,5.7-7.95,6.28-14.47,3.83-23.53-1.32-4.87-1.73-10.2-3.88-15.02-.46-1.02-.87-2.54-1.67-2.84-5.12-1.91-6.52-5.33-4.12-10.5-15.33-3.44-29.59-9.89-45.87-6.34-2.59,3.05-5.64,7.11-9.23,10.62-1.25,1.22-4.37,2.04-5.66,1.31-1.57-.88-2.99-3.62-2.94-5.51.24-9.61.36-19.3,1.78-28.78.85-5.66-.57-10.36-1.74-15.56-.85-3.81,1.66-8.32.99-12.23-.74-4.32.38-7.66,2.63-10.72,2.47-3.36,5.6-6.24,8.41-9.36,3.77-4.18,7.38-8.52,11.31-12.54,3.96-4.05,8.12-7.91,12.39-11.63,3.14-2.74,6.28-6.36,10-7.34,4.68-1.23,9.46-7.51,14.99-.85,4.08-5.21,9.21-2.48,13.96-2.25,5.8.28,11.6,1.43,17.37,1.2,4-.15,7.63-1.23,11.99-.22,5.14,1.18,10.83-1.89,16.17,2.1,1.75,1.31,5.51.08,8.33-.19,5.28-.51,10.54-1.24,15.83-1.71,2.5-.22,5.05-.23,7.55-.03,2.29.18,4.54.77,6.81,1.18,8.89,1.58,17.73,4,26.67,4.46,7.34.38,8.06,5.5,10.44,10.02,1.36,2.58,3.09,5.05,5.03,7.23,6.99,7.87,12.37,16.09,9.21,27.45-.99,3.57-.05,7.79-1.43,11.11-1.63,3.92-4.67,7.33-7.39,10.72-2.27,2.83-6.31,4.97-7.1,8.04-.9,3.52.51,7.87,1.66,11.63,1.7,5.59,4.82,10.49,2.35,17.09-1.33,3.55.61,8.32,1.08,12.54.18,1.65.67,3.32.53,4.94-.48,5.59-1.18,11.16-1.76,16.74-.06.62-.11,1.4.2,1.88,5.03,7.87.19,15.58-.33,23.35-.07,1.05-.74,2.29-.37,3.1,2.8,6.09,1.47,12.04.73,18.39-.99,8.47-2.71,17.3.83,25.79.55,1.32.85,3.05.49,4.39-1.88,7.12,2.94,14.37-.66,21.55-.72,1.43,1.54,4.09,1.31,6.06-.69,5.99-2.19,11.89-2.83,17.88-.33,3.06.5,6.24.84,9.37.03.3.52.57.5.84-.39,5.83-.76,11.66-1.28,17.48-.12,1.37-1.48,3.09-1,3.98,3.01,5.66,1.84,11.56,1.64,17.46-.04,1.24.57,3.07,1.5,3.69,5.1,3.4,7.61,9.68,5.99,15.54-.7,2.52-1.49,5.11-1.55,7.68-.28,11.16-7,19.86-11.55,29.21-5.47,11.21-16.69,14.9-28.23,16.85-9.26,1.57-18.58,2.81-27.91,3.85-5.86.65-11.81.54-17.7,1-2.18.17-4.31.97-6.46,1.53-.47.12-.91.65-1.34.61-7.65-.63-15.3-1.29-22.95-2-1.77-.17-3.52-.63-5.29-.83-2.22-.25-4.44-.39-6.67-.56-.96-.07-1.93-.13-2.9-.13-4.85,0-9.7.03-14.55.04-1.27,0-2.61-.26-3.8.04-3.43.86-5.63-.35-7.6-3.23-.99-1.45-3.03-2.25-4.7-3.16-1.4-.77-2.95-1.26-4.4-1.93-1.61-.74-3.11-1.92-4.79-2.25-6.25-1.23-11.44-5.65-18.64-4.5-6.39,1.02-13.14-.12-19.72-.35-1.96-.07-3.95-.12-5.86-.53-4-.87-7.96-2.76-11.7.82-.58.55-2.07.7-2.86.37-3.55-1.49-5.73,1.61-8.44,2.16-6.71,1.37-10.31,8.39-17.38,8.59-5.85.17-11.7.43-17.54.8-7.13.45-14.09,2.69-21.45.17-2.41-.82-5.91,2.32-8.93,2.35-9.03.08-18.06-.53-27.09-.78-5.62-.16-11.3.34-16.84-.36-5.32-.67-10.52-2.4-15.72-3.87-4.32-1.22-8.8-2.24-12.77-4.22-7.4-3.69-15.78-5.51-21.4-12.7-2.93-3.75-7.74-6.03-11.65-9.05-.76-.59-1.48-1.43-1.83-2.32-2.98-7.59-6.57-15.04-8.51-22.89-1-4.06,0-9.32,1.86-13.18,1.7-3.49,5.81-5.81,9.83-9.57Z"/>
</svg>