<svg version="1.1" id="Layer_1" xmlns="http://www.w3.org/2000/svg" xmlns:xlink="http://www.w3.org/1999/xlink" x="0px" y="0px"
	 width="100%" viewBox="0 0 448 448" enable-background="new 0 0 448 448" xml:space="preserve">
<path fill="#000000" opacity="1.000000" stroke="none" 
	d="
M298.080109,158.065308 
	C300.045410,161.816559 300.893250,165.226807 300.668701,169.294952 
	C300.454803,173.169464 303.188171,176.837265 302.498230,181.171265 
	C301.883331,185.033783 301.599060,188.798859 297.976318,191.148911 
	C294.984955,193.089401 296.222137,197.438843 292.927277,199.406265 
	C290.831024,200.657944 289.221893,202.421524 286.492767,202.719788 
	C283.337189,203.064651 281.322327,205.190552 281.482849,208.503876 
	C281.642059,211.790222 283.254791,214.464691 286.863495,214.502655 
	C289.937378,214.534988 290.844055,216.170670 291.435913,218.632904 
	C292.016998,221.050262 293.629456,222.559387 295.826965,223.726349 
	C300.762360,226.347260 303.423492,231.628021 301.893616,237.084869 
	C300.248230,242.953690 300.625916,248.712128 301.302338,254.567245 
	C301.582733,256.994629 301.358154,259.333801 299.084808,260.768066 
	C297.392090,261.835999 296.163330,263.842804 296.103729,265.143494 
	C295.770508,272.413269 288.967468,274.211273 284.912476,277.482208 
	C280.149902,281.323883 273.029877,281.848602 266.839294,283.597778 
	C258.900818,285.840790 253.374344,280.649353 246.708725,279.132263 
	C245.260284,278.802612 243.792709,278.551086 242.327148,278.303772 
	C235.768890,277.197144 231.633057,273.155670 230.609634,266.639740 
	C230.116653,263.501099 228.072433,261.597595 225.290878,261.661652 
	C222.492767,261.726074 219.976486,263.189301 219.342575,266.627625 
	C218.267670,272.458008 215.464859,276.598541 209.536240,279.173737 
	C205.122971,281.090759 201.508621,285.262573 196.161118,284.126251 
	C192.837418,283.420013 189.480927,282.908844 186.286758,283.476685 
	C180.549683,284.496552 176.030273,282.236938 171.304733,279.630615 
	C168.570648,278.122681 166.593918,275.630707 165.028717,273.550232 
	C160.826050,267.963989 154.835831,263.752869 152.219421,256.860901 
	C151.371109,254.626328 150.854446,253.175201 152.310699,251.039444 
	C153.479126,249.325851 153.711624,247.297791 153.039688,244.902878 
	C151.171494,238.244278 153.269211,231.998901 156.111115,225.981171 
	C156.175003,225.845886 156.436478,225.793579 156.480759,225.660828 
	C158.038925,220.989822 160.988785,217.963135 165.218246,215.055130 
	C170.514679,211.413467 169.220566,204.510391 163.131607,200.719086 
	C154.004837,195.036316 151.376785,185.989868 149.667984,176.365540 
	C149.449860,175.137039 149.702209,173.628082 150.250504,172.498489 
	C151.718918,169.473251 151.920456,166.510284 152.042618,163.104050 
	C152.215927,158.271896 153.789490,153.062836 157.974915,149.569107 
	C160.384186,147.557983 162.542145,145.166016 164.497253,142.888321 
	C169.390732,137.187469 175.372101,135.223938 182.382111,135.706696 
	C188.313736,136.115158 194.198914,133.651611 200.135239,135.624725 
	C201.196869,135.977585 202.675415,135.529495 203.315613,136.671097 
	C206.060043,141.564880 211.997009,142.151947 215.617920,146.018417 
	C218.433365,149.024780 223.316589,147.340836 224.769073,143.403244 
	C225.336731,141.864410 225.717438,140.256622 226.219131,138.558929 
	C228.187286,139.152695 227.914948,140.418777 227.714752,141.987473 
	C227.328430,145.014725 228.341690,147.586700 231.284363,148.951569 
	C234.402451,150.397781 236.545044,148.774979 238.705078,146.633392 
	C241.036789,144.321594 243.434296,142.098068 244.614975,138.969452 
	C246.500153,133.973984 250.824478,136.660324 253.982651,136.057907 
	C262.188416,134.492676 269.880493,136.861404 277.330017,140.129791 
	C278.507751,140.646515 279.558960,140.213989 280.708649,140.069519 
	C285.101471,139.517471 288.746216,142.330536 289.623322,146.548752 
	C289.995148,148.336823 290.613678,150.429581 292.369720,151.110077 
	C295.566223,152.348785 296.730743,154.964417 298.080109,158.065308 
z"/>
<path fill="#000000" opacity="1.000000" stroke="none" 
	d="
M344.596558,31.449703 
	C342.294647,30.830137 340.457458,30.595745 338.374969,31.093786 
	C335.988281,31.664570 333.359039,31.832790 331.032379,30.625906 
	C328.444489,29.283546 326.139526,29.467043 323.464111,30.672512 
	C317.767090,33.239399 311.730225,32.184803 306.035187,30.832191 
	C300.757172,29.578623 295.722931,28.392330 290.522308,30.643888 
	C289.113770,31.253700 287.897095,30.463228 286.657257,30.179985 
	C281.552032,29.013687 269.248749,33.448521 266.194336,37.674488 
	C265.709717,38.344971 265.311707,39.186832 264.654694,39.607529 
	C255.308411,45.592228 249.214371,54.804432 241.938797,62.795994 
	C239.106735,65.906769 234.612808,66.656219 232.726578,71.339714 
	C230.819397,76.075233 228.878922,80.233757 228.753876,85.696808 
	C228.599457,92.441582 226.990082,99.071808 230.104263,105.573471 
	C230.499527,106.398674 230.413498,107.573151 230.242661,108.530914 
	C229.323441,113.684204 228.541016,118.842987 228.587936,124.168640 
	C226.366592,119.417084 224.972717,114.549599 226.615143,109.328041 
	C227.066589,107.892746 228.224884,106.287621 227.333420,105.074051 
	C221.873718,97.641457 226.309311,89.881958 226.244293,82.271629 
	C226.185303,75.368935 221.575699,70.735268 217.525940,65.672028 
	C212.779465,59.737709 205.033569,56.958443 201.735107,49.365746 
	C200.603546,46.761024 197.150391,44.718548 193.907959,43.118755 
	C189.472260,40.930214 185.563385,37.521362 181.761978,34.248451 
	C178.765121,31.668219 175.910385,31.407066 172.201797,32.391071 
	C165.907181,34.061222 160.021057,30.989094 153.964813,29.926153 
	C153.038040,29.763493 151.809448,28.437515 151.390045,28.703886 
	C145.976242,32.142109 140.741592,27.210058 135.448227,28.507898 
	C134.012512,28.859913 132.987717,28.505686 131.838013,27.571939 
	C128.923401,25.204805 125.763680,25.336088 122.528954,27.048555 
	C121.522850,27.581190 120.089775,28.512140 119.356628,28.172340 
	C110.311028,23.979872 100.198830,29.297293 91.184120,24.884945 
	C88.880867,23.757593 85.920532,25.755482 83.306610,23.529295 
	C84.714813,22.259655 86.375389,22.674559 87.847115,22.674313 
	C203.807541,22.654907 319.768005,22.679111 435.728333,22.579140 
	C440.074036,22.575394 441.517120,23.796267 441.439270,28.229206 
	C441.190613,42.386681 441.367432,56.551353 441.316833,70.713013 
	C441.311859,72.098724 441.907166,73.706909 440.180817,75.157967 
	C439.193390,65.527916 433.958435,58.502430 427.659363,51.976963 
	C425.115021,49.341244 423.523468,45.959873 422.587982,42.366413 
	C421.991455,40.074871 420.591064,38.421978 418.417145,37.760838 
	C408.655731,34.792156 398.706879,32.722691 388.476593,32.407249 
	C385.121857,32.303806 381.847626,32.360329 378.917908,30.317770 
	C378.154541,29.785582 376.650116,29.207279 376.156799,29.567842 
	C371.065460,33.289078 364.981628,32.006260 359.518402,32.250988 
	C354.814789,32.461693 349.701385,33.591690 344.596558,31.449703 
z"/>
<path fill="#000000" opacity="1.000000" stroke="none" 
	d="
M441.349426,409.999146 
	C441.348022,414.665192 441.127563,418.846222 441.406372,422.993713 
	C441.684113,427.125916 440.155853,428.459198 436.009949,428.427979 
	C415.012878,428.269897 394.013824,428.374146 373.015472,428.382843 
	C362.849701,428.387024 352.683838,428.398102 342.518219,428.361237 
	C341.448547,428.357361 340.192108,428.794952 339.240082,427.436981 
	C342.276855,425.119598 345.466156,424.590790 349.332306,424.833496 
	C354.132812,425.134857 359.338074,424.909058 363.796082,423.935028 
	C372.716248,421.985992 381.769653,422.207764 390.633575,420.591797 
	C399.702606,418.938477 408.595978,416.262024 415.823547,410.546631 
	C420.123016,407.146729 422.053101,401.349945 424.802185,396.464020 
	C430.648376,386.073578 433.829895,374.884857 435.355347,363.144470 
	C436.039032,357.882751 432.243561,351.001892 427.006348,348.638367 
	C427.921478,345.334076 426.243774,341.714844 428.246826,338.299713 
	C428.962280,337.079895 428.054993,335.729126 427.541077,334.499908 
	C425.891479,330.554108 426.372070,327.073792 427.500122,322.725067 
	C428.872253,317.435394 429.320312,311.066681 426.789764,305.486816 
	C425.917023,303.562500 425.188171,301.604462 425.731964,299.740540 
	C427.518494,293.617218 426.209534,287.061310 428.815613,281.011810 
	C430.519043,277.057709 429.299408,272.446411 429.183380,268.393921 
	C428.970093,260.944214 430.468536,253.157043 427.346405,245.877686 
	C426.144958,243.076523 426.394958,240.151917 426.497955,237.118622 
	C426.794891,228.373428 427.763733,219.703491 428.613251,211.014664 
	C428.693939,210.189484 428.862854,209.257553 428.584900,208.530334 
	C425.412750,200.230957 429.986176,192.159012 429.306976,183.833282 
	C428.947418,179.426468 427.843170,175.092834 428.062286,170.395081 
	C428.377167,163.642975 429.741241,156.566589 427.649872,149.756638 
	C425.501282,142.760162 430.016510,135.464569 426.662079,128.490585 
	C425.881256,126.867264 425.862366,124.842529 424.959259,123.318794 
	C420.132385,115.174835 423.047791,111.845459 428.001251,106.795609 
	C429.608185,105.157440 431.175964,103.218819 432.818970,101.920296 
	C439.916840,96.310776 436.978394,87.791443 439.644348,80.985298 
	C439.869476,80.410545 439.645416,79.602844 441.349182,79.229546 
	C441.349182,189.440475 441.349182,299.469971 441.349426,409.999146 
z"/>
<path fill="#000000" opacity="1.000000" stroke="none" 
	d="
M10.659933,46.999924 
	C10.663783,40.001003 10.730401,33.501228 10.642417,27.003546 
	C10.604794,24.225153 11.337124,22.628351 14.524999,22.643509 
	C32.354324,22.728289 50.184158,22.703373 68.013771,22.738874 
	C68.470055,22.739784 68.925819,23.004192 69.464447,23.537979 
	C64.474106,24.555153 60.186810,27.790506 54.786472,27.473219 
	C51.189327,27.261877 48.244633,28.248211 45.790630,31.503592 
	C44.232910,33.570004 41.120419,34.474236 38.687893,35.869530 
	C30.797207,40.395615 24.561575,47.189140 21.311914,55.097675 
	C18.675222,61.514469 15.976127,68.509483 16.042057,76.122910 
	C16.097298,82.501900 18.808861,88.039246 19.800182,94.069939 
	C20.488972,98.260193 24.485596,100.719238 27.641342,102.384201 
	C31.510128,104.425339 32.278900,107.751770 31.833344,110.486473 
	C31.148792,114.688072 31.101887,118.882004 30.640762,123.062576 
	C30.182507,127.217102 29.044739,131.199081 27.421806,135.033096 
	C23.867884,143.428894 24.964684,152.505768 24.841400,161.095444 
	C24.748110,167.595154 23.693596,174.186020 24.137667,180.312286 
	C24.614834,186.895142 23.276041,193.432098 24.452362,200.186966 
	C25.524105,206.341339 26.517448,213.236359 24.062483,220.075348 
	C22.749140,223.734009 26.064667,228.480362 25.613857,232.937286 
	C24.554888,243.406830 28.088663,254.245117 23.063475,264.412689 
	C22.583227,265.384369 22.381077,266.728302 22.611177,267.776123 
	C23.675756,272.624054 25.599497,277.029846 23.707962,282.502899 
	C22.032495,287.350800 25.101740,292.653931 25.443993,297.848114 
	C25.776066,302.887787 26.803139,307.742432 23.940039,312.705353 
	C22.223644,315.680573 24.684042,319.416443 24.868448,322.846863 
	C25.089184,326.953003 26.036657,330.945831 26.021498,335.132111 
	C25.999949,341.083191 22.822502,344.956024 18.623594,348.004700 
	C14.967305,350.659393 13.980743,354.199951 13.186575,358.130646 
	C13.034386,358.883942 12.464545,359.552826 12.087384,360.260651 
	C11.611621,360.231445 11.135859,360.202240 10.660096,360.173035 
	C10.660096,255.948654 10.660096,151.724289 10.659933,46.999924 
z"/>
<path fill="#000000" opacity="1.000000" stroke="none" 
	d="
M132.346130,422.367676 
	C136.804199,420.163635 141.022705,420.066162 145.237076,421.744781 
	C147.561493,422.670654 149.694931,422.705536 151.923111,421.467407 
	C154.209595,420.196869 156.789185,420.240723 159.250717,420.604431 
	C166.013107,421.603699 172.617508,420.118958 179.281738,419.578094 
	C179.935669,419.525024 180.788345,419.521088 181.189697,419.127869 
	C185.131638,415.265717 190.528580,413.878906 194.913803,410.913300 
	C197.150436,409.400696 199.046371,408.358337 201.602188,408.591125 
	C203.826050,408.793671 205.887054,408.351227 207.942993,407.579956 
	C209.016220,407.177338 210.334015,406.470978 211.256409,406.772736 
	C218.750305,409.224548 226.448334,407.471039 234.008972,407.762787 
	C240.019531,407.994781 246.114197,411.536407 252.218719,407.496246 
	C254.167618,411.260406 257.853455,411.441467 260.715454,413.048889 
	C265.797241,415.903015 272.316071,416.175964 276.153503,421.362091 
	C276.874054,422.335907 278.336731,423.246338 279.510193,423.318420 
	C285.889771,423.710266 292.285004,423.957733 298.676788,424.008179 
	C305.187103,424.059601 311.796112,422.932129 318.013367,425.810425 
	C320.042633,426.749847 321.922882,426.418671 323.795502,425.615662 
	C328.033234,423.798523 331.851685,425.052216 336.347351,427.194214 
	C333.455658,429.081818 330.779053,428.336761 328.345276,428.338074 
	C239.518372,428.385437 150.691437,428.376038 61.864502,428.373749 
	C46.698910,428.373352 31.531691,428.246918 16.368767,428.447174 
	C12.136762,428.503052 10.503628,427.404297 10.564298,422.865143 
	C10.798144,405.369537 10.645434,387.868896 10.672997,370.370209 
	C10.675277,368.922058 10.301812,367.381012 11.804461,365.265747 
	C14.326342,372.641541 18.822405,378.603058 20.248764,385.881134 
	C20.695995,388.163147 21.483025,390.530212 23.241648,391.367554 
	C27.494053,393.392273 29.638145,397.999817 34.141376,399.587555 
	C36.853954,400.543945 37.860672,403.485107 39.927532,405.304749 
	C46.456451,411.052765 55.441151,411.402405 62.101952,416.672791 
	C64.566498,418.622894 68.503708,417.387543 71.878258,418.511047 
	C76.855751,420.168304 82.268616,421.541565 87.754372,421.062286 
	C89.392075,420.919189 90.596024,421.816132 91.976906,422.318146 
	C93.058517,422.711395 94.329750,423.618195 95.219406,423.341339 
	C102.643562,421.030914 110.237617,423.198792 117.669617,422.252777 
	C119.756363,421.987183 121.437744,422.060791 123.384605,422.922791 
	C126.190002,424.164886 129.196381,424.177124 132.346130,422.367676 
z"/>
</svg>