<?xml version="1.0" encoding="UTF-8"?>
<svg id="_레이어_1" data-name="레이어_1" xmlns="http://www.w3.org/2000/svg" viewBox="0 0 450 450">
  <defs>
    <style>
      .cls-1 {
        fill: #9b9b9b;
      }
    </style>
  </defs>
  <path class="cls-1" d="M280.68,285.85c-6.24-3.05-1.84-12.61-5.25-19.45-.91-1.83-2-3.57-2.91-5.4-.72-1.44-2.27-3.53-1.78-4.35,3.39-5.73-1.13-10.67-1.3-16-.17-5.24-.79-9.69,4.1-13.89,2.98-2.56,3.95-7.51,8.77-8.55.25-.05.6-.48.6-.74.1-6.85,6.38-7.59,10.3-10.79,2.97-2.43,4.72-6.38,9.25-6.71.29-.02.56-.75.79-1.18,1.96-3.83,3.91-7.67,6.25-12.25-.88-1.47-2.46-1.76-5.75-1.09-4.15.84-8.74-.49-13.14-.88-2.28-.2-4.56-.47-6.84-.56-6.83-.26-14.04.81-20.36-1.09-4.43-1.33-9.81-6.1-10.93-10.34-1.65-6.28-6.44-10.49-8.04-16.59-1.23-4.67-4.23-8.85-6.33-13.31-2.65-5.62-5.21-11.29-7.74-16.96-.4-.89-.74-1.94-.67-2.89.81-10.85-1.96-21.39-2.7-32.1-.27-3.89-.09-7.95.81-11.71.43-1.78,3.01-3.09,4.68-4.52,1.21-1.04,3.7-1.99,3.65-2.87-.4-7.37,5.71-9.37,9.97-13.04,4.67-4.01,8.76-8.72,13.5-12.64,4.92-4.07,10.18-7.78,15.59-11.18,2.26-1.43,5.24-2.11,7.96-2.33,6.03-.49,12.1-.4,18.15-.68,8.51-.4,17.01-.94,25.52-1.39,1.15-.06,2.5-.34,3.43.13,7.04,3.54,14.66,1.34,21.94,2.38,3.58.51,7.25.4,10.82.93,3.35.5,6.67,2.32,9.81-.53.11-.1.32-.15.47-.14,8.16.38,16.32.66,24.47,1.19,7.86.52,14.02,5.32,20.14,9.39,3.88,2.58,6.29,7.39,9.33,11.22.18.23.02.8.22.95,9.24,6.78,3.06,17.36,6.21,25.7.64,1.69-.97,4.4-1.93,6.47-2.97,6.43-3.1,14.22-10.01,18.83-2.68,1.79-2.38,4.87-1.2,8.74,2.26,7.43,2.28,15.53,3.24,23.35.41,3.35,1,6.68,1.26,10.05.18,2.33,0,4.69-.14,7.03-.15,2.38-1.49,5.42-.48,7.01,3.11,4.93,1.63,9.49.38,14.31-.49,1.88-.45,3.92-.5,5.89-.18,6.33,1.99,12.48-.17,19.07-1.78,5.45-1.57,11.56-2.11,17.39-.1,1.1.51,2.24.59,3.37.19,2.77.26,5.56.37,8.34.08,2.1.09,4.21.26,6.3.08.98.97,2.14.65,2.85-3.04,6.85,1.59,13.09,1.41,19.67-.17,6.36-.66,12.71-.86,19.07-.22,6.95-.96,13.97-.22,20.83,1.02,9.41-.91,18.29-2.89,27.27-.28,1.26-1.08,3.13-.54,3.72,4.06,4.51,1.37,9.5,1.48,14.29.03,1.18.73,2.73,1.64,3.42,1.77,1.35,3.96,2.15,5.9,3.29,5.91,3.47,6.84,5.85,5.12,12.22-.75,2.77-1.32,5.6-1.97,8.4-.08.32-.08.69-.24.97-3.02,5.05-5.61,9.86-6.02,16.32-.23,3.68-5.76,7.31-9.36,10.44-4.41,3.84-9.23,7.24-14.04,10.57-1.07.74-2.88.33-4.31.64-2.37.53-5.25.55-6.98,1.94-7.3,5.91-15.72,6.39-24.57,7.18-4.98.45-8.94.09-13.01-2.29-.27-.16-.64-.25-.96-.24-5.54.21-11.51,1.85-16.52.34-8.27-2.5-15.86,4.67-23.91.43-1.29-.68-3.53.63-5.34.7-4.27.17-8.56.11-12.83.22-2.91.07-5.87-.06-8.7.49-6.73,1.3-11.8-1.72-17.14-5.22-8.35-5.48-18.19-6.73-27.83-8.29-.32-.05-.72-.08-.98.06-5.35,3-10.9.4-16.33.71-8.45.48-16.84,1.84-25.27,2.66-1.38.13-2.9-.44-4.26-.93-3.27-1.18-5.55-.5-8.84,1.39-4.99,2.87-9.97,7.12-15.02,8.33-8.71,2.09-18.01,2.81-27.37,1.14-5.58-.99-11.63.76-17.48,1.14-2.54.16-5.11,0-7.66-.07-4.19-.12-8.41-.61-12.58-.34-6.13.4-12.02,2.3-18.39-.08-4.76-1.78-10.17-1.91-15.32-2.49-1.1-.12-2.3,1.33-3.51,1.44-2.17.19-4.53.37-6.55-.26-3.08-.96-5.87-2.84-8.92-3.91-4.17-1.45-9.52-.38-11.58-6.1-.27-.74-2.63-.51-3.61-1.27-2.06-1.58-4.23-3.26-5.66-5.37-2.74-4.05-5.08-8.38-7.41-12.68-1.07-1.98-1.7-4.19-2.58-6.28-1.44-3.41-3.03-6.76-4.36-10.22-2.28-5.92-4.32-12-2.51-18.38.43-1.52,2.6-2.95,4.29-3.62,2.6-1.02,3.41-2.37,3.38-5.2-.09-8.08.5-16.17.35-24.25-.08-4.12-1.18-8.21-1.79-12.32-.14-.98-.39-2.02-.21-2.96,1.4-6.93,3.01-13.81,4.27-20.76.34-1.87-.36-3.92-.43-5.89-.33-10.56-.79-21.12-.84-31.68-.03-6.97.55-13.93.84-20.9.03-.66.06-1.35-.1-1.98-2.45-9.21-1.69-18.24,1.25-27.21.32-.98-.19-2.24-.29-3.37-.45-5.15-.94-10.3-1.33-15.45-.41-5.42-1.1-10.86-.93-16.26.11-3.64,1.46-7.25,2.32-10.85.34-1.41,1.49-2.95,1.19-4.15-2.59-10.33,1.54-19.7,3.75-29.38.96-4.21,1.87-8.76,1.23-12.91-.47-3.05-3.21-5.97-5.47-8.45-2.35-2.58-5.44-4.48-8.04-6.86-.91-.84-1.87-2.19-1.9-3.33-.11-4.73.19-9.47.21-14.21,0-1.23-.53-2.46-.65-3.71-.15-1.6-.75-3.57-.06-4.77,4.64-8.13,8.6-16.62,15.66-23.28,8.01-7.55,17.18-11.07,28-11.6,5.24-.25,10.41-2.09,15.64-2.25,4.15-.13,8.32,1.64,12.51,1.78,6.51.23,13.03-.2,19.55-.35.5-.01,1.12-.25,1.48-.04,7.42,4.37,14.9-.45,22.3.28,2.4.24,4.67,1.77,7.69,3,4.53-3.58,10.44-1.61,16.31-.85,3.74.49,7.64,2.28,11.15-.93.52-.47,1.78-.73,2.37-.43,4.09,2.09,8.14,4.29,12.11,6.59,1.2.69,2,2.09,3.22,2.73,3.39,1.76,6.2,3.59,6.26,8.14.02,1.16,2.59,2.37,4.09,3.41,2.24,1.55,4.73,2.78,6.84,4.49,2.94,2.38,5.74,4.97,8.39,7.67,1.76,1.8,3.13,3.98,4.71,5.96.48.6,1.05,1.55,1.62,1.59,5.93.35,5.74,5.38,7.52,9.17,3.22,6.87-.16,13.62.32,20.41.42,5.92,1.07,11.96.35,17.8-.62,5.05-2.32,10.26-4.75,14.74-4.06,7.5-8.6,14.63-9.54,23.41-.46,4.24-2.18,7.92-6.38,10.08-1.68.86-3.36,2.35-4.25,3.98-3.82,6.99-10.42,9.11-17.44,11.08-5.07,1.42-9.8,4.03-14.84,5.59-2.95.91-6.23.72-9.33,1.19-4.17.63-8.32,1.41-12.47,2.13-.16,6.51,4.06,7.85,7.84,9.68,1.71.83,4.29,1.71,4.67,3.08,1.29,4.62,3.85,7.34,8.08,9.74,4.78,2.7,8.75,6.86,12.96,10.51.8.7,1.41,1.92,1.6,2.99,1.07,6.05,3.72,12.49,2.54,18.12-1.56,7.48.33,15.68-3.04,22.21-3.05,5.9-1.62,11.4-2.89,18.23,3.06-1.94,5.15-3.22,7.18-4.58,5.29-3.54,12.13-2.83,17.42-7.23,4.21-3.5,9.97-5.63,15.39-7,3.75-.95,8.1.39,12.17.74,3.74.31,7.49.53,11.2,1.05,1.87.26,4.33.53,5.36,1.76,3.24,3.89,7.34,3.97,11.76,3.93,1.86-.01,4.74.2,5.44,1.35,4.66,7.66,15.38,5.53,17.86,10.79Z"/>
</svg>