<svg version="1.1" id="Layer_1" xmlns="http://www.w3.org/2000/svg" xmlns:xlink="http://www.w3.org/1999/xlink" x="0px" y="0px"
	 width="100%" viewBox="0 0 448 448" enable-background="new 0 0 448 448" xml:space="preserve">
<path fill="#000000" opacity="1.000000" stroke="none" 
	d="
M270.029785,186.553833 
	C278.842163,186.349533 287.286224,183.983063 295.642242,186.911652 
	C298.411896,187.882324 301.157227,187.911789 303.965515,187.099045 
	C305.390320,186.686722 307.015289,186.181503 307.912842,187.931961 
	C308.639099,189.348267 307.802765,190.599411 306.754059,191.446838 
	C304.689026,193.115555 303.529938,195.159363 303.263123,197.804642 
	C303.187775,198.551697 302.735626,199.810165 302.290375,199.888321 
	C295.309662,201.113312 292.880402,209.178574 286.076477,210.613113 
	C285.639648,210.705215 285.125763,211.105164 284.916351,211.503204 
	C280.998627,218.949585 274.462433,224.340759 269.619904,231.054962 
	C267.681641,233.742401 268.146393,236.799240 268.676819,239.733795 
	C269.724854,245.532043 272.648621,251.104172 270.500153,257.266418 
	C270.278076,257.903351 270.661957,259.008667 271.137909,259.592316 
	C276.358765,265.994507 277.161713,273.503082 276.724426,281.745819 
	C272.343384,279.433838 266.880859,279.854187 263.969238,274.617798 
	C263.019318,272.909424 260.528229,272.115509 257.737244,272.821991 
	C253.837265,273.809174 249.983566,273.286713 247.054642,269.614899 
	C245.604477,267.796936 243.169540,266.781952 240.722763,267.719818 
	C238.169724,268.698425 235.848770,268.191498 233.440872,267.406769 
	C226.062576,265.002167 218.920776,264.360077 211.788712,268.709930 
	C206.920532,271.679077 201.438110,274.176147 196.320236,276.009186 
	C191.139709,277.864655 185.736557,279.667847 180.162857,281.846222 
	C178.806595,277.612793 178.261078,273.881592 180.742462,269.832397 
	C183.211411,265.803528 183.085373,261.005524 183.129242,256.390259 
	C183.140121,255.246323 182.327850,253.753967 182.806763,253.007126 
	C188.356491,244.352478 181.051376,235.953125 182.385056,227.395477 
	C182.598114,226.028320 181.623581,224.231369 180.296555,223.589127 
	C173.783020,220.436691 170.453583,213.245926 163.651703,210.578033 
	C161.722321,209.821274 161.292328,208.245300 160.916367,206.725693 
	C159.894775,202.596329 157.617249,200.158890 153.307770,199.195618 
	C149.967300,198.448944 147.095947,196.626114 147.445206,192.216034 
	C150.690109,190.695145 154.304413,189.398590 157.862701,189.798340 
	C163.985565,190.486221 169.598190,188.219528 175.291382,187.114182 
	C179.187881,186.357666 182.939194,183.309235 187.043991,182.251862 
	C196.395218,179.842972 200.142014,170.652985 207.477631,165.751221 
	C209.759827,164.226181 211.658981,160.330231 211.674469,156.560699 
	C211.694168,151.771591 213.507324,147.403580 215.892319,143.423859 
	C219.880768,136.768494 223.052200,129.719925 225.560425,122.468735 
	C227.530228,116.774132 225.961716,110.606064 225.934143,104.647705 
	C225.919662,101.518791 225.931580,98.389748 225.931580,95.266052 
	C227.669876,94.888252 228.486053,95.738747 228.294220,97.058266 
	C227.296097,103.923958 229.153992,110.502350 230.116455,117.173241 
	C230.517014,119.949699 228.263275,122.717995 229.790283,125.432793 
	C233.666168,132.323547 234.553558,140.520187 239.435333,146.981934 
	C242.217056,150.663925 242.995712,155.348724 245.137390,159.433853 
	C247.877655,164.660828 250.295349,170.326492 252.961899,175.440201 
	C255.886154,181.048096 261.799042,186.268967 270.029785,186.553833 
z"/>
<path fill="#000000" opacity="1.000000" stroke="none" 
	d="
M207.238159,59.962379 
	C202.590851,56.372623 200.049286,50.523159 193.566376,50.026329 
	C193.161606,49.995308 192.457382,49.426052 192.464203,49.119930 
	C192.638260,41.295864 185.216080,38.883545 180.866013,35.634663 
	C176.906540,32.677505 171.393860,26.199476 164.224915,31.627291 
	C162.196030,33.163422 159.242889,31.957260 157.070312,31.518585 
	C151.648788,30.423904 146.406677,29.858114 141.041290,31.417902 
	C140.428696,31.595993 139.597092,31.864735 139.140274,31.607061 
	C133.170273,28.239567 126.841331,30.858131 120.744629,30.304998 
	C112.596283,29.565731 104.506088,30.627403 96.446877,30.130211 
	C91.287743,29.811930 85.632050,31.106981 80.651115,27.626406 
	C82.313583,26.102417 84.043213,26.678595 85.592445,26.678165 
	C200.909302,26.646246 316.226166,26.647371 431.543030,26.651955 
	C438.314941,26.652224 438.333801,26.675442 438.334229,33.535297 
	C438.341095,139.187027 438.342682,244.838745 438.345490,350.490479 
	C438.345520,352.137482 438.345490,353.784485 438.345490,356.009460 
	C432.985138,353.660248 429.628113,348.992279 424.419250,347.964935 
	C423.275208,342.044556 425.130188,336.245117 422.311554,330.469788 
	C421.048737,327.882263 422.391693,322.774902 424.348999,320.151917 
	C427.402649,316.059753 426.548187,311.538910 426.102692,307.883514 
	C425.408234,302.185760 427.027405,296.610992 425.954071,291.114319 
	C424.467346,283.500366 427.861969,276.144592 426.172760,268.248413 
	C425.195251,263.679138 427.631622,258.030853 425.968109,252.942017 
	C423.627014,245.780350 425.148529,238.461685 424.921631,231.241104 
	C424.839935,228.640472 425.065582,226.087433 424.344879,223.521988 
	C423.992920,222.269196 423.465027,220.759430 423.849182,219.655655 
	C426.466492,212.134521 424.144562,203.949387 427.236511,196.406799 
	C428.084442,194.338364 426.734314,191.285904 426.552765,188.644714 
	C426.225983,183.890503 425.571930,179.367874 427.414368,174.577179 
	C428.769501,171.053558 428.873291,166.895966 425.836517,163.476883 
	C424.338623,161.790390 424.896729,159.813629 425.930603,157.908020 
	C427.804382,154.454193 427.947510,150.961426 425.663666,147.580276 
	C424.118408,145.292511 424.663116,142.786148 424.901855,140.324051 
	C425.780975,131.257721 425.733826,122.315033 421.329071,113.977554 
	C420.050171,111.556854 421.082916,109.187653 422.793182,108.248276 
	C430.227539,104.164993 429.705383,95.799950 433.353455,89.731552 
	C436.954224,83.741791 433.890961,77.524223 434.124207,71.430946 
	C434.197449,69.516541 433.451996,67.531136 434.211639,65.586014 
	C435.038513,63.468777 434.321167,60.792118 433.164093,59.987965 
	C427.692078,56.184956 426.687531,49.004257 421.421753,45.195450 
	C412.130798,38.475170 402.187897,32.308231 390.494019,33.006092 
	C385.513519,33.303318 380.835114,33.431339 376.024231,32.513672 
	C375.861572,32.482647 375.648529,32.409443 375.533447,32.479023 
	C367.412994,37.387417 358.982056,32.355965 350.740845,32.556931 
	C344.633423,32.705868 337.309174,33.782497 331.134827,30.281334 
	C330.446838,29.891207 329.291809,29.451830 328.780548,29.755190 
	C322.234192,33.639755 315.151123,29.731768 308.432281,31.236237 
	C306.214630,31.732801 303.687653,31.699474 301.477692,31.172333 
	C298.420227,30.443043 295.672852,30.246298 292.827698,31.844099 
	C291.903473,32.363132 290.525513,32.400539 289.423950,32.225349 
	C281.472656,30.960802 275.027679,33.774231 269.516724,39.309898 
	C266.692261,42.147030 262.707977,43.062260 259.598389,45.746506 
	C252.953995,51.482040 247.052246,57.987579 239.950394,63.338978 
	C235.192078,66.924469 234.505539,74.828613 228.234634,78.149879 
	C227.168381,78.714607 227.264206,81.473412 226.758926,83.472733 
	C224.770142,81.416962 224.779221,78.813934 223.932678,76.604904 
	C222.792252,73.628998 221.140976,71.348091 218.002045,70.434097 
	C213.904861,69.241081 214.649521,63.808208 210.743729,62.271328 
	C209.717621,61.867573 208.954453,60.405674 207.238159,59.962379 
z"/>
<path fill="#000000" opacity="1.000000" stroke="none" 
	d="
M23.372383,185.254272 
	C23.178053,189.388458 23.372042,193.057190 25.327427,196.313629 
	C26.222185,197.803741 25.963070,199.097656 25.598402,200.587402 
	C23.635925,208.604431 22.898409,216.465057 23.707426,224.959885 
	C24.387835,232.104294 26.566713,239.752686 23.707497,247.179428 
	C23.136473,248.662643 24.181524,250.719070 24.295368,252.522919 
	C24.999594,263.681244 23.175922,274.862885 24.892471,286.064667 
	C25.314491,288.818726 23.730122,292.089722 23.164120,295.144379 
	C22.432999,299.090149 23.516588,303.455994 20.846563,307.073792 
	C20.356789,307.737396 20.335903,309.107483 20.649073,309.945862 
	C23.010448,316.267426 23.745007,323.286407 22.750046,329.384613 
	C21.767633,335.405914 23.170017,341.092773 22.441885,346.907410 
	C22.099524,349.641388 21.061584,351.369171 18.658241,352.107971 
	C16.860411,352.660614 15.454520,353.502350 14.692057,355.578949 
	C13.129104,353.414276 13.682780,351.545197 13.682241,349.816467 
	C13.649364,244.372314 13.650841,138.928162 13.654444,33.484016 
	C13.654676,26.672789 13.674178,26.656780 20.507910,26.653145 
	C37.332321,26.644196 54.156796,26.632488 70.981056,26.683842 
	C72.522560,26.688549 74.253113,26.076920 75.922363,27.701895 
	C72.591988,28.857492 69.386894,29.695444 66.154144,29.533916 
	C59.599609,29.206406 53.471607,31.419127 47.126549,32.291302 
	C39.961399,33.276211 35.754833,38.990673 30.685377,43.252678 
	C29.190483,44.509460 28.280901,46.544319 26.687378,47.587727 
	C19.819983,52.084343 19.194654,60.199265 16.378077,66.690269 
	C14.788153,70.354355 16.618879,76.174171 16.661531,81.054291 
	C16.678257,82.968208 17.323458,84.819466 16.607059,86.815498 
	C16.001995,88.501335 16.808531,90.954384 17.761755,91.423485 
	C24.463215,94.721497 26.619442,102.110115 31.799950,106.438667 
	C31.024168,117.525841 28.663092,128.185791 25.491352,138.687561 
	C25.258198,139.459534 25.195847,140.389862 25.385096,141.165848 
	C26.983541,147.719772 26.012980,153.933823 23.121521,159.939713 
	C22.611032,161.000061 22.113335,162.300171 22.900831,163.279465 
	C25.249916,166.200638 23.985399,169.575516 24.471409,172.722336 
	C25.124199,176.949036 24.087713,180.825409 23.372383,185.254272 
z"/>
<path fill="#000000" opacity="1.000000" stroke="none" 
	d="
M282.999817,425.355225 
	C220.192932,425.351929 157.886063,425.351929 95.579185,425.351929 
	C95.565331,424.756683 95.551483,424.161469 95.537628,423.566223 
	C103.329231,424.191162 110.809898,420.192535 118.709465,422.643219 
	C122.004799,423.665527 125.029266,423.421600 128.418762,422.437683 
	C133.815109,420.871277 139.676285,421.242188 145.096283,421.933472 
	C153.612091,423.019653 161.911789,421.092957 170.322021,421.472656 
	C171.823334,421.540466 174.323273,420.733429 174.758713,419.672363 
	C177.327362,413.413269 184.829346,415.424377 188.468399,411.129761 
	C188.875809,410.648926 190.200348,410.451111 190.829575,410.730377 
	C195.938126,412.997986 201.208328,410.783722 206.369675,411.390930 
	C207.608337,411.536713 208.986435,411.101105 210.209763,410.673523 
	C217.151840,408.246979 224.165009,408.691711 231.172882,410.157745 
	C232.697968,410.476776 234.130295,410.795410 235.534790,410.095490 
	C239.965912,407.887360 244.329849,408.685913 249.006241,409.527161 
	C256.715973,410.914124 264.089050,413.310211 270.670837,417.215942 
	C274.340027,419.393280 277.207428,422.436737 281.958313,421.787811 
	C290.362427,420.639893 298.870514,422.960358 307.242554,421.216064 
	C309.914124,420.659454 312.600952,420.323273 315.157135,420.867554 
	C319.571869,421.807526 323.849792,423.331757 327.630768,419.309265 
	C328.057556,418.855225 329.360382,418.707367 329.955627,419.010101 
	C335.120300,421.636597 340.699921,419.799164 346.044006,420.365356 
	C351.344604,420.927032 356.404938,420.978760 361.763062,422.573883 
	C365.853363,423.791626 371.415100,423.132050 376.138184,422.169037 
	C379.994324,421.382751 383.638214,419.534668 387.709015,419.518585 
	C388.026367,419.517334 388.461090,419.433044 388.642517,419.218933 
	C392.752686,414.369019 398.888153,414.408691 404.129669,412.245239 
	C411.147247,409.348602 417.817139,404.511871 422.303558,397.819305 
	C423.369843,396.228699 424.420319,394.802429 426.021606,394.012482 
	C429.164124,392.462189 429.615112,389.626984 429.134033,386.881714 
	C428.541656,383.501373 428.158173,380.720825 431.910370,378.881500 
	C433.245392,378.227051 433.339203,376.405762 433.683624,374.916290 
	C434.755188,370.282074 436.001190,365.688202 437.293884,360.631470 
	C438.705933,362.178040 438.323486,363.673462 438.325714,365.000793 
	C438.356293,383.166870 438.218811,401.334595 438.435272,419.498138 
	C438.489594,424.056702 437.102051,425.460114 432.494263,425.446594 
	C382.829803,425.300812 333.164734,425.357330 282.999817,425.355225 
z"/>
<path fill="#000000" opacity="1.000000" stroke="none" 
	d="
M13.650064,393.999939 
	C13.649611,384.365204 13.649611,375.230469 13.649611,366.095764 
	C14.074190,365.982513 14.498769,365.869263 14.923347,365.756012 
	C15.955960,371.561249 19.920021,376.207520 21.083744,381.728699 
	C22.501442,388.454956 26.287271,393.828461 29.348862,399.619507 
	C30.262638,401.347900 31.329889,403.005005 32.070908,404.849060 
	C32.495224,405.904938 32.956726,407.582642 33.707035,407.772461 
	C41.307217,409.694977 45.735840,418.185974 54.522308,417.675140 
	C56.815544,417.541809 58.881477,418.655090 60.832195,420.168884 
	C63.424442,422.180511 66.477409,423.032898 69.636459,421.026489 
	C70.056564,420.759644 70.562607,420.316071 70.963570,420.377869 
	C77.332832,421.359650 83.691437,422.410553 90.418549,423.505280 
	C88.980934,426.056183 87.313927,425.346375 85.990639,425.348907 
	C63.826538,425.391052 41.661289,425.257874 19.498966,425.458618 
	C14.896215,425.500305 13.400504,424.057373 13.567364,419.493958 
	C13.871629,411.172729 13.651739,402.832336 13.650064,393.999939 
z"/>
</svg>