<?xml version="1.0" encoding="UTF-8"?>
<svg id="_레이어_1" data-name="레이어_1" xmlns="http://www.w3.org/2000/svg" viewBox="0 0 450 450">
  <defs>
    <style>
      .cls-1 {
        fill: #9b9b9b;
      }
    </style>
  </defs>
  <path class="cls-1" d="M423.79,170.51c8.2,3.51,5.55,11.1,4.51,15.3-1.46,5.94.69,11.05.14,16.41-.7,6.79,2.94,13.62-.86,20.4-2.03,3.62-.76,7.37.29,11.59,1.23,4.91,1.14,11.12-2.07,16.54-1.36,2.3-1.2,6.42-.12,9.05,2.85,6.99-1.46,13.18-1.26,19.79.03,1.11-.96,2.76-.49,3.27,6.32,7.03-1.63,15.21,1.89,22.43.3.61.13,1.93-.34,2.37-3.03,2.88-1.68,6.4-1.73,9.75-.18,10.71-.47,21.42-.69,32.13,0,.46.23.92.48,1.83,1.77-.15,3.52-.37,5.28-.44,4.62-.18,6.99,3.52,5.12,7.62-2.53,5.54-5.88,10.86-4.24,17.53.31,1.25-1.23,2.9-1.73,4.42-.99,2.99-1.82,6.04-2.78,9.05-.44,1.38-.74,3.65-1.59,3.91-4.21,1.28-4.35,5.26-6.28,8.08-1.35,1.96-3.96,3.08-6.07,4.47-.65.43-1.76.28-2.25.79-6.07,6.42-13.96,7.96-22.26,9.05-6.29.83-12.38,3.11-18.66,3.93-3.25.42-6.71-1.15-10.11-1.46-3.51-.33-7.06-.28-10.59-.28-.96,0-2.08.87-2.86.59-7.33-2.68-14.88-2.21-22.44-1.86-.63.03-1.67-.58-1.85-.35-4.11,5.15-8.87,2.15-13.65,1.47-5.26-.76-9.95,1.37-14.84,3.51-3.42,1.49-8.25.6-12.23-.23-4.22-.88-7.9-2.23-11.72-5.78-5.78-5.37-13.81-9.31-22.8-8.33-1.73.19-3.71.18-5.27-.46-8.45-3.45-17.09-4.77-26.21-3.84-4.18.43-8.47.06-12.69-.27-7.5-.58-12.22,3.58-16.6,8.86-1.53,1.84-3.78,3.24-5.94,4.39-6.7,3.54-13.91,2.84-21.11,2.3-1.19-.09-2.42.78-3.65.88-2.42.21-4.98.71-7.25.16-4.86-1.18-9.34-1.81-14.27.34-2.95,1.28-6.69.97-10.08.93-5.96-.06-11.92-.42-17.87-.73-4.73-.25-9.45-.88-14.17-.84-3.75.03-8.03,2.16-11.13.96-5.47-2.13-10.72-2.97-16.5-2.86-2.54.05-5.19-1.75-7.65-2.98-1.57-.79-2.9-2.07-4.33-3.15-1.72-1.31-3.45-2.6-5.14-3.95-2.11-1.7-4.47-3.2-6.21-5.23-4.24-4.94-8.12-10.19-12.26-15.22-6.76-8.24-9.89-17.95-11.01-28.28-1.28-11.75-.38-10.28,10.98-12.33.78-9.4,1.62-18.63,2.26-27.86.3-4.29.05-8.61.32-12.91.22-3.54.89-7.05,1.22-10.58.12-1.29-.03-2.64-.28-3.92-.15-.78-1.14-1.54-1.04-2.2.87-5.53-1.2-10.64-1.86-15.93-1.05-8.37-.26-16.98-.17-25.49.02-1.62.56-3.24.54-4.85-.03-2.77-.22-5.54-.55-8.29-.13-1.1-1.29-2.16-1.2-3.17.45-5.44.7-10.97,1.94-16.25.59-2.5.22-3.99-.59-6.26-1.17-3.25-2.28-7.74-.91-10.43,2.6-5.13.08-10.15,1.37-15.12.65-2.51-.62-5.48-.85-8.25-.26-3.19-.81-6.46-.36-9.57.47-3.23.34-6.77.85-9.48,1.01-5.39-.96-10.41.03-15.53,1.12-5.83,2.12-11.69,3.22-17.53.15-.8.42-1.63.85-2.31,3.77-6.01,3.4-14.37-2.48-18.55-5.91-4.2-6.37-10.99-10.13-16.05-3.94-5.3-.39-11.55-2.32-17.12-.29-.84.36-2.7,1.11-3.1,3.95-2.16,3.51-5.88,3.86-9.4.11-1.11.39-2.47,1.11-3.21,5.73-5.94,11.44-11.9,17.46-17.54,2.45-2.29,5.64-3.8,8.53-5.61.54-.34,1.27-.6,1.89-.56,5.98.37,11.95,1.04,17.93,1.15,4.84.09,9.7-.58,14.55-.73,4.82-.15,9.65-.07,14.48-.09,7.66-.04,15.32-.09,22.98-.16.48,0,1.11-.49,1.42-.32,5,2.8,10.15.39,15.19.66,7.37.4,14.66,2.07,22.02,2.98,1.5.19,3.12-.88,4.67-.86,2.63.03,5.27.42,7.88.79.58.08,1.1.97,1.65.97,14.3.19,20.55,11.55,28.59,20.46.92,1.01,2.2,1.69,3.27,2.57,1.36,1.12,2.66,2.31,4,3.45,4.75,4.05,7.58,9.42,11.04,14.41,3.23,4.65,4.38,8.25,4.41,13.56.06,9.37,1.59,18.73,1.65,28.1.02,3.38-2.4,6.79-3.78,10.15-.15.37-1.04.44-1.19.81-3.91,9.64-13.23,14.02-20.1,20.79-4.5,4.44-9.99,8.36-13.01,13.66-3.24,5.7-10.35,8.42-11.25,15.65-.11.9-1.77,1.51-2.28,2.48-.8,1.51-1.33,3.2-1.81,4.86-.68,2.36-1.1,4.79-1.82,7.13-1.04,3.36-2.39,6.64-3.38,10.01-1.12,3.84-2.82,7.52-.6,11.83.79,1.54-1.74,4.56-1.25,6.53,1.87,7.44,4.24,14.76,6.7,22.03.71,2.12,2.14,4.09,3.6,5.83,1.26,1.51,2.97,2.65,4.58,3.84.77.57,2.28.63,2.56,1.3,2.81,6.68,10.28,7.82,14.71,12.54.63.67,1.65,1.11,2.57,1.37,10.47,3,21.22,3.85,32.05,3.95,3.85.03,7.72.24,11.54-.08,1.9-.16,4.45-.78,5.45-2.12,5.78-7.83,17.46-8.78,21.52-18.18,3.24-7.5,11.05-12.46,11.13-21.79.04-4.33,2.32-8.61,3.33-12.98.42-1.79.19-3.73.22-5.61.03-2.13-.7-4.65.18-6.32,2.37-4.45,1.7-8.54.06-12.88-1.53-4.03-2.09-8.61-4.33-12.15-3.35-5.31-7.76-9.95-11.78-14.83-2.86-3.47-5.72-6.96-8.78-10.25-2.01-2.17-4.48-3.91-6.58-6.01-3.65-3.62-7.18-7.37-10.76-11.06-.23-.24-.56-.39-.75-.65-3.04-3.91-5.89-7.92-9.13-11.72-6.71-7.88-5.04-18.53-6.01-28.03-.35-3.47.87-6.95-.61-10.91-.85-2.27,1.25-6.48,3.21-8.8,5.67-6.71,11.9-12.95,18-19.29,4.53-4.71,8.3-9.93,12.17-15.15,2.45-3.31,6.1-6.02,8.24-10.08.71-1.34,3.78-2.07,5.73-1.99,6.38.28,12.74,1.06,19.11,1.64.33.03.77.14.97-.02,5.31-4.35,11.09-.17,16.59-.93,1.8-.25,3.59-.51,5.38-.84,1.13-.2,2.6-1.13,3.31-.7,6.49,3.85,12.69-1.88,18.6-.65,6.64,1.39,12.69,1.7,19.37.34,5.32-1.09,11.1-.22,16.66.13,9.53.61,19.31-1.79,28.54,1.71,3.52,1.34,6.7,3.91,9.63,6.4,4,3.4,8.24,6.82,11.23,11.05,3.87,5.46,6.62,11.7,9.8,17.64.53,1,1.24,2.2,1.1,3.21-1.16,8.82-1.84,17.8-4.09,26.35-.97,3.67-5.11,6.68-8.18,9.6-5.09,4.85-5.54,9.53-2.46,15.91,3.02,6.25,6,12.52,4.32,20.25-.97,4.46.41,9.6,1.41,14.29,1.13,5.3,2.48,10.39-2.03,15.65Z"/>
</svg>