<svg version="1.1" id="Layer_1" xmlns="http://www.w3.org/2000/svg" xmlns:xlink="http://www.w3.org/1999/xlink" x="0px" y="0px"
	 width="100%" viewBox="0 0 450 450" enable-background="new 0 0 450 450" xml:space="preserve">
<path fill="#FFFFFF" opacity="1.000000" stroke="none" 
	d="
M451.000000,120.000000 
	C451.000000,230.636093 451.000000,340.772186 451.000000,450.954132 
	C301.072235,450.954132 151.144440,450.954132 1.108325,450.954132 
	C1.108325,301.113922 1.108325,151.227737 1.108325,1.170780 
	C150.999832,1.170780 300.999908,1.170780 451.000000,1.170780 
	C451.000000,40.522259 451.000000,80.011131 451.000000,120.000000 
M437.995789,64.961693 
	C437.995789,52.042751 437.995789,39.123810 437.995789,26.049660 
	C422.289520,26.049660 407.158234,26.049660 391.171326,25.971346 
	C389.739716,26.000393 388.308136,26.029442 385.956207,26.004103 
	C377.000793,26.016014 368.045380,26.027924 358.242798,25.985123 
	C357.111420,26.014826 355.980011,26.044531 353.951477,26.005320 
	C350.330902,26.016861 346.710358,26.028402 342.227905,25.983068 
	C340.788971,26.002205 339.350067,26.021341 336.985748,26.002842 
	C229.398010,26.002842 121.810272,26.002842 14.219045,26.002842 
	C14.106432,27.043268 14.009137,27.522182 14.009179,28.001089 
	C14.018437,135.325546 14.034527,242.649994 13.979507,350.902313 
	C14.003152,354.943390 14.026796,358.984467 14.003530,363.961823 
	C14.003530,384.224731 14.003530,404.487640 14.003530,424.947083 
	C105.320404,424.947083 196.101700,424.947083 287.760406,424.988159 
	C289.224060,424.967377 290.687714,424.946594 293.067322,424.994812 
	C341.309479,424.994812 389.551636,424.994812 438.000000,424.994812 
	C438.000000,422.606964 438.000000,420.793365 438.000000,418.979767 
	C438.000000,380.161804 438.007202,341.343842 437.998474,302.525879 
	C437.981415,226.390076 437.955505,150.254257 437.974762,73.204498 
	C437.963135,70.764000 437.951508,68.323494 437.995789,64.961693 
z"/>
<path fill="#E0E0E0" opacity="1.000000" stroke="none" 
	d="
M354.848633,26.074234 
	C355.980011,26.044531 357.111420,26.014826 358.806854,26.422245 
	C365.122223,26.907982 370.899536,26.643759 376.615326,27.119415 
	C380.196899,27.417469 383.709900,29.087887 386.876526,26.058491 
	C388.308136,26.029442 389.739716,26.000393 391.746063,26.399170 
	C397.484100,27.869993 404.250275,27.257629 407.436249,30.342655 
	C412.255859,35.009552 419.786163,35.355568 423.161957,42.970818 
	C425.533051,48.319580 430.401489,53.198647 433.407166,58.825821 
	C434.720154,61.283936 436.417236,63.536877 437.939880,65.882996 
	C437.951508,68.323494 437.963135,70.764000 437.583099,73.770576 
	C436.796326,76.385445 435.858154,78.500725 436.099396,80.471619 
	C437.188263,89.366577 431.008362,102.104431 423.336517,105.989182 
	C420.101776,107.627136 419.650482,109.952271 420.936707,113.165131 
	C422.441345,116.923576 423.614929,120.813507 424.974762,124.631210 
	C427.032898,130.409134 428.423065,135.944550 427.309509,142.478455 
	C426.364838,148.021698 428.526917,154.046249 428.925232,159.884354 
	C429.169067,163.458633 428.678986,167.082993 428.491211,171.297211 
	C429.012146,171.932053 431.148987,173.381989 431.453308,175.147781 
	C432.082642,178.799164 432.961731,183.196869 431.524384,186.243057 
	C428.908844,191.786148 430.829803,196.861023 431.014252,202.145416 
	C431.110535,204.903641 430.055603,208.237228 431.255005,210.304764 
	C433.419861,214.036484 432.543518,216.752457 431.005035,220.211807 
	C429.552094,223.478699 427.263428,228.994308 428.620728,230.437454 
	C434.527527,236.717911 429.640747,242.997345 429.955078,249.151230 
	C429.997192,249.975708 429.168304,250.823212 428.830536,251.694107 
	C428.430695,252.725021 427.906281,253.774460 427.816406,254.847733 
	C427.297424,261.042542 430.937897,266.801300 427.748718,273.732544 
	C426.154968,277.196289 424.893188,284.096191 429.206146,288.859497 
	C429.935089,289.664551 429.321259,291.781708 429.161926,293.274963 
	C428.817993,296.497864 427.219727,300.132416 428.215393,302.830750 
	C429.900757,307.398102 427.610809,309.799133 425.992950,311.844788 
	C425.992950,325.381348 425.992950,338.169434 425.992950,349.502350 
	C429.835419,350.514252 433.829193,350.399719 435.070923,352.191956 
	C436.580780,354.371124 436.852783,358.634857 435.741608,361.148651 
	C433.401428,366.442657 431.618225,371.597198 431.927032,377.445648 
	C432.006744,378.955292 431.693298,380.892761 430.778076,381.967468 
	C428.523102,384.615295 427.250580,387.226715 427.888672,390.850006 
	C428.139771,392.275482 427.424652,395.037750 426.567688,395.301605 
	C421.176605,396.961578 421.266907,402.823120 417.936310,405.795898 
	C415.711578,407.781586 412.185852,408.261139 409.807953,410.133148 
	C403.605927,415.015717 396.531708,417.044006 388.882629,417.965576 
	C384.890778,418.446503 380.458679,418.681183 377.143585,420.607330 
	C371.578156,423.840942 366.465942,423.036469 360.964111,421.364502 
	C358.810181,420.709961 356.550812,420.141968 354.319977,420.058868 
	C350.474609,419.915588 346.488922,420.844116 342.785095,420.143677 
	C334.330139,418.544739 326.107666,418.622467 317.821320,420.959045 
	C315.986176,421.476562 313.857391,421.205872 311.898682,420.986603 
	C304.878540,420.200745 297.947754,419.657074 292.151367,424.925781 
	C290.687714,424.946594 289.224060,424.967377 287.183838,424.572754 
	C279.825104,422.826447 271.253662,425.843903 267.772949,416.410309 
	C267.674011,416.142151 266.854004,416.195374 266.426788,415.984314 
	C263.132355,414.356628 259.968140,412.374512 256.532745,411.149750 
	C253.409470,410.036255 250.013596,409.622223 246.704941,409.114655 
	C244.135345,408.720490 241.342468,409.166687 238.948090,408.355743 
	C230.174179,405.384003 221.259125,404.201691 212.039642,404.997711 
	C209.901688,405.182312 207.661316,405.339172 205.589218,404.915894 
	C198.788437,403.526611 193.770813,406.239410 188.587219,410.432983 
	C185.627350,412.827545 185.428299,417.799561 180.231232,418.140228 
	C173.467728,418.583496 166.771179,420.007538 160.035614,420.935425 
	C156.829208,421.377106 153.586975,421.998169 150.383652,421.886627 
	C147.727463,421.794189 145.132889,420.420532 142.461121,420.188202 
	C136.130936,419.637634 130.380280,423.365204 123.670807,422.279053 
	C118.910629,421.508453 113.734306,423.350311 108.736191,423.964783 
	C107.943222,424.062256 107.100258,423.893127 106.297752,423.750092 
	C101.235878,422.847870 96.205215,421.702332 91.110100,421.081329 
	C88.207596,420.727539 84.702805,420.269653 82.344727,421.515625 
	C76.965897,424.357758 73.833633,422.328186 72.048538,419.332489 
	C67.282234,419.037598 63.519482,419.320740 60.027920,418.479004 
	C53.225872,416.839081 48.597702,411.218109 42.572662,408.067657 
	C41.369987,407.438782 39.832752,407.048767 39.057705,406.068115 
	C34.026485,399.702423 29.176037,393.194183 24.234707,386.756897 
	C23.224049,385.440308 21.640694,384.396942 21.073618,382.935669 
	C18.902304,377.340668 17.037003,371.626923 15.059134,365.956909 
	C14.718778,364.981201 14.386469,364.002747 14.050442,363.025543 
	C14.026796,358.984467 14.003152,354.943390 14.381346,350.328461 
	C15.188440,346.152649 18.276543,346.731781 20.561970,345.953400 
	C22.117062,345.423798 24.587637,344.800171 24.853693,343.759552 
	C25.889242,339.709412 26.521067,335.491302 26.724852,331.307495 
	C27.090349,323.803467 26.843813,316.269165 27.227530,308.766663 
	C27.492126,303.593201 28.418221,298.455231 28.967569,293.292786 
	C29.049746,292.520538 28.620308,291.707458 28.541561,290.902130 
	C28.220390,287.617645 27.943529,284.328888 27.534967,279.748169 
	C21.873531,276.227783 27.786337,268.730957 25.072523,263.106262 
	C29.012339,255.277512 22.961136,246.649017 27.015776,238.829453 
	C23.721350,233.155914 25.883953,227.187851 25.628782,221.316742 
	C25.391571,215.858810 28.274834,210.205978 25.076277,204.806091 
	C24.302137,203.499176 24.316639,201.670029 24.171886,200.062714 
	C24.055410,198.769409 23.708431,196.948700 24.386236,196.219681 
	C29.338943,190.892624 24.166546,184.236160 26.903027,178.702789 
	C21.098799,170.805038 27.668455,162.001572 25.158564,153.780289 
	C24.708912,152.307434 27.311378,149.614929 26.687714,148.530167 
	C22.893515,141.930786 27.300917,135.752304 27.652712,129.504120 
	C27.911217,124.912827 28.278450,118.954704 33.127758,115.392715 
	C33.653336,115.006660 33.482243,112.954636 32.986706,112.017982 
	C30.618713,107.542023 28.781889,103.129211 24.567823,99.330978 
	C20.252491,95.441467 17.980692,88.671974 16.224960,82.745216 
	C14.765892,77.819885 15.204541,72.290108 15.138450,67.023872 
	C15.121760,65.694000 16.114624,63.486294 17.116434,63.167377 
	C20.421267,62.115307 19.865629,59.749081 20.072941,57.315422 
	C20.275484,54.937782 20.597359,50.815784 21.651106,50.548222 
	C28.809011,48.730736 30.204576,41.438015 34.962643,37.411156 
	C39.751125,33.358551 44.453072,28.714436 50.357948,27.343851 
	C55.559643,26.136482 61.401840,27.724630 66.964424,28.016790 
	C68.953102,28.121243 70.958382,28.156818 72.943581,28.029221 
	C77.208321,27.755108 81.469933,27.012947 85.723862,27.075163 
	C95.265442,27.214712 104.799759,27.793257 114.340797,28.056839 
	C118.036118,28.158924 121.742355,27.914213 125.442223,27.786953 
	C127.986526,27.699440 130.529526,27.560308 133.070923,27.407755 
	C134.211029,27.339314 135.369110,26.974684 136.479019,27.099688 
	C141.622375,27.678953 146.738556,28.521351 151.889084,29.010355 
	C160.033859,29.783640 168.188751,30.538679 176.357071,30.950768 
	C184.502914,31.361723 189.190018,37.482296 194.736298,41.914726 
	C199.563354,45.772385 203.359863,50.897228 207.784119,55.288467 
	C211.260178,58.738583 215.129868,61.796799 218.539825,65.305923 
	C219.530457,66.325340 219.404770,68.356262 220.034073,69.818840 
	C220.799438,71.597610 221.587555,73.458954 222.798447,74.927994 
	C224.037323,76.431007 225.799637,77.502586 226.912003,78.417061 
	C228.597214,76.790123 230.438370,75.140762 232.130676,73.350677 
	C235.132614,70.175316 238.089554,66.954575 240.982147,63.679394 
	C244.604401,59.578072 248.125809,55.387848 251.726059,51.266838 
	C253.102203,49.691612 254.725281,48.313168 255.969833,46.646435 
	C257.796082,44.200722 258.851685,40.355480 261.204254,39.331093 
	C264.291656,37.986740 266.223785,36.392365 266.844116,33.423954 
	C267.774994,28.969627 270.777710,28.218222 274.641174,27.957403 
	C283.487579,27.360184 292.455811,30.402496 301.215607,27.047342 
	C301.911224,26.780910 302.912323,26.941948 303.652100,27.220901 
	C308.494171,29.046782 313.354279,28.249943 318.238251,27.516075 
	C319.663940,27.301849 321.410583,26.783361 322.525360,27.353018 
	C328.015045,30.158291 332.839935,26.967955 337.911133,26.040476 
	C339.350067,26.021341 340.788971,26.002205 342.737915,26.373859 
	C347.249115,28.790655 351.256042,30.913532 354.848633,26.074234 
M187.051437,166.535339 
	C183.967941,170.341400 180.061722,173.309738 178.017456,178.196320 
	C176.726028,181.283386 172.497772,183.067856 174.874146,187.581161 
	C175.314880,188.418198 174.735123,190.496552 173.930435,191.168015 
	C169.579208,194.798935 170.365723,200.493591 168.156281,204.970383 
	C167.377426,206.548553 168.007324,208.824860 168.004593,210.782425 
	C168.001572,212.941025 168.120499,215.107025 167.975525,217.255569 
	C167.880646,218.661575 166.811646,220.244598 167.202469,221.403015 
	C171.037964,232.771683 171.959976,245.877975 184.829132,252.058640 
	C185.117493,252.197128 185.481522,252.320282 185.641998,252.562180 
	C190.569260,259.990143 197.853012,264.140076 206.125092,266.398895 
	C212.396652,268.111481 218.716263,269.462952 225.485672,269.303345 
	C230.295151,269.189972 235.062515,270.512421 239.671661,268.060425 
	C240.151932,267.804932 241.095764,267.941345 241.587128,268.260895 
	C246.124100,271.211578 248.550873,268.308136 251.084610,265.111206 
	C252.240097,263.653259 253.891266,261.504120 255.306030,261.512970 
	C263.985413,261.567444 265.284943,251.919846 271.855133,249.404480 
	C271.209961,243.535614 277.906647,241.724655 278.865051,236.685776 
	C279.430969,233.710251 280.130035,230.713928 281.211456,227.896729 
	C282.125275,225.516205 284.476379,223.481094 284.775116,221.114380 
	C285.367371,216.421692 284.976685,211.605652 285.006653,206.840683 
	C285.012909,205.844269 284.821838,204.748566 285.160583,203.867325 
	C288.857941,194.249069 284.469666,186.087952 280.356995,177.991196 
	C279.331207,175.971756 276.918152,174.703369 275.375092,172.891876 
	C270.149475,166.757187 265.093719,160.477234 259.836517,154.370346 
	C257.547913,151.711853 254.910080,149.355835 252.463470,146.830826 
	C250.645554,144.954651 248.855484,143.049866 247.102631,141.112930 
	C246.322250,140.250565 245.704865,139.242279 244.942322,138.361862 
	C242.986389,136.103531 240.947189,133.916077 239.029633,131.626282 
	C238.115234,130.534363 237.489136,129.201874 236.580627,128.103958 
	C234.016266,125.004921 231.373337,121.970871 229.025604,119.220726 
	C228.651291,119.803642 227.713715,121.277130 226.762665,122.741882 
	C225.179581,125.180023 223.612015,127.628769 221.991745,130.042053 
	C220.808563,131.804321 219.811569,133.805466 218.273743,135.192444 
	C214.889145,138.244995 211.094040,140.840851 207.691666,143.875580 
	C204.091202,147.086960 200.581543,150.436829 197.344940,154.009506 
	C193.892624,157.820251 190.806152,161.962418 187.051437,166.535339 
z"/>
<path fill="#000000" opacity="1.000000" stroke="none" 
	d="
M337.448425,26.021660 
	C332.839935,26.967955 328.015045,30.158291 322.525360,27.353018 
	C321.410583,26.783361 319.663940,27.301849 318.238251,27.516075 
	C313.354279,28.249943 308.494171,29.046782 303.652100,27.220901 
	C302.912323,26.941948 301.911224,26.780910 301.215607,27.047342 
	C292.455811,30.402496 283.487579,27.360184 274.641174,27.957403 
	C270.777710,28.218222 267.774994,28.969627 266.844116,33.423954 
	C266.223785,36.392365 264.291656,37.986740 261.204254,39.331093 
	C258.851685,40.355480 257.796082,44.200722 255.969833,46.646435 
	C254.725281,48.313168 253.102203,49.691612 251.726059,51.266838 
	C248.125809,55.387848 244.604401,59.578072 240.982147,63.679394 
	C238.089554,66.954575 235.132614,70.175316 232.130676,73.350677 
	C230.438370,75.140762 228.597214,76.790123 226.912003,78.417061 
	C225.799637,77.502586 224.037323,76.431007 222.798447,74.927994 
	C221.587555,73.458954 220.799438,71.597610 220.034073,69.818840 
	C219.404770,68.356262 219.530457,66.325340 218.539825,65.305923 
	C215.129868,61.796799 211.260178,58.738583 207.784119,55.288467 
	C203.359863,50.897228 199.563354,45.772385 194.736298,41.914726 
	C189.190018,37.482296 184.502914,31.361723 176.357071,30.950768 
	C168.188751,30.538679 160.033859,29.783640 151.889084,29.010355 
	C146.738556,28.521351 141.622375,27.678953 136.479019,27.099688 
	C135.369110,26.974684 134.211029,27.339314 133.070923,27.407755 
	C130.529526,27.560308 127.986526,27.699440 125.442223,27.786953 
	C121.742355,27.914213 118.036118,28.158924 114.340797,28.056839 
	C104.799759,27.793257 95.265442,27.214712 85.723862,27.075163 
	C81.469933,27.012947 77.208321,27.755108 72.943581,28.029221 
	C70.958382,28.156818 68.953102,28.121243 66.964424,28.016790 
	C61.401840,27.724630 55.559643,26.136482 50.357948,27.343851 
	C44.453072,28.714436 39.751125,33.358551 34.962643,37.411156 
	C30.204576,41.438015 28.809011,48.730736 21.651106,50.548222 
	C20.597359,50.815784 20.275484,54.937782 20.072941,57.315422 
	C19.865629,59.749081 20.421267,62.115307 17.116434,63.167377 
	C16.114624,63.486294 15.121760,65.694000 15.138450,67.023872 
	C15.204541,72.290108 14.765892,77.819885 16.224960,82.745216 
	C17.980692,88.671974 20.252491,95.441467 24.567823,99.330978 
	C28.781889,103.129211 30.618713,107.542023 32.986706,112.017982 
	C33.482243,112.954636 33.653336,115.006660 33.127758,115.392715 
	C28.278450,118.954704 27.911217,124.912827 27.652712,129.504120 
	C27.300917,135.752304 22.893515,141.930786 26.687714,148.530167 
	C27.311378,149.614929 24.708912,152.307434 25.158564,153.780289 
	C27.668455,162.001572 21.098799,170.805038 26.903027,178.702789 
	C24.166546,184.236160 29.338943,190.892624 24.386236,196.219681 
	C23.708431,196.948700 24.055410,198.769409 24.171886,200.062714 
	C24.316639,201.670029 24.302137,203.499176 25.076277,204.806091 
	C28.274834,210.205978 25.391571,215.858810 25.628782,221.316742 
	C25.883953,227.187851 23.721350,233.155914 27.015776,238.829453 
	C22.961136,246.649017 29.012339,255.277512 25.072523,263.106262 
	C27.786337,268.730957 21.873531,276.227783 27.534967,279.748169 
	C27.943529,284.328888 28.220390,287.617645 28.541561,290.902130 
	C28.620308,291.707458 29.049746,292.520538 28.967569,293.292786 
	C28.418221,298.455231 27.492126,303.593201 27.227530,308.766663 
	C26.843813,316.269165 27.090349,323.803467 26.724852,331.307495 
	C26.521067,335.491302 25.889242,339.709412 24.853693,343.759552 
	C24.587637,344.800171 22.117062,345.423798 20.561970,345.953400 
	C18.276543,346.731781 15.188440,346.152649 14.416798,349.864532 
	C14.034527,242.649994 14.018437,135.325546 14.009179,28.001089 
	C14.009137,27.522182 14.106432,27.043268 14.219045,26.002842 
	C121.810272,26.002842 229.398010,26.002842 337.448425,26.021660 
z"/>
<path fill="#000000" opacity="1.000000" stroke="none" 
	d="
M292.609344,424.960297 
	C297.947754,419.657074 304.878540,420.200745 311.898682,420.986603 
	C313.857391,421.205872 315.986176,421.476562 317.821320,420.959045 
	C326.107666,418.622467 334.330139,418.544739 342.785095,420.143677 
	C346.488922,420.844116 350.474609,419.915588 354.319977,420.058868 
	C356.550812,420.141968 358.810181,420.709961 360.964111,421.364502 
	C366.465942,423.036469 371.578156,423.840942 377.143585,420.607330 
	C380.458679,418.681183 384.890778,418.446503 388.882629,417.965576 
	C396.531708,417.044006 403.605927,415.015717 409.807953,410.133148 
	C412.185852,408.261139 415.711578,407.781586 417.936310,405.795898 
	C421.266907,402.823120 421.176605,396.961578 426.567688,395.301605 
	C427.424652,395.037750 428.139771,392.275482 427.888672,390.850006 
	C427.250580,387.226715 428.523102,384.615295 430.778076,381.967468 
	C431.693298,380.892761 432.006744,378.955292 431.927032,377.445648 
	C431.618225,371.597198 433.401428,366.442657 435.741608,361.148651 
	C436.852783,358.634857 436.580780,354.371124 435.070923,352.191956 
	C433.829193,350.399719 429.835419,350.514252 425.992950,349.502350 
	C425.992950,338.169434 425.992950,325.381348 425.992950,311.844788 
	C427.610809,309.799133 429.900757,307.398102 428.215393,302.830750 
	C427.219727,300.132416 428.817993,296.497864 429.161926,293.274963 
	C429.321259,291.781708 429.935089,289.664551 429.206146,288.859497 
	C424.893188,284.096191 426.154968,277.196289 427.748718,273.732544 
	C430.937897,266.801300 427.297424,261.042542 427.816406,254.847733 
	C427.906281,253.774460 428.430695,252.725021 428.830536,251.694107 
	C429.168304,250.823212 429.997192,249.975708 429.955078,249.151230 
	C429.640747,242.997345 434.527527,236.717911 428.620728,230.437454 
	C427.263428,228.994308 429.552094,223.478699 431.005035,220.211807 
	C432.543518,216.752457 433.419861,214.036484 431.255005,210.304764 
	C430.055603,208.237228 431.110535,204.903641 431.014252,202.145416 
	C430.829803,196.861023 428.908844,191.786148 431.524384,186.243057 
	C432.961731,183.196869 432.082642,178.799164 431.453308,175.147781 
	C431.148987,173.381989 429.012146,171.932053 428.491211,171.297211 
	C428.678986,167.082993 429.169067,163.458633 428.925232,159.884354 
	C428.526917,154.046249 426.364838,148.021698 427.309509,142.478455 
	C428.423065,135.944550 427.032898,130.409134 424.974762,124.631210 
	C423.614929,120.813507 422.441345,116.923576 420.936707,113.165131 
	C419.650482,109.952271 420.101776,107.627136 423.336517,105.989182 
	C431.008362,102.104431 437.188263,89.366577 436.099396,80.471619 
	C435.858154,78.500725 436.796326,76.385445 437.562347,74.227554 
	C437.955505,150.254257 437.981415,226.390076 437.998474,302.525879 
	C438.007202,341.343842 438.000000,380.161804 438.000000,418.979767 
	C438.000000,420.793365 438.000000,422.606964 438.000000,424.994812 
	C389.551636,424.994812 341.309479,424.994812 292.609344,424.960297 
z"/>
<path fill="#000000" opacity="1.000000" stroke="none" 
	d="
M14.026985,363.493683 
	C14.386469,364.002747 14.718778,364.981201 15.059134,365.956909 
	C17.037003,371.626923 18.902304,377.340668 21.073618,382.935669 
	C21.640694,384.396942 23.224049,385.440308 24.234707,386.756897 
	C29.176037,393.194183 34.026485,399.702423 39.057705,406.068115 
	C39.832752,407.048767 41.369987,407.438782 42.572662,408.067657 
	C48.597702,411.218109 53.225872,416.839081 60.027920,418.479004 
	C63.519482,419.320740 67.282234,419.037598 72.048538,419.332489 
	C73.833633,422.328186 76.965897,424.357758 82.344727,421.515625 
	C84.702805,420.269653 88.207596,420.727539 91.110100,421.081329 
	C96.205215,421.702332 101.235878,422.847870 106.297752,423.750092 
	C107.100258,423.893127 107.943222,424.062256 108.736191,423.964783 
	C113.734306,423.350311 118.910629,421.508453 123.670807,422.279053 
	C130.380280,423.365204 136.130936,419.637634 142.461121,420.188202 
	C145.132889,420.420532 147.727463,421.794189 150.383652,421.886627 
	C153.586975,421.998169 156.829208,421.377106 160.035614,420.935425 
	C166.771179,420.007538 173.467728,418.583496 180.231232,418.140228 
	C185.428299,417.799561 185.627350,412.827545 188.587219,410.432983 
	C193.770813,406.239410 198.788437,403.526611 205.589218,404.915894 
	C207.661316,405.339172 209.901688,405.182312 212.039642,404.997711 
	C221.259125,404.201691 230.174179,405.384003 238.948090,408.355743 
	C241.342468,409.166687 244.135345,408.720490 246.704941,409.114655 
	C250.013596,409.622223 253.409470,410.036255 256.532745,411.149750 
	C259.968140,412.374512 263.132355,414.356628 266.426788,415.984314 
	C266.854004,416.195374 267.674011,416.142151 267.772949,416.410309 
	C271.253662,425.843903 279.825104,422.826447 286.745117,424.552246 
	C196.101700,424.947083 105.320404,424.947083 14.003530,424.947083 
	C14.003530,404.487640 14.003530,384.224731 14.026985,363.493683 
z"/>
<path fill="#000000" opacity="1.000000" stroke="none" 
	d="
M437.967834,65.422348 
	C436.417236,63.536877 434.720154,61.283936 433.407166,58.825821 
	C430.401489,53.198647 425.533051,48.319580 423.161957,42.970818 
	C419.786163,35.355568 412.255859,35.009552 407.436249,30.342655 
	C404.250275,27.257629 397.484100,27.869993 392.173889,26.438328 
	C407.158234,26.049660 422.289520,26.049660 437.995789,26.049660 
	C437.995789,39.123810 437.995789,52.042751 437.967834,65.422348 
z"/>
<path fill="#000000" opacity="1.000000" stroke="none" 
	d="
M386.416382,26.031296 
	C383.709900,29.087887 380.196899,27.417469 376.615326,27.119415 
	C370.899536,26.643759 365.122223,26.907982 359.230438,26.449600 
	C368.045380,26.027924 377.000793,26.016014 386.416382,26.031296 
z"/>
<path fill="#000000" opacity="1.000000" stroke="none" 
	d="
M354.400055,26.039778 
	C351.256042,30.913532 347.249115,28.790655 343.168884,26.402294 
	C346.710358,26.028402 350.330902,26.016861 354.400055,26.039778 
z"/>
<path fill="#000000" opacity="1.000000" stroke="none" 
	d="
M187.305695,166.247620 
	C190.806152,161.962418 193.892624,157.820251 197.344940,154.009506 
	C200.581543,150.436829 204.091202,147.086960 207.691666,143.875580 
	C211.094040,140.840851 214.889145,138.244995 218.273743,135.192444 
	C219.811569,133.805466 220.808563,131.804321 221.991745,130.042053 
	C223.612015,127.628769 225.179581,125.180023 226.762665,122.741882 
	C227.713715,121.277130 228.651291,119.803642 229.025604,119.220726 
	C231.373337,121.970871 234.016266,125.004921 236.580627,128.103958 
	C237.489136,129.201874 238.115234,130.534363 239.029633,131.626282 
	C240.947189,133.916077 242.986389,136.103531 244.942322,138.361862 
	C245.704865,139.242279 246.322250,140.250565 247.102631,141.112930 
	C248.855484,143.049866 250.645554,144.954651 252.463470,146.830826 
	C254.910080,149.355835 257.547913,151.711853 259.836517,154.370346 
	C265.093719,160.477234 270.149475,166.757187 275.375092,172.891876 
	C276.918152,174.703369 279.331207,175.971756 280.356995,177.991196 
	C284.469666,186.087952 288.857941,194.249069 285.160583,203.867325 
	C284.821838,204.748566 285.012909,205.844269 285.006653,206.840683 
	C284.976685,211.605652 285.367371,216.421692 284.775116,221.114380 
	C284.476379,223.481094 282.125275,225.516205 281.211456,227.896729 
	C280.130035,230.713928 279.430969,233.710251 278.865051,236.685776 
	C277.906647,241.724655 271.209961,243.535614 271.855133,249.404480 
	C265.284943,251.919846 263.985413,261.567444 255.306030,261.512970 
	C253.891266,261.504120 252.240097,263.653259 251.084610,265.111206 
	C248.550873,268.308136 246.124100,271.211578 241.587128,268.260895 
	C241.095764,267.941345 240.151932,267.804932 239.671661,268.060425 
	C235.062515,270.512421 230.295151,269.189972 225.485672,269.303345 
	C218.716263,269.462952 212.396652,268.111481 206.125092,266.398895 
	C197.853012,264.140076 190.569260,259.990143 185.641998,252.562180 
	C185.481522,252.320282 185.117493,252.197128 184.829132,252.058640 
	C171.959976,245.877975 171.037964,232.771683 167.202469,221.403015 
	C166.811646,220.244598 167.880646,218.661575 167.975525,217.255569 
	C168.120499,215.107025 168.001572,212.941025 168.004593,210.782425 
	C168.007324,208.824860 167.377426,206.548553 168.156281,204.970383 
	C170.365723,200.493591 169.579208,194.798935 173.930435,191.168015 
	C174.735123,190.496552 175.314880,188.418198 174.874146,187.581161 
	C172.497772,183.067856 176.726028,181.283386 178.017456,178.196320 
	C180.061722,173.309738 183.967941,170.341400 187.305695,166.247620 
z"/>
</svg>